<mxfile host="Electron" agent="Mozilla/5.0 (Windows NT 10.0; Win64; x64) AppleWebKit/537.36 (KHTML, like Gecko) draw.io/28.1.2 Chrome/138.0.7204.243 Electron/37.4.0 Safari/537.36" version="28.1.2">
  <diagram id="C5RBs43oDa-KdzZeNtuy" name="Page-1">
    <mxGraphModel dx="983" dy="580" grid="1" gridSize="10" guides="1" tooltips="1" connect="1" arrows="1" fold="1" page="1" pageScale="1" pageWidth="850" pageHeight="1100" math="0" shadow="0">
      <root>
        <mxCell id="WIyWlLk6GJQsqaUBKTNV-0" />
        <mxCell id="WIyWlLk6GJQsqaUBKTNV-1" parent="WIyWlLk6GJQsqaUBKTNV-0" />
        <mxCell id="oPZypz6bq9TwNKat6TRu-6" value="" style="edgeStyle=orthogonalEdgeStyle;rounded=0;orthogonalLoop=1;jettySize=auto;html=1;" parent="WIyWlLk6GJQsqaUBKTNV-1" source="WIyWlLk6GJQsqaUBKTNV-3" target="WIyWlLk6GJQsqaUBKTNV-7" edge="1">
          <mxGeometry relative="1" as="geometry" />
        </mxCell>
        <mxCell id="WIyWlLk6GJQsqaUBKTNV-3" value="TV/News Show" style="rounded=1;whiteSpace=wrap;html=1;fontSize=12;glass=0;strokeWidth=1;shadow=0;fillColor=#dae8fc;strokeColor=#6c8ebf;" parent="WIyWlLk6GJQsqaUBKTNV-1" vertex="1">
          <mxGeometry x="50" y="100" width="120" height="40" as="geometry" />
        </mxCell>
        <mxCell id="oPZypz6bq9TwNKat6TRu-5" value="" style="edgeStyle=orthogonalEdgeStyle;rounded=0;orthogonalLoop=1;jettySize=auto;html=1;" parent="WIyWlLk6GJQsqaUBKTNV-1" source="WIyWlLk6GJQsqaUBKTNV-7" target="oPZypz6bq9TwNKat6TRu-0" edge="1">
          <mxGeometry relative="1" as="geometry" />
        </mxCell>
        <mxCell id="WIyWlLk6GJQsqaUBKTNV-7" value="Speech-to-Text&lt;div&gt;(Transcript)&amp;nbsp;&lt;/div&gt;" style="rounded=1;whiteSpace=wrap;html=1;fontSize=12;glass=0;strokeWidth=1;shadow=0;fillColor=#dae8fc;strokeColor=#6c8ebf;" parent="WIyWlLk6GJQsqaUBKTNV-1" vertex="1">
          <mxGeometry x="210" y="100" width="120" height="40" as="geometry" />
        </mxCell>
        <mxCell id="oPZypz6bq9TwNKat6TRu-4" value="" style="edgeStyle=orthogonalEdgeStyle;rounded=0;orthogonalLoop=1;jettySize=auto;html=1;" parent="WIyWlLk6GJQsqaUBKTNV-1" source="WIyWlLk6GJQsqaUBKTNV-12" target="oPZypz6bq9TwNKat6TRu-1" edge="1">
          <mxGeometry relative="1" as="geometry" />
        </mxCell>
        <mxCell id="WIyWlLk6GJQsqaUBKTNV-12" value="Fear Score" style="rounded=1;whiteSpace=wrap;html=1;fontSize=12;glass=0;strokeWidth=1;shadow=0;fillColor=#dae8fc;strokeColor=#6c8ebf;" parent="WIyWlLk6GJQsqaUBKTNV-1" vertex="1">
          <mxGeometry x="510" y="100" width="120" height="40" as="geometry" />
        </mxCell>
        <mxCell id="oPZypz6bq9TwNKat6TRu-3" value="" style="edgeStyle=orthogonalEdgeStyle;rounded=0;orthogonalLoop=1;jettySize=auto;html=1;" parent="WIyWlLk6GJQsqaUBKTNV-1" source="oPZypz6bq9TwNKat6TRu-0" target="WIyWlLk6GJQsqaUBKTNV-12" edge="1">
          <mxGeometry relative="1" as="geometry" />
        </mxCell>
        <mxCell id="oPZypz6bq9TwNKat6TRu-0" value="Fear Detection&lt;div&gt;Model&lt;/div&gt;" style="rounded=1;whiteSpace=wrap;html=1;fontSize=12;glass=0;strokeWidth=1;shadow=0;fillColor=#dae8fc;strokeColor=#6c8ebf;" parent="WIyWlLk6GJQsqaUBKTNV-1" vertex="1">
          <mxGeometry x="360" y="100" width="120" height="40" as="geometry" />
        </mxCell>
        <mxCell id="oPZypz6bq9TwNKat6TRu-10" value="" style="edgeStyle=orthogonalEdgeStyle;rounded=0;orthogonalLoop=1;jettySize=auto;html=1;" parent="WIyWlLk6GJQsqaUBKTNV-1" source="oPZypz6bq9TwNKat6TRu-1" target="oPZypz6bq9TwNKat6TRu-9" edge="1">
          <mxGeometry relative="1" as="geometry" />
        </mxCell>
        <mxCell id="oPZypz6bq9TwNKat6TRu-1" value="Data Fusion +&lt;div&gt;Correlation&lt;/div&gt;" style="rounded=1;whiteSpace=wrap;html=1;fontSize=12;glass=0;strokeWidth=1;shadow=0;fillColor=#f8cecc;strokeColor=#b85450;" parent="WIyWlLk6GJQsqaUBKTNV-1" vertex="1">
          <mxGeometry x="510" y="190" width="120" height="40" as="geometry" />
        </mxCell>
        <mxCell id="oPZypz6bq9TwNKat6TRu-2" value="Heart Rate&amp;nbsp;&lt;div&gt;Sensor&lt;/div&gt;" style="rounded=1;whiteSpace=wrap;html=1;fontSize=12;glass=0;strokeWidth=1;shadow=0;fillColor=#ffe6cc;strokeColor=#d79b00;" parent="WIyWlLk6GJQsqaUBKTNV-1" vertex="1">
          <mxGeometry x="364" y="280" width="120" height="40" as="geometry" />
        </mxCell>
        <mxCell id="oPZypz6bq9TwNKat6TRu-8" value="" style="edgeStyle=orthogonalEdgeStyle;rounded=0;orthogonalLoop=1;jettySize=auto;html=1;exitX=1;exitY=0.5;exitDx=0;exitDy=0;entryX=0.5;entryY=1;entryDx=0;entryDy=0;" parent="WIyWlLk6GJQsqaUBKTNV-1" source="oPZypz6bq9TwNKat6TRu-2" target="oPZypz6bq9TwNKat6TRu-1" edge="1">
          <mxGeometry relative="1" as="geometry">
            <mxPoint x="490" y="110" as="sourcePoint" />
            <mxPoint x="520" y="110" as="targetPoint" />
          </mxGeometry>
        </mxCell>
        <mxCell id="oPZypz6bq9TwNKat6TRu-9" value="&lt;div&gt;Visualization&lt;/div&gt;&lt;div&gt;Dashboard&lt;/div&gt;" style="rounded=1;whiteSpace=wrap;html=1;fontSize=12;glass=0;strokeWidth=1;shadow=0;fillColor=#f8cecc;strokeColor=#b85450;" parent="WIyWlLk6GJQsqaUBKTNV-1" vertex="1">
          <mxGeometry x="680" y="190" width="120" height="40" as="geometry" />
        </mxCell>
        <mxCell id="oPZypz6bq9TwNKat6TRu-12" value="Pipeline Diagram" style="text;html=1;align=center;verticalAlign=middle;resizable=0;points=[];autosize=1;strokeColor=none;fillColor=none;" parent="WIyWlLk6GJQsqaUBKTNV-1" vertex="1">
          <mxGeometry x="90" y="340" width="110" height="30" as="geometry" />
        </mxCell>
        <mxCell id="oPZypz6bq9TwNKat6TRu-13" value="" style="shape=image;verticalLabelPosition=bottom;labelBackgroundColor=default;verticalAlign=top;aspect=fixed;imageAspect=0;image=data:image/png,iVBORw0KGgoAAAANSUhEUgAAArMAAAFDCAYAAAApnYafAAAAAXNSR0IArs4c6QAAAARnQU1BAACxjwv8YQUAAAAJcEhZcwAADsMAAA7DAcdvqGQAAP+lSURBVHhe7J13nBxl/fjfM7N9r1/uUi6VEFJIAgkk9JBAKAqiIoqioIAFBVFBLPj1J4iAClJVpIMovYm0hCItISGF9JB6vd9t77szz++P3Rn2NnfJXbKb3JF581oy98zM88znafOZ5/k8n0cSQghMTExMTExMTExMhiByboCJiYmJiYmJiYnJUMFUZk1MTExMTExMTIYspjJrYmJiYmJiYmIyZDGVWRMTExMTExMTkyGLqcyamJiYmJiYmJgMWUxl1sTExMTExMTEZMhiKrMmJiYmJiYmJiZDFlOZNTExMTExMTExGbKYyqyJiYmJiYmJicmQxVRmTUxMTExMTExMhiymMmtiYmJiYmJiYjJkMZVZExMTExMTExOTIYupzJqYmJiYmJiYmAxZJCGEyA00Mfmso2katbW1+P3+3FOMHj2aqqoqJEnKPVVQtm/fTjAYpKqqitGjRxvhQgii0ShbtmxBlmWmTp2KzWbrce9gRtM0nn32WU455RSGDRuWe3pQI4QgHA6zc+dOxowZQ3l5eY9zHR0ddHV1MW3atP1SX1RVBUCW5d2mFw6H2bFjB6lUCgBFUSgvL2fEiBFYrdbd3puNEAJN06AfafYXIQSpVIra2lqam5tRVZWqqiomTZqEw+FAlvf/GIuqqmzYsMHI395wuVxUVVXxxhtvcM455+ByuXIvMTExOUCYyqzJQUkqleKaa65h5cqVKIpivKQlSeJHP/oR55577n59qQoh+PnPf86KFSuYPn06d999N4qiQOZF+/LLL3PrrbditVp5+umnh5RSmEql+MIXvsCtt96635S+fCGEYN26dfziF7/gF7/4BaeeeqpxTtM0nnzySZ5//nmeeuopo7wKyRtvvMH27dv5/ve/v9v0PvnkE372s58RiUSQJAlJkpBlmdNOO42f//znPer87tA0jTfeeIN33nmHG264AYvFknvJgNA/zO68807eeOMNVFU12tnkyZO56aabKCsr269tDyCRSHD22WeTTCYh66NBzzeACRMm8Otf/5rLLruMJ598kmHDhvUrD01MTArP/u0xTEwGCfqI0/Tp03n88cd55plneOaZZ3j66ac566yz9vvLFCCZTFJWVkZ9fT0NDQ3o35nRaJSXX36ZiooKUqmUMVI2VFAUhT/96U+MHz9+yL38hRAIIUgmk7uM2gkhUFWVZDJplFWhaWxs5JNPPtnlWXLRNA1VVfn+97/PU089xWOPPcZPfvITFi1axOOPP97vOiSEoLGxkVWrVu0xzf4Qj8f5y1/+wtKlS7n22mt59dVXWbRoEXfccQeqqnLVVVfR1taWe1vBsVqtPfqB3/zmN9hsNv71r38ZYX/5y18YPXo0t912G6WlpUOuLpuYfJbZ/29sE5NBhNVqZdiwYVRWVho/p9MJmdGZYDDIhg0bWL58OV1dXca0bfb5bdu28cEHH7Bt2zZCoVAPxSYej+P1eonH4zQ2NrJs2TIikYhxPpcZM2ZQWlrKhg0bjHgaGxtpaGjg1FNP3UXJTqVSdHV18dFHH7Fu3TqCwaChdAghiMViBAIBotEojY2NLF26lLa2NhKJRI94EokE7e3tfPjhh9TX1xONRgkGg8RiMeM5NE0jHA4b8jY3NxOPx404kskkgUCAWCxmPNP27dsRQlBTU4PVajXi8Xg8xONxPB4Py5cvZ/PmzUSj0R5KlqZpBAIBPv74Y9atW0c4HCYYDBIOh3tVxoQQ+P1+IpFIjzIQGVOBQCAAmXLz+XysXr2aJUuWsHPnzl3u2RdUVcXj8bB69WpWr16Nz+fr8bx6+ps2bWLp0qXU1tYSjUZ75HMkEjFk3bFjBx988AHd3d3EYjFisRher5fu7m4ikUiveaFTVFTEsGHDqKmp4bTTTmPq1Km88cYbxj36s2zcuJGlS5fS0NBglLlefyKRCIlEAp/Ph8fjMfJKP19XV8eHH35IXV0d0Wg09xF6sHTpUt5++22uuOIK5s+fj8vlwmazMWPGDH7605/S2trKCy+8gKqqRnnnKtF6WWbL4Pf7Wbt2LStWrMDr9RojrGTaoF6Xm5ubWbp0KV6vNyvG9Ahsdj9QUlKCLMs9+oXy8nIsFgujR482RsUTiYTRvtvb21m2bBnNzc2kUilUVaWrq4tly5axY8cOEolEjzqmaRrBYJDNmzezbNky2traejy3iYlJ/1Guu+6663IDTUw+62iaxuLFixFCsHDhQiRJMl40kiShqiqLFy/mpptuYuPGjWzbto0nn3ySzs5OZs2ahSzL1NXVce2117JmzRrq6+t5+eWXWbx4MRMnTjTMAN59912uueYampubWbx4Mdu2bWPu3Lm92tu9/vrruN1uTj31VBYvXsyZZ56JEIK3336bQCDA3LlzWbZsGV/96ldxuVzE43H+/ve/c88999DU1MSSJUt46qmnqKysZNy4cUiSxHvvvcdVV12Fx+PhtddeY/Pmzdx3332kUimOOOIIZFkmHo/z4IMPcuutt9LW1saSJUvYtGkTd911F2PGjGH8+PEIIVi5ciW///3vWbp0Kc3NzTz77LNs2LCBmTNn4nQ6aW5u5sILL6S+vp6XXnqJnTt3Eg6HmTlzJl/72tc46qijqKqqQlVVvvGNbxCNRnnqqafYsWMHzz//PEuWLOGoo46iuLgYTdP48MMP+e1vf8vHH3/M9u3beeONN3j33XdZtmwZCxYs2EWxB7jzzjt5/fXXmT9/vqFwJJNJfvWrX9HQ0MAxxxzD66+/zo033si2bduoq6vjzTffpK2tjaOPPnqX0TYhBO3t7SxatIjjjz+e8ePHo2ma8Vu/fj2bN2/m/PPPR5ZlIpEIjz32GH/729/YsWMHa9eu5V//+heKojB58mRkWaa1tZVf/epXbNq0iW3btvHiiy/ywQcfMGvWLIqKihBCcOutt/LPf/6TJUuWsHLlSrZs2UJzczOvvfYanZ2dLF++nLfeeotkMsn06dN3ee7Ozk5ef/115s6dy2GHHYYsy6RSKV555RUkSeILX/gCsiyzZs0afv/737N582a2bdvGM888w/Lly5kzZw5Op5PFixfz9NNPE41GWbFiBW+//TYul4uJEyeybds2br75ZhYvXkxTUxMvvvgiH330EUceeSRFRUU9nodMm3v66adpa2vju9/9LiUlJcZzS5JEWVkZ//vf//D7/Zxyyim8+OKL/O53v+OMM87A7XZDRnm8+eabefnll1m4cCGapvHMM89w5513smXLFjZt2sQjjzyCpmlMmzYNWZZZu3YtP/vZz2hpaeHVV19l586dHHLIIVRXV+c8Yfo5JEmiqamJd955h69//evYbDbjORsaGrjooos466yzcLlcrFu3ju9973t0dXXxyiuvsGnTJh544AGEEOzcuZN//vOfbN++nccff5yGhgZmz56NzWZD0zTeeustbrrpJj7++GNqa2t55plnaGxs5IgjjhhSNvEmJoMCYWJyEJJIJMSPf/xj8cUvflHccccd4u677xZ//etfxcMPPyxUVRXr168XCxcuFK+88oqIRqMiFouJVatWiTPOOEO88847QlVVEQgEhN/vF9FoVESjUeHz+cQ111wjfvOb34hUKiU0TROLFi0Sc+bMEXfeeacIh8MimUyKVCqV+zhC0zTx4x//WFx33XWirq5OnH322WLnzp0iHA6LSy+9VCxevFi8/PLLYv78+aK9vV2oqioWLVokTjrpJPHqq6+KWCwmYrGYuOOOO8TnPvc50dXVZVxz4oknirvuuktEIhERj8fF008/Lc455xwRjUaFEEJs3LhRLFy4UPzvf/8T8XhchMNhcdNNN4kTTjhBvPnmm0LTNBEOh8UFF1wg7r77bhGJREQsFhO1tbXirLPOEk888YRQVVXU1taKk046SXznO98Rfr9fxONxkUqlRCKREAsXLhTr1q0TmqaJeDwuTj/9dPGVr3xFtLa2ilgsJurq6sS8efPEK6+8IlRVFbFYTJx77rniD3/4gwiHwyIWi4kPPvhAnHDCCeIXv/iFSCaTuVkoNE0Tq1atEqeddprYtm2bEb5lyxZxxhlniJaWFqFpmjjllFPEPffcIyKRiEgkEiIWiwmfzydUVe0RnxBCqKoqPv74YzF//nxx1VVXibvvvtv43XXXXeKyyy4T55xzjkgmk0LTNLF06VKxcOFC8eGHHxr14r333hNnnnmm8Pv9Rl52d3eLaDQqIpGIaG1tFd/+9rfFH//4R5FMJkUymRTXX3+9OOGEE8Rbb70lotGoSCQSIpFIiPvuu0/86Ec/EqFQSMRiMaOe5aKX6WOPPSba2tpEW1ubePXVV8Upp5wiXnrpJeO+7u5uEQgEjGfxer3iO9/5jrjvvvtEMpkUiURC/OMf/xALFiwQwWBQxONxkUwmRSgUEpdffrn46U9/Kjwej4jH4yIYDIqf/exn4vrrr+/1meLxuLjqqqvEueeeK+LxeO5pIYQQN9xwg/j6178ufD6f2Lx5s5g3b55YtGiREV9bW5s477zzxH/+8x+haZpYs2aN+NznPideffVVo51+/PHH4uyzzxbNzc1CCCGWL18uTjzxRPG73/1OhMNhEY/Hey3rbJYuXSpOO+00EQ6He4Rv375dzJs3T7S3twtN08RHH30kTjrpJHH99deLUCgkotGoeOaZZ4x24PF4RCwWE6+++qo47bTTxPr164WmaaK5uVksXLhQvPTSS0Z7Wrt2rVi4cKF4+eWXe6RpYmKyZ3Yd2jAxOYiQJAmbzYbNZsNqtWK1WhFCsHjxYkpLSzn00EPp6uqiq6uLsrIyqqurWbZsGaqqUlRUhNVqZcWKFbz00ku8/PLLlJWVsXHjxh7TiRaLhQsvvBCn04nFYtntwh2A8vJyJk2axAsvvMCqVasIh8O7LJzSNI0VK1YwcuRI5s2bh91ux2az8bWvfQ2n08lbb71lXGu1Wjn//PNxOp3YbDbOPPNMEokEHo8HgBdffJEZM2Zw/PHHY7PZcLlcfPvb3+4xOrRkyRJisRgLFiygu7ubrq4uJEliwYIFrFixwpjytVgsXHDBBRQVFWGz2XYr62WXXUZ1dTV2u50xY8YwdepU6uvrUVWVjRs34vf7+cY3voHL5cJut3PsscdyyCGH5EZjIEkSEyZMoLq6mpdfftmYCv/nP//J5MmTKS8vRwhBSUkJdXV1tLe3I8syNpvNmFbuCyEEFovFqCt6fcmWT1VV3nrrLaZPn05NTQ3d3d10d3czZswYysrKWLp0KUIInE4nmqbxwQcf8NJLL/Hmm29it9vZvn07sVgMMrJMmjSJOXPm4HA4jLqpKAoWiwWr1Yrdbt/tQi5N03j44Ye59NJLueiii7jhhhs477zzOPPMM437ysvLSSaTxrO8/PLLFBcXs3z5cjRNQ5blHmnqZdrV1UVtbS1nn302kUiEzs5OfD4fxxxzDO+8844hRzYiY2Osx9kbdrvdMCuYNGkShxxyCB999BGaphmzA7IsM3/+fIQQvPPOO4wdO5YpU6YY9bKsrIxx48bx6quvGvE6nU4uv/xyw6xhd2U9UGRZ5stf/jJOpxOHw8GZZ55JPB7nZz/7GaWlpdhsNo499lii0ahhcvLKK69QWVnJhAkT8Hg8dHV1UVFRwZgxY9iwYYPRnkxMTPpH/lq0ickQQ5IkxowZw8UXX8yll17KpZdeyte//nUAOjo6aGlp4eqrr+aHP/whl112GVdeeSVer9dQknbs2MH555/PX/7yF15++WXeeOMNPv74Y8LhcI80SkpKekyp7gm73c4pp5zC8uXL+fe//8348eOpqqrKvQyPx8PEiRMNpVOSJJxOJyUlJbS0tBjX6WE6umKiKxxNTU1UV1f3eMFXVFRQXFxs/L1z5046Ozu55pprjPy44ooreOeddyCTNhnFOdt91e7Idj8G4Ha7DbvC9vZ2iouLDftlMgvJDjnkkN3mY1lZGbNmzWLNmjX4fD7a2tpYs2YNRx11FHa7HVmW+fOf/0xnZyc/+tGP+PrXv87f/vY3WlpaenyA5CLLMgsWLDDqyaWXXsoll1zCnDlzjGs0TaOhoYHVq1fzox/9iMsuu4zLLruMH//4x/j9frxeL5qmsXXrVi699FLuvfdeXnnlFd544w2amppIJpM9bLJLS0v3yXuAoihcccUVPP/88zz00EOcdNJJLF68mEAgYCiWq1ev5lvf+hb/+Mc/ePXVV3nzzTfZsWMHPp9vt/kRDofx+/3ccssthpw//OEPeeyxx3C73T3agI6iKLhcLpLJZK9243q5u1wuFEVBURS++93vsnr1asLhMKqq8sQTTzBv3jzcbjdCCBoaGtiyZQtXXHGF8RxXXHEF9fX1ho00QElJSa+mD/misrKyRxtQFIWamhqkjNmC3W5HyyzKE0JQV1dHU1MTv/jFL3rkX3t7+27z3cTEpHdMZdbkoEbKuN7RX56KohijdaNGjeLPf/4zd9xxB3fccQd33nknd955J5dccgmyLPP666/jcDi46667+Mc//sE//vEPfvjDH+7yMhroKJAsy8ybN49QKMTmzZs5/fTTex3JstvtuygdqVSKZDLZq01uX5SVle2ycC0Wi/VQSFwuFyNGjODmm2828kPPk6uuusqQUX95707hzKa36yRJori4mFgs1kO5E0LQ2dnZ49pcJEniS1/6Eu3t7dTV1bFu3TpisRgnn3yykdbEiRP5y1/+wm233cZll13G5s2bue6663ZZFJdLbj3R64qO/jFxwgkncPvtt/fIp7vvvpszzzwTTdO49dZbmTVrFnfddRf33nsv99xzD8cff3yPtPT49hX9mUeOHMmvf/1rioqKuO2220gkEsRiMR577DGmT5/eow5//vOf32Pa+ijtb37zm13qw1133UVZWVnuLSiKwqGHHko0GqW+vr7H6KMQgu7ubrZv305NTQ12ux2Ao446iqKiIl555RXWr19PW1sbc+fORZbTPm+dTiczZ87ktttu26Wdfutb3zLiH0id3Ff0dHaXpsvlYuzYsbu0p7vuuotLLrmkz/tMTEx6Z2BvWROTgwBJkjjiiCNIJBKoqsq4ceMYP34848aNo6amhuLiYiRJwufzMXz4cEaOHIndbieRSPD666/nRjdgdGXu4osv5vOf/zzHHXfcLi83KTMNvXnzZhobG0mlUqRSKXbs2EF3dzezZ8/ucf3uWLBgARs2bKChoYFkMkk8Hmfx4sU9lDt9mjSRSDB27FjGjx/P+PHjd9lIIB9IksT06dNRVZWVK1cSjUZJJpPs3Lmzh5eHvhg7diwzZ87kpZde4u233+b4449n1KhRkOUhoaioiEmTJnHyySdzySWXsHPnToLBYG5UA0KWZebMmcPWrVspLi7uUW+GDx9ujI63tLRQU1NDZWUlVquVUCjE1q1bc6PrFafTaSj5upu2PeUHmWcrLi7mjDPO4KOPPmLLli0kk0mCwSCjRo2ioqICq9VKNBpl1apVPeK0Wq2oqko0GjVGFktLSxkxYgRbt26lpqbGqA9jx46loqKi1xFlSZJYuHAhdrud5557jkAgYKz6j8ViLFq0iFAoxGmnnYY14/nCZrMxa9YsnnzySV5//XWqqqo49NBDjfYwZ84c6urqsNvtPfJ75MiRlJaW5jzB4ECWZY477jiCwSCSJBnPrbcnvX8xMTHpP6Yya3LQsruRk9NPP52ZM2dy/fXX89BDD7Fo0SKefPJJrr32Wj744AMApkyZwvr167n33nt57bXXuPHGG+nq6tplJLavNHLRR5vI3HPeeefxy1/+EofDYYTpP1mWOfPMMykqKuLmm2/mpZde4tFHH+XGG2/kpJNOYsaMGbvco5P79/HHH8+4ceP4xS9+wW233cZNN93E//73P1wul3HdhAkTOPvss7n++uu5++67Wbx4Mc899xw33HADr776KkKIXtNiN8+Qiy6/lDHNuPjii7n//vu57rrruOuuu7jxxhuZOHFir/dmY7FYOP3003nnnXdYsWIF559/vqFchUIhrr76au6++25ef/11XnjhBe6++26mTZvWw6xCR08r9/mzz+vhiqKwcOFC3G43v/rVr3jiiSdYtGgRjz32GL/85S+JxWLImY0L/vOf//DEE0/wn//8hz/84Q+EQqE+481m9uzZNDQ08Kc//Yn77ruPDz/8MPcSyMlzPR5Zljn77LNRFIW33noLu93OoYceyltvvcUTTzzBiy++yLXXXmtMz+v3jh8/nlQqxS233ML999/P2rVrqays5LzzzuOpp57illtu4dVXX+Wll17i1ltv5a9//WufCvbo0aP57W9/y/Lly/nlL3/J008/zUsvvcT111/Po48+yve+970eo9SyLHPsscfS3d3NokWLOPPMM42PAkmSmDdvHjU1NVx77bU89thjhh/d//u//6Opqcm4rre83B25eZcbnv13drvV6a0P0K+TZZkTTjiBuXPn8oc//IF7772XxYsX89RTT3HttdcapjsmJib9x3TNZXLQ0tLSwvDhw5k9e/YuLx990Yacce2zadMmOjs7OfTQQ5k3bx4lJSVMmDABSZJYv349O3bsYObMmVxwwQX4/X7mz5+PJEmEQiHC4TDz5s3b5YWXjZRxBzRq1KheXS0BBINBQqEQJ598Mg6Hg6KiIk4//XSamppYvXo17e3tzJ8/n4svvthQRLPT12XUbfaOO+443G43VquVY445BiEEbW1tjBw5kosuuojXXnuNM888k1GjRqEoCjNmzGDYsGFs2LCBdevW0dzczLBhwzj55JOprKwkmUzS2trKMcccQ3l5uSGDEILa2lqOPfZYw9l8XV0dxx57bI9RKH3EUnclNWXKFEaOHEl7e7vhzmvz5s2Ulpb2kCcXSZJwuVx4PB6mTp1qjAaSUTJCoRA7d+5k/fr1NDQ0MHnyZC6//PI+HeHHMn5z58yZw4gRI3qc022oTzrpJCRJwu12c8opp+Dz+VizZg2bN2/G4/Ewe/ZsZs2ahcViYdasWfh8PtauXUtTUxMnnHACs2fPxuVyMWfOHKxWK+3t7Yb9b7aJSVlZGcOHD6exsRGPx2NsA5v73PF43HAjl2u7WV1dTV1dHSeccAJHH300Pp+PDRs20NzczPz58426evzxx6MoCqNHj6a6upqOjg66u7sZPXo048ePZ8qUKUybNo2NGzeyfv166urqcLvdnH766bvYQ+tIksTIkSM59thjaW9vZ8OGDezYsQO3280PfvADFi5caIzK6gwbNozm5mZGjBjB97//fRwOhyGPw+FgwYIFJBIJ1qxZw6ZNm4zthY899lhsNhvRaBS/388JJ5zQZ53JJRKJ4PP5erh4I+MarK2tjXnz5uFwOIhEInR3dzNv3jzDvltk7OkXLFhg2LOLjKuu4447jqqqKhRFYc6cOVgsFjZs2MD69etpb29n/PjxnHTSSb2aaZiYmPTN4N7OVgiEpoEQSLIMfXVE+nWahqQoIEnpn4lJH4jMIi4hRK8jK/o1mqaRTCZJJpPGwiklsxJcP68vpNIXGGmaZlyjZfyR9jbtmouqqsZLurfn0aeUs59XZPa5j8fjyLJsPIN+XrdLzI4z21ZRlmUjDj1cCMGLL77IE088wV133cXYsWMNeUVmN6xEIoGiKMbqdl1WkRmhzVYaRNYqdj09VVWN+3Sy5Sdj/5tdTk1NTVx22WVcdNFFXHjhhb3mkY6eBpkR09x0dNtiKaPg5V6TjV7Ovcmln8u+X087kUigaRpWqxWLxWKUS3aZKYqC1Wo18kWPX4+7t7qp1ykhhJFub9f0VhbkbNUqSdIuz6KHZ8ermxfo9+kKnqZppFIpEokEUsYziJJjS9wbeh7oC/5sNpuRR7noeay3o1xZ9fOJRIJUKoU14/lBz7ve2sCe6Cv/9OfIbd+55Z9KpXZ51lQqZbQBHTWzg1xv/YuJiUn/GdTKbGTVasIffkiysZGyr5yL6+ijd1VoNY3wsmWEly9Hi8awlJdTfMbp2CdMMBVaE5N+kEwmufvuu0kkElRWVtLe3s5HH33E6aefzve//31jdGl/IoRg2bJl/Pe//2XcuHEkEgmWL1+O0+nkuuuuo6amJvcWExMTE5ODlEGtzHoefwJJkfG/+B/Kv/pVSr94DuSs6hapFJ5//hPn0Udjqagg8NrrRFeuZPRddyJlphZNTEz6RmRcHH344Ye0t7dTUlLCcccdx/jx4w173f2NEIJgMMjy5cvZtm0bANOmTWP27NnmAhkTExMTkx4MamUWIRDJJE1X/JiSM8/sVZk1yIihxWI0XHopY/7xD5Qs35omJia7J7srGCzKYm73NFiey8TExMRk8DC4lVlAJBI0/fhKSs44Y/fKbIbounW0//kWxt5/H3LGIF9VVcLhMNFoFMBYPNObfVYuUsbGrdDkI518xNEf9lc6B4J8yJaPOPrDUEonH3EUgnw8Vz7i6A9DKZ18xFEI8vFc+YijPwyldPIRR3/YX+kcCPqSTerjA14TAlUTyJKELEk9rCo1IdAESIAi67bcmXsyaUiALEnG+aHO4PdmoKoEXnsN+6GH4pgyeVebWR1NI7Z9B22//S0VF16Ic+oU9NJNpVLMmzePjo4Otm3bRjAYZPTo0VgsFuLxOIlEAlmWicfjJJNJw99iMplElmVisZixYCXb12I8HkdkFmrEYjEikYixEEFRFGOhjB5HMplEURTDT6Qenx4ejUbRMltI5qaTFlEzjrMX4SQSiV3S0WXQFx3oMmTHTWaltsgsoNDjzl7QkZ2OHreeV/pii0gk0iOv9kaG7HLoS4auri7ILOjR09Fl0BdsxONxpKxFLZIkGfmTK4NeDvmWIbdceyvv7HQkSTKO9bj7kiG3zubK0Fd5Z+dPtgx63PF4HJ/PZ9SnXBn0fNgXGeKZ9tWbDHp4b3VWjzu7norMIqt4ZuGbXg6yLPfIq4GU997KkJ0nugzZz53K+IT1er1YM9sl6/LobS1bhux0euuLUpnFRXpeZT93dl7p+ZMtg5zVz+Xm1e7KOzud7D6vLxmyy3VPMmTnlZbVprNlIKtfyn5uXZ5QKGSUSXY6uTJkxz0QGfS6pNfN3vJKlyG7b83tL/R0cvu83ZV3tgy5/bYuQ27+9CZDX32Rfqztps/r7OxEyiyg0+PW+4rcdHqTITvNXBl6y5/cdPS49bxK7aYd9yVDdjr9lSH7ubOPs+upto/vHp/PRzAYxG639ymDkjOIV9cV5oEPanniowaW13o4eXIVckbf8UUSPPhBHc+vbmb5zm6GlzipKLKhCbjh5Y28uq6VD7Z18d7WThKqxqThu7okHIp8NkZmNQ0tFqPxB5dR+tXzKP3c55Cy3LtEo1EWLFjAAw88wLRp05D7Uoj3EY/HQ0lJCZZ+rFw3GTjt7e2Gc3eT/KJpGjt27GDSpEm5p0zyQDgcJhwOU1VVhdTHSIvJ3hMIBLDZbAfMxvuzzo4dO/a4lbTJ3hEKhYhEIlRXV+ee6pNP2gKsqPPQFUzw9icdPPvD47FbZISAu9/eSmcwwTVnTOaFNc28tr6Ney88CqdV4Wv3fsjFJ4zn1KnDUWQJiyxhVQqjD+1vhoYUQpD+r2eYTqKtjaYfX4n7pJMoPeOMHopsLoVsjC6Xq2CKsgkUFRXt8oVqkh8kSWLYsGG5wSZ5wmazUVRUVND+52DGbrebgwgFpLKyMjfIJE/ofcNAmDKihAvmjmN0udMYkQVIqhovrmnhS7NqKHFa+cbcsUQSKTqD6RFpSYJIQqUrGEeWPjuKLIPdzCC6bh3+V14hvGwZWiiM2tmJdeRI1GCQ+gu+ifuE45FdLtr/8AdUrwfXUUeR2L6d+I4d2MaORcp0bqlUikceeYSzzjqLqqoqNE0zpoVSWf41VVU1pur0cP1YH8BOJpPG9I4+BaAfR6NR5IyfUUmSUFV1l3T2dNxXOmRGz7KPU5mpvz2l05tsetypzNRb9nFuOnrcasY/Z3bc+pRWdjq6DHtKJ/uZdBn08N7kCQQChu9GPZ3ccugtnWwZdpcnuflDVjlk50lumeh5kv3cep70Fnd/08k97i2d3Pj6ki03f7Lj1uPzer243e4ecfeWTm/l3Vc5ZD93f581O53e4i5kOr3lT+6xnk52OeSWd/az6vdEIhFsNtuA08mVR/TRR/R2nJvOnvIk+5r+pqM/a1/p7ClN/XhvyyGVShHL7K6mZUxE9pQOffQRucdqH21tT+Wt39tXOv3Nk70pB6kffYR+nH1NX+mQmXV0Op0DTqc32XLLuLf8yc0rdS/ePXp4b+lkP5Mugx7emzy5edLbcW/pZMvQV55Eo1Hi8TgOh8PIn1gsxs6dO+nu7sbv91NSUrLLQJkQsLk1wLomP189egyKJNEWiPLMyia+MXcM5e60S8V3t3QybWQJI8ocvLKulbc+6eCFj5t5ZW0rR4+roKJo/7teLASDWpnVgkFEMIRr1ixs48YhFxdhHz8e2e3GUj0c++TJSHY7ksWa9isrK4YRtOOww9IbKGQpswsXLqSqqopkMkksFsNqtRKLxYjFYiiKYtjfOBwOQqEQ8Xgci8VCOBxGVVWsmX3U9coZiUQgU3kjkQiRSAQpYyej22/p6YTDYRKJRA87Hz0+PTwUCqFlHHCHw2G0jC2OHq+aUZj1NOLxuLHDTSwWM55VlyEYDJLM2HvpMlgsFiMdMjvd6B2UHreeP7o9kS5DJBLZRQabzUYwGDRk1p9bURQjHSGEEbcug277tCcZ9GNFUejs7MRisWCz2QiFQkbHpcugp6N3cvoLTi8Hm81GJBIxylW3Mc3Oq+y8zz7W09FliEQihu1TPB436pJ+rJernqZeDqFQqEc6IuOYXT/Wy0GXQT/W47bb7T1kCIfDpFIp7HY7oVCIVMamL7ccsvMnuxx0W65YLIbP58PpdBoyZNfZ3Dag24GFw2HIjOzmyqAoCqlUyjjW609vMuh1SW9fugxqxl5QT0fTtF3aQ3Y91eXR8z4cDvda3oFAgGTGfi2SacfZMmTXU70clIy9XHa5Ztf77DRTGZtQvUxUVcXn8+FwOIw2rfdN0Wi0R3+RnY7eBnor72Aw2KMvyq5LZF6YuTJYMnaqehnr6ejlmsz0S73JoKcjZRaqZMugt91sGfT8cTqdRp3JliG7vHNl0OPO7vOy80qXQT8OhUI4HA6j7PV09DobDAZ7yEBWv01GgcuVIbtu2u12o4yzw7PTyW53ZPUX+nNLWX2r3l/klreeTnZ5Z7e77LzKliE77mwZcttxJOfdk32c2+dlx93R0YHNZkPO2CvH99BvD4Z3j5pRUPW4s+tSfADvnuw6q8sg8vju8Xg8hMNhioqKDBni8TjvvvsuLS0ttLa2MmPGDKScWZ1dlFlZwhtJ8OKaZs6dNZoylw0hYPHGdg4fVcKYChdHj6/g0hMncMExYxEIbn7tE754RA12q8JQnzMa9Daz+SCasZl98MEHmTZt2i6VIl/oDU8xp8ILQiQSweFw7PKFarLvCCHw+/3mNpoFIplMGi+vQvU/BzOJzAIei2lqUBD00UGz7uYfvW/Qt0PW0VWzvvJc1QTPr27iX8saePqy47BZZHzhBF/46wc88O05TBlRTEoTXPzwR/zyzClMryntcX9tV5gv/30JT33/WA4bXjLk95gytYI8kkgkcoNM8kgsa7WzSf4JhUK5QSZ5QlVVYplV5yb5J5k13WySf8y+oXCkMt4PcpF2s/2yyIzMCtLutkTmj1KXlXEVLuq7w6iaoDMYoysUp8xlNVxz6b+G7jASUOaypf10DXFMZTaPqFk2Oyb5J5mxWzLJPyLLxY9J/lEzNn8mhUHNslU1yT+9KVsm+UFVVZIZO+7+0uqLcsebW3l1fStt/hi3v7GV97al3af97LTDePD9ndz51lZ+/vRaTp82guElDuq6w1z99Frufns7d765jbve3s6Vp06iusTxWdBlTTODfJLM2EKa0+CFQbeNMvM3/+jKbO5Ul0l+UDMLS6xWa8H6n4MZ3R7WNPEqDNFo1DSRKRB632Cz9X8hVjCWYkOzn5QmgPTGCaPLXYyrdJFUNRq6I3QE47jtFg4bXoTdopBQNXZ2hvBHkwgBw4psjB/m/sx4NDCV2Tzi9/txu92m3VaB6OrqoqyszMzfAiCEoL6+nvHjx+eeMskD0WiUSCRCRUVFwfqfg5lQKITVasVut+eeMskD9fX1jB071qy7BSASiRCNRk33Z/vIZ0MlHySYZgaFxczfXdFtprR9zBchxICnukz6j5blcsgk/+ir700Kg9k3FA6zb8gPpjKbR0yn/oWlrKzMzN8cVE3w5EeNrK735p4aEJIkMXLkyNxgkzxht9spLS01R7YKhNPpxLqbzXJM9g2zbygcDoeD0tKengZMBo6pzOaRSCRiLkIoIIFAwPyCzSEcT3H329t4eEld7qkB09HRkRtkkicSiQTBYNAcPSwQscy+9yaFwewbCkc8HicYDOYGmwwQU5k1GTLoo1qqJkikNBIpjXhSJRxPEU+lPyL80STb2oOsb/azst7L0h1d1HaF0YSgMxjnuVVNvLe1E1X7bCgVT69sJKkKih2W7B2e9wpzYV3h2J2bHZN9x8zfwmL2DYXDrLv5wVwAlke0zPZ0hYr/YEYISKkqsizx7KomXl3fhj+aJBBNogn4zVlTOG3aCP7zcTM3v/YJSU1D09L2pBceO46fnnYY65t8fOP+5TisMm9fPZ+KzHZ/QxVVE5z6l3c4+bBqfvm5KTitn+6AN1BEZice04yjMIiML0hTKSgMZv4WFjWzw5n5bss/Zt3ND2bu5RGfz2f6kiwAQkB7IMrD727GG4ojyxJFDgsTq4s4fuIwTj98OFXFDgBmjinj6jMmc90XDufWr87knm/N5vw56X2rDx9Vyt3fmIUiS6xt8uUmM+RQZInXfnISP5w/kfZAjEBs76dZhRDs3LkzN9gkT0QiEbq6ukwzgwIRDAZNX6gFpLa2NjfIJE+Ew2G6urpyg00GiKnM5hnzyzX/aEKwdHs3/17dSSipce6s0dz+tSP547kz+N050/jFmVOYOTptQD+u0sVXZtfw+RkjWTClmmMPqWR0uQtJAqsiM31UCS6rwpqGoa3MakIQTahYLQrBWIrz7/2QJdu79tqrgVlvTYY6Zh0uHGbeFhYzf/cdU5nNI26326yUBUATgpX1HsqcVortFhRZwmaRsSrpn0WWkDP5LkvpYyUTJkuSMfUuSVBV4uD4icOoLLIN6VGylCq48MHlvLmpneEldmRJorYrvE92s8OHD88NMskTdrudkpKS3GCTPOF0Ok3/0wWkuro6N8gkT9jtdoqLi3ODTQaIqczmkXA4PKQVpMFKNKGyvTPMMJeM07JvHwsWWeLGc2dwwTHjGKobUmtC8HGjj42tAeZOqMBuVTh8VAnb20PsS+1rb2/PDTLJE/F4nEAgkBtskiei0ahp4lVATG8GhcPsG/KDqczmEdPPYWHwR5N0BeMcMaoIRd53BVSRpMy2foncU0OCpKpxzzvbmTu+gmJHeqT6qHHlbOvcN9dPLpcrN8gkTyiKMqDtKk0GhrnNdWExt7kuHGbfkB/M1p9HHA6H2aEWALfdwpnTRzB/6igseVhtn1Q1fvrUGv6zpjn31JCgtivMuiY/8w6rSptUSBJzD6kgmlD3aay5rKwsN8gkT1itVvNjoYDYbDbTE0cBMfuGwmG1Ws2PhTxgal55JBgMmpsmFIAyl5WrTjuMansKTdv3TRNkCQ4fVcKr69v2ycb0QKFpML2mlPmT08qsJMHMmjKe+N6xyPswct3S0pIbZJInYrEYPt/QXnQ4mIlEIuamCQWktbU1N8gkT8RiMfx+f26wyQAxldk8Yi5AyD+qJlhR66HFH8Nqs+VlgZ0iS8yoKWVtkx9vJLFPdqb7GyHgsBHFPPTtozlkWJGxuM2iSFgtMoFoaq8VdHN0oHDIsmyaIRUQRVHy0jeY9I7DkXZ9aJJ/FEUx+4Y8YCqzecS028o/SVXjNy9u4OW1LVgt1ry8sCRJYmJVEXaLzIZm/z7Zme5v2gJRVtd7keRPvTQAJFIaf1m0lb8s3oK6l7MD5gurcOgvrHzUX5NdURTFNDMoIGbfUDhMm9n8YGpeeSQWi6Gq+z4NbvIpDZ4I3aEE02tKCUfCeTPjOGSYmyNGlxJODK0V0A99UMuNr24mluhZz2RJIqlprKr3EMts7TsQhBB4vd7cYJM8kUwmiUQiQ+rDaSiRSCRMbwYFxOwbCkcikSAcDucGmwwQU5nNI06n0xyZzTNrG3247QrDSxwUFRXlLX+rSxz89YLZnD5txJAYLRNAdyjBG5s7OGJ0KQ5rz1EoWZYYX+kiFFfxhAfupUGSJCoqKnKDTfKE1Wo1/VAXELvdbpp5FRCzbygcNpsNt9udG2wyQPKjGZhAZnTLJH8IYGNLgFKnlapie9pgNE/oGy9saPGjafmLt1AIIdjQ7MMfTTJ/cvUuLspkCSZVFxNJpOgO7d22nmb9LSxm/hYOfX97k8Jg5m3hMOtufjCV2TwSi8XyNg1ukm7kcydUcNaMkZS5rEQikbzlrwBC8RQXP7yC9kAsn3pyQRAC3tvWRVWRjbnjdx0lkZCYNLyIRErgiwx8VbdpZlBYTDODwpJIJEwTrwJi9g2FQ+8bTPYNU5nNI06n01yEkEdkSeJz00fyw/mHIksSRUVFectfCShxWil3WXl9YxvaIFcyJAkmDS/iylMn4bTtmgeSBGMqXLx51TxOnlyVe3qPSJJEZWVlbrBJntCnEk0zg8JgmhkUFrNvKBymmUF+MJXZPJJIJPI2cmgCnnCcJTs6SWRGXPI98i0DM0eX8fLaVtQhYGpw3lFj+Nz0kX36kpUliQq3HU2kt7wdKKFQKDfIJE+kUini8bg5MlsgksmkOTJbQMy+oXDofYPJvmEqs3nE7EzzhxDwwfYufvPCBtSM/ppKpfKqDEhS2t/sjs4QHcFY7ulBQySh8vCSWtY3+ZCk9KhybwjgzU/a+fnTa0mpA88ns0MtHJqmmavtC4imaXntG0x6kkgMfFGpSf8w+4b8YCqzeaSkpCRvq+0HA5oQJFRtr0b58sH7W7uYPLwYS2Yksry8PG9mBmSm5qeOLGZ0uZNAdPB2JnVdYR54v5ZNLYHd2/YKcFsV3tvWSTTHdVd/GD16dG6QSZ5wOByUl5fnBpvkCZfLZTqeLyCjRo3KDTLJE06n09wuOA98djSvQUA+FygNBrqCcT5/5/usqPPsd4VW1QRLd3QxY3SpsXI/FArlNX9lSeLYQyp55cqTmDaqJPf0oEATgo8bvEQTKqdNG96niQGkDYFHlTuxKTKb2wK5Z/dId3d3bpBJnkgmk+ZUbQGJx+PmzFgB8Xg8uUEmeSKRSJgLwPKAqczmkc/SVIEmBLVdYWq7wry8bv/alAoBjd4I3kiSycOLDQUumUzmfSpRkiTiKQ1fJLlfZewvSVXjv+taOePw4QwrtvdpYkBmUVuR3UKZy8r6poHv9R2NRnODTPKEqqokkwP3MmHSP1RVzeuHrklPYrHBa4Y11FFVdcBmHImUxuaWAA+8v5N/flhPKuvdpWqCjS0B/vHuDt7b2klS1YwZvZQmWNvo5e//286HO7pJ7MUGO4MVU5nNI/l06n+gEQKW7OhmRImD6aNKkPfnKmwJLLLEt48bz6ThxYYCV1pamlczA503Nrbx7YeWk9SNcwcRW1qD1HeHOfeo0Ui7VWXTuO0WqkscNPkGrpiOGDEiN8gkT9jtdkpKBufo/2cBp9NpejMoIMOHD88NMskTDodjwH3DptYADyzZybKdHp5d1WjMnAoBize1cedbWylzWfnPmmZuenUzsaRKShM89VEDd7+9naoSO0+tbOT2N7bs91nXQvHZ0LwGCfmeBj+QSMCJh1by689P4dzZo9nd7HYhqCl38vMzJjO+8lOXJX6/vyBTiXMmVNDgidDkHbgCWGgmjyjm9vOPZOqIEvrzPeGyKfz1gllc+/mpuaf2SFtbW26QSZ6Ix+MEAgM3/TDpH9Fo9DM1MzbYaG9vzw0yyROxWIxgMJgbvFtmji7lpi/P5PTD0x8Zuj6qCcE97+zg28eN56tHjeGGL01n6fZu2oMxPOEED3xQyyUnTODcWaO5bN4hPLmiifruyO7XYgwRDiplNt9T1L2xP9LYH0iyxJzxlZw1YxTvbu1kc1twv1X4lKrxwbYu6rvDmTX6aQqVt6VOK2MrXLy6vjX31AFFCLBZFI45pJISZ/8Wt8iSRLHDik2Rs3JuzxQqb03MvN1fmPlcOMy8LSy5+atpGtFolGg0SiwW2+W8LElY5PRcnT5jJwBvJEF3OEFVsR1FlrBbFEaWOvBFkrT7o0QSKQ6vKUWWJcZWunBaZeq7w4gBvS0GJ8p11113XW7gZ41UKsXDDz/MUUcdRXl5OV6vl/b2dpxOJ21tbXR0dGCxWGhpacHj8VBaWkpdXR3d3d1YrVYaGhoIh8M4HA5qa2sJh8OoqkpTUxOpVIpEIkFTUxNWq5VAIEB7ezs2m43u7m7juLGxke7ubpxOJ83NzXi9XpxOJ7W1tXg8HpxOJ/X19USjUSwWC3V1dUQiEVKpFM3NzQCEw2FaWloQQtDd3U1HRwcul4v29nYjnYaGBnw+nyGD1+tFURQaGhoIhULY7Xbq6+uJRCI9ZIjH40Y6Pp+PpRtrWVbnw5YK8cfXt9MeTDDOFqG7uwu73U5zczM+n4/i4mJ27NiBx+Mx8ioWi/UpQyQSobm5GUmS6Ozs7FWGzdvr+M1/t2FRJCpFAL/fh9Vqpb29nUgkYsgZi8VQVZXGxkbi8bghgyzL+P1+WltbkWWZrq4uOjs7cblcNDU10dnZidVqpampCb/fT1lpKe9vbmHZzm7OObySxsbGHjJEo1ESiQTNzc0IIXqVwel00t7eTkdHBw6Hg7q6OjweDy6Xi8bGRvx+Pzabjbq6Ovx+PxaLhYaGBhKJBEII4zgajdLS0oIky3zwSSt/fnU9s0a58XV30tnZSUlJCc3NzXR0dBj5EAgEKC4upra2Fr/fz7buOFc9uZIRjhSV7nR5Z+ePEMKoS4qiGDIMGzaMrq4uurq6cDqdNDY20tXVhcPhoLGxkWAwiMvlYufOnXi93j3KoCiKUQ6KotDS0kJXV5chg14Oep0tKiqivr6eQCBg1NlwOIwsyzQ0NJBMJg0ZVFU1ZLBYLEZbs1gstLe3093dTVFREQ0NDXR1dRltMBAIUFJSwvbt2/H7/ciyTGNjYw8Z9MVaev0JBAKGDK2trXR1deF2uw15ssvb7XZTX19PKBTCYrFQX19PMBjEZrPR2dmJpmkkk0mamppQVZVAIEBbW5vRX7S1taEoCm1tbUZeNTQ00NnZaZR3MBjE7XZTW1trjOjobSBbhnA4bMigl4PVaqW1tZXOzk7sdjutra1GPc3ui/S8t9vt1NbWGqPK+nPrfV4qlSIYDBoyeDwe2trajPbV3d1NeXk59fX1PfrTQCCAy+Uy8kqXQfcl3djYiKZpRjmQmZnR09Hbms1mo7W1lWAwSFlZmdFv63kVDodxOp3s3LmTQCCAJEk0Njb2kEHTtB5xZ8ug99vFxcU0Njbi8Xiw2WzU19fj9/t79KcADQ0NxkLgpqamHm2NzE5a/Xn36HU2V4bcd49el3JlyH73NDU1GW16d++eSCTSa78thDDq5O7ePY2NjXi93gG9e5LJpFEO+rtHbwN6Ona7nZaWFqPO9vbu0fOqP+8egK6url5laGhoMMqhvr4eny/97tHbcfY7rrd3jyRJfb57svu8pqYm4z3d0NBANBrtIUNHRwcXXXQRTz75JM899xznn3/+LiaMQsDm1gDrmvx89egxKJJERzDOS2tbOO+o0ZS5bAgBb3/SwWHDixBIvLyulcsXpDch0gQ8/3EzR40t59DhRUN+QxdJ5Kr8n0Gi0SgLFizggQceYNq0aQMqNEmSdvkq6gv9hXygbLcG8qx74t73dvDo0nqe+cFxvLGpnX8uq+O/V5yI21542Vr9MU67/V0e/96xPex1Ozs7KS8vL0j+Pre6iZX1Xn539jQc1vzb5Q4UTQiueWYdncE4D3z7aGyWXSdR+irv2q4w592zlDu+fiQnHlrVL/MEIQR1dXVMmDAh95RJHohGo4TDYSorKwfU/2TTV3mbYHww2O323FNDlsFU3nV1dYwbN67PujuYnnWoEQ6HiUajDBs2zAjTNM1YdKcoCjabbRdlVtUEz69u4l/LGnj6suOwWWQ6AjG+cs9SHrl4LodWF6Fqgu/9cyU/PiWtwH7vnyt5++fzcdstxJMqp/7lXW744uHMn1K9f9fFFIBd35CDCNXrJb59O9H160l1ez41DMlBqCrJtjZimzYR37IVLRzu9VpJkgb829v7DsQvX8+qCdjRGabIbmF4qYNjJ1YSjqusbfLvcm2+fwJY3+zHpihMGVGMIsvGOTnrON+/L88azQ1fnI7dquxybn//QKI7lOSNze18cdYoLErvcvdV3iNLnRQ5rGzvCIPU+zXmb//+gH2uv32Vt/krbN9woH6Dqbz3lL+D6VmH4i83fxVFwe1243a7cTgcuyiyIjMAITIDH0IIEIJhRXaK7BY6g3FSmiCaUOkMxSl12RhWbMdtt7ClLYiqCZp9UaJJlZpyV78WFw92BrUy2/mPe2n97f+j6cdXEn73XehjcVVi506af3YVvhf/Q8edd9D193sQBVgotCdcLtculW4okkhpNHkizB1fhkUIhrksjCix8/YnHbmX5h1Ngw+2dTK9pgRFyuSlEAhNo8jlSlfYPupBv8g0+tyPHVmSCMdVGj0H3hheE4JX1rdQ4rByxOgyw89ur2gaQlXT9T2TL4oscfioEja0+AckS3V1dW6QSZ6w2+0UFQ39qbzBisPhKMiMjUma7FFDk/yi9w0DIRRL8v62Lra0BQnHU7y/rYvarjCyJPGd48fz8JJaPtjWya2LtzC6zEl1sZ3qYjtfOnIU97yznY9qu7n/vZ3MmzSMidVF/Zq9G+wMas2r+qc/YezDD+E47LDcUwYilcL/6msULzyV4b/8BTW33kp000aSHYVXvHIJhUIFWW2/v4mlVJq6Qkx9/Sm2n3IqoZ//lJPUTg6rdg9IOdobJAnKnLbMBgHpsJTXS+cdd1D/+bOov+ACAosWIfZi5bJIpYhv205kxQoS9fU9lOKUpnHNs2u5ZdEW1EILuQeSqsbm1gDTRpVQU+7KPZ1GCLRwmO5HHmHnOV9k5xfOwfv004hkEkWWmDm6jEZP/x1xCyEMuz6T/BOLxfD7/eZUbIGIRCKmH98Cotstm+QfvW8YCN3hBM+saqKuO8yEYW6eXtnIuiY/kgRfnl3DginVPLuqiSK7hZvPnYHbZsGiyFy+4FDmTariX8vqGVPh4k/nzTR22BzqDHqbWZFI0PTjKyk54wxKv3gO5PgZFYkEjZdfTvVVV+GYMgWhqnT8+c/Yp0yh7NxzIWOvNn/+fO69916mTp2KoijGsP6ekAZgC+T3+ykqKtrFF2p/4ujPNXtioHH0dX00FOHha+/kmHeexZ2KgSShjBvP+CefwFJSnM63Xu7LBwLQNIGqibSdqKrSdc89dN//ACKZTD9LRTljH3oI+7hxae1XL8fs8swJE4kEXf+4F/8LL6CFQigV5VT95CeUfP7zIEmomuCFj5u5/Y2t/O+a+diUvf/O6ytfs9ndNZoQdIcSpDTB8BJ777ZMqor36Wfo+NOf0vkCyA4HI2+8kaLTFuKJpvBFkxxSVdSvCSSRWTg0bty43FO7fdb+MtA4Bnq9zkDvG+j1vdGfOKLRKJFIhMrKytxT/aY/6eyJ/sTRn2v2xEDjGOj1Ovp9oVAIm82GzWbLvaQHe5tONnsbx0DvG+j1vdGfOPpzTUNDA2PGjEHqrS/qZxzZDPR6nb29b1/Y2zT7e18kEjFsZnu7vrc814RA00DLeCGQMrOL+iyeqgk0IZAkCUWSjNehyLxfNSGQJQk569xQZ/B7M1BVAq+9hv3QQ3FMmYwxXJdBJJP4nn2OkjNORykrQ5IkouvWoQVDuOfOhYw3g/vuu49QKMS6detob2+nqqoKm81GMBgkGAwaK68jkQhOpxOPx0M4HEZRFLxeL8lkEqvVSnd3t7Hy2efzIYRAVVV8Ph+SJBGPx42VzJFIhEAggMViwev1Eg6HsdlsRjr6qtNIJILVasXj8ZBKpVAUBY/HQzKZRNM0fD4fZHbA8vvTdqvhcJhgMIjdbu8hg9frJRqNGjJEo1EjPJFIYLFYjLh1GTRN6yFD1ONh+F//hDUURCI9Ja9GInxYOo6A00VViRO/z0csFsPhcNDV1WWshPV6vX3KIEkSiUTCkCEUChmrXAOBAMFgkNZgko+3t+CWUxS5XXg6OvDeciuavp2iEBBPEP7wQ0LvvU/wzTcJ/e9tgu++S+j9DwguWUL4oxWEVnyE/6MVxDasJ7BmDb4PlhB85hnU7m5EIoEWDBJevhxx6im4ysro7u7GIaX416o2jhpho9gKliwZVFU1vp6zy0GXQa9LoVDIKMtIJILdbsfr9RqrbPUy0Y/1kXyv14uqqsTiCbY2tlPqsuOQVYKBALIsG+k4nU58Xi9Bn4/Qvx8ntXNneoRZCEQqRSoawXHKKcQiYZwWkCXZiFsvYzJbKOqr+fW65HK5jPpry6zqDofDWK1WvF4v8Xgcu92+S3nnyqDnjyzLxONx49jv9xsrs30+H+FwuEeeZOeVLKefO5lMIkkSXq+3Rz0VQhgyKIpiyCDLMsFg0FiJr7c7i8WCL1NnnU4nnZ2dxGIxI+5cGRKJBIFM3sdiMcPDgi6D3W43jnPL2+PxEI/HjTagH4fDYcgs7tBl0OO2WCyGDIqiEAgEjPL2er1Gn6LHp5dDPB7vIYMQwsir7HLIlkGP25rxvqI/d3Zf5M3qL7q7u428yu3zcmXQ+zxFUYwydrvdu/SnsVisR17pea/7ivV6vT3KWJIkotGokY7e1nR5YrEYLperR3nrMuj9bCyzoKY3GaLRKMFgsNd+OxKJ4HA48Pl8Rr33eDzEYrEeeaWXQ3bfSlZ/QUZx0Rer9ffdky1D9rtH07Q+61KuDOE9vHv05+6t39bR62+2DKFQqN/vHv39udt3T6aMZVnukY7f7zfagN6O9/Tuyc6rvt492TJkl3euDLltOpVKGXGrqkoqlTLi1ssh9z3t8/l6yBCNRnG5XEZ+22y2XWTQyyH3I02SJGQ5rbzqv+xBD12xzVVWs5Xe3HNDnSE/MqvFYjR893uM/P312CdMQAhB5113I7ucDPv+9yEzKnLyySdz6623cthhh+FwOHC73VgsFjRNQwiBLMtous2hohgvN/04XXlk41iSJDRN63Hsy7gLUTIjvyJjmJ0d396mkx1fbtx7kqG38L5kkGSZ+19fz9jbr2NC0xZjBDZptXPz+dcxfuoEbvjSDBB9p9NX3HLmQyRXHl0GTQj++r8dPLeqiRd/dByVxU7UWIymH/yA6Ecr0JEUhZIvnoOlohItFkOLRhGxKFo0ihaNIaJRtNin/2rRKCIaTZsmZFV3yWpl9GP/xD1zJqqmEYqnuOCBFZw2tYrLFxyKRflUHjKjl3uSYXfl3dtxbl5FEipfv3cpXz16LN86dhyQVd6ahixJpMJhvM8/j//+B1B9vk/NJWSZsq99jeprf40nluJPr23hmImVfHHmSJTMIrLc59aPVVWlrq6OiRMn9lmXpKy6uTsZ+konOz49r3LDd1s3c47JKpNceXZXDr2F9zfu3mToqx3r8ZHlGL26urrP/OntuLd0pD76iL6Oc+PWnyk3nd5k6E86/cmr3PzOTae3uHPj6+tY0zSCwSAOhwOrNe2PWQ/PliE3vD/pZD9rbjn0FV9u3Oyhv8hNJ5/l0Nuz7k06O3fuZPz48SiKMiAZegvPjTs7r/oqh97k6S2d3cVNHsqht7hz09nTc+emo39QDh8+3Igvtxz05zfpmyGvzIpEgpZf/Zqy87+Ge+5cRCpF6//9ltIvfhH38cdBL665ClUx9NEtpQBbru4PBOALJzj+j2/xXd9aznrvSURm1MQ5fz6Lv/oTHl3RwttXn4y9AO6rUprg6qfX0OCJ8PwPT0h/NWoavpdeovXX16YVUUnCdcwxjL7tNpSyUvr8tBTG/wCI19bS+L3vk2xtNeKxjBjBIf95ESWzlWAipXH329twWGUuO/nQ3S+8KhBvbGrj18+v56/fmM3cQyo+/doWgmRLC8G33sb37LOkPB5cRx1FdM0aUh0dIEnYJk5kzN/+im3MGLzRJN99dCWHVhfxhy9Nx7oHswkhBK2trYwaNSr3lEkeiMVixGIxSktLkfqqsyZ7jT46lzuCZZIfWltbGTFihFl3C0A0GiUej1NWVpZ7ymQA7P4Nd4ARySQikUhPCycTaPE4QlVRg0G8Tz+N6vMhWSwULZhP9733ogYCxDZsJNHUiHPmjNzojK+cQqGPCgxVhBBs6wihyDIzv/013Mccg2P6dIrmzydVV8esaifBWIqNLYGC7OecVDUaPBHmTRr2qY1PMknozbewHTaJkl9cw6i//ZXRd92VVmRlOa3M9vaTpfT5zM82bhzVv7gmbYricCBZLEg2G5IsG6O11oyB/A/mpX3y7W9SmuCNTe2UOm1MGVmCJEkIVSXl9dJx553Unf91Ou++G9exxzDhuWcZ9ac/MuH556j8/vdQiooY/otrsNbUgCThtlmoKrLT5IkST6ZHAfaEy9XHYjOTfUbJ+Io0KQwWi6VggxQm4HQ6c4NM8oT5EZYfBnXrDy9ZQstvfgOKQuh//6P1+utJNjUjkkmiq1ejxdKLk4pOPhnnnDm03XgTnscfp+ryy5EPwIs5EokwyAe6d4sQsLU9iM0iM7bCRXz7dopPOYXqn1+NBCiPP8Jwl8L72zoLsv4rmlBp8cWYPznjIkoIAosXE/n4Y6p/+lOUM87AdeKJKCXFaSV1AEiKQvFpp3HIiy8y9qGHGHXrrYhwmI4770ovoBICSQKLIrGu2Ud7IG1ftz8JRJNsbAlw2tQqSqwQ37KFrnvuof7Ciwi+8SYl55zDuH89xvBrrsFaXY3scGCpqKD0nHMAUD0e42NNliWmjSqhOxwnFO+f54fOzs7cIJM8kUgkCGV2ujLJP7FYzLC3Nck/3d3duUEmeUJfp2CybwxMI9jPuE88kZpbbmHM3/7K6DvvZNQNN2AbMxpLWRkjb7gB6/DhIEkoJSVU/eAHjPrDDYy6+Sbcxx03YGUnH1it1oKO/BYaAezsDFFkt1Ad8aBFwtgmHoJt/HiKFp6KY+m7nDMsxbGH7P2K7N3RHY4zZWQxU0emp/1Vvx/v409gP+ww3Mcdh8PlSo+k7g2ShKQoWIZX45o9i+JTT6H62l/je/ppgm+9ZfglVlXBxQ+vYNHGtoKMPvcg4yNWt3n1hmIEQzG+Na2cjpv/SP23LsTzyKMUn7aQ8f/+F9U/vxrH5MlIVuun5hWShG30aJRhw4ht2WJ8TMkSHD6qhGAsRSSRlm1PuN3u3CCTPKEoymdqd6rBhjkyW1jMWZvCYbFYzL4hDwzq1m9MBdvt6Z/NZkwb93ihQzrMZkOyWHqG70csFsuQVmZlYM74Ci6bPxFRXweKBevIkUiKQuW3v42zsoxzt7zN3HF7cOS/l0yqLubRi+emt5MVAv/LL5Nsa2P41VelRyHz+LEgWSyUnH465RdcQNv/+x3hDz8EATaLwtwJFayq96JqhVNmtVCIwKJFeP/9byKrViFSKUa11/FIdAmRC88nvHw5ld/9LhNefIHqK69Mm0f09bJWFNwnnUhs/QbDZEKSJGaPK+f/zp5KdXH/OkqzQy0csiwP+f5hMKNkFt2aFAazbygcet9gsm+YrT+PRKNRY8XiUESSJc6YPoKvzxlDqnYnkjWtzAJYKiupuvJK/G+8xbNP/4+dHaG8mhqoQlDbGSKaSI9UJlpb6bj9DsrO+wr2KVMg4xpGXwWaDyRFoeqKy7GMHk3HX25DDaTd55x++HDWNPpIqnkUMAuRTNJ63fW0/PJXdPz5Fuq/+z3WfPUC1nz3cuJLljDsB99nwtNPUfndS7FlbGB3hyTLFJ14ErHNm43NJCSgzGXjjGkjcNn3vFhPCIFHd39mkneSySThcHhImyENZuLxuGlmUEC8Xm9ukEmeSCQShtszk73HVGbziNPpHLKjA0JAkyfCC6ub0ZIpUo1NWCoqUCoqMguqZJyzZuGcdSSPvLedp1c05G3kUk/7S39fyqKNbYhkku7770/bg551FlLGO4Tb7c5v/koSstvNmL//Ddlmo/lnV6F2dzF7TBmJlMb65k99LOYNIYht2Upw8eL0AsdUCjWZ5L/qMH59xtW473+Y8q9/HdntTsu9B0UW0rMS9sMmISkK0XXrP3XVJeDldS08vqyB1B7KSpKkfXLob7J7rFaracZRQOx2+5D1IjMUqKioyA0yyRM2m83sG/JAHjUDk3yOGu5vVCF4fUMbD35Qi5pIkGxrw3nkLEORBFCKi6n68Y+Z5a1l8cZW4qn8jEILBNs7QqiaoLrIRqK5meCixVR8+yKso0cbCl2hRr2tw0cw7IoriG3ahOexxyi3yRwxupR2f9otWT4Rmkaiod5YdAaQkhRWVx3GoYeMZMS4UWlTmQEiO5xYR48m/OFSRKYeCiHY0RniyZWNpNQ9181EIpEbZJInRMaXr2lmUBiGct87FDD7hsKhZTaOMNk3TGU2j8Tj8SHbqWqa4O0tHRxS5UYkkqTa2nDNndPzIlnGNWMGx586B68/wuY8jVwKQcYlmMRYl0TbDTdgP/RQys47r4diF4vFCpO/soT7+OOo/tWv8D31NCx+hb9+/Qi+cESefa4KgYjHiW3enFbQJQkhSfjsRWytGMf35x+KRdk7ZUey27COGUPkoxWGqQESTB5RQrM3ii+6+5eREIJgMJgbbJInUqkUsVjMNDMoEPoufSaFwewbCofeN5jsG6Yym0eG8oYJ/miSLW1BJg0vRu3sQA0EcM6enXsZkiwx7XPzKXLaWPLhpk8Vp31AE4Kt7UEmVLqwLXmH+MZNVFxyCXKO7z19d7VCICkKpZ87k5KzzqLrjjvxfbSS+q4QkYSatfXCvpHyeum47TZ8Tz1N0YIF2CdNQh49hlenncq4mkqOHFO+1/5tJYsF+6RDUTs7UTNudCQkhpc4sFoktrfv3iZLkiSGDRuWG2ySJ2w2G0VFRebIbIFwOBzmIpoCYvYNhcNut1NUVJQbbDJATGU2jyQSicKMHO4HGjwRVE1wWHURkWXLsI4caeyMlY0kSdSMKOcHY2Hqcw+QaGzMvWTAyJLEuAoXX542jODzz+M86ijcxxyzi71owUZmSdvPSjYbwy7/EY4pU1j9l79z8QNLWd/ky95IbO/QNGLbttF89c8Jvfc+I2/4PTW33sK4Rx9h/EMPcuJPLuXSEw/ZJw8RkizjmD4dNRgk2d5uhFcW2SiyW9jeuWc/huYihMKhqirxeNwcmS0Q+h72JoXB7BsKRyqVIp7ZadNk7zGV2TwylKe53HaFU6ZUM2VkCdEPP8Q2YXwPe9lsrBaFr3/lJCbaUrTddjtaPG7Yf+4NkgQ/OvkQPrfjA7SOdob/5lpkp2MXZTaZTBZWGZAkLOXljLjh94wiRrjbx8aWAGJvtVkhEIkEkVWraP7pz1C9Xkbd+AeKFy5EdjqRy8uxja7hrKPG8eXZNcj7oMwiSTinTUPE4yRb0lv2ShJUFdv53kmHcPS48tw7dsGc6iocqqqSTCZzg03yhKqqpjJbQMy+oXCoqmp64sgDpjKbR4qLi/O72n4/IYDJw0u47WtHMK7URuzjj7GNn9CnMguA3c6L87/JllWbCf3vnb1WMoWAdl+M1nWb8d5/P2Vf/rLhDiyX8vLywk8lShK2UaMYc/XPONJXz5LNrYg9eALoFSEQqorv+Rdo/tlV2MaMYfRf78Z19NFGvmqa4L9rW9jU4keRJfZBlQVJQqmsxDpuHLFNG41FYG6bha/PGcvho0r3qJLX1NTkBpnkCYfDQXl5uWlmUCDcbveQ3058MDNqVJ7XD5gYOJ1OSktLc4NNBsjQ07wGMfn2g7q/0DTBirpumrwRkk1NiEQC29gxu91FTUNimVrCGzWz8PzrMUQ0mntJv0hpGv94dxs/vvcdNHcRped8oU8lOhgM7p/Rb0mi5LhjOf0rC1ixrY3ORW+kvQ8MANXvp+OWW+m8/XaKP/95am6/bRefseFEir++vZ3VDflZSCdJEu7jjye2YQNkfenv7Arx/MdNhHezra0Qgo6OjtxgkzyRSCQIBoN7/dFnsnui0ag5ulVAzK2uC4e5nW1+6FtbMRkw+0XRKgBJVeO3/9nI+kYfidpaJKsV6x6+xBVZYs4hw3j/kLlEtu3A/+qre7UYLKUKPtjWRU2wk+HX/jrtiqsPUqnUflMGJFnmqKOncHSJoPbue4ht3fap/9bdoWkkm1touvInBF55heHXXkv1z36K7OhpNqEJwWNL64mlVL40K38jokUnnEB8+w7UrNXHtZ1h7n5rO75Ios/RWUmSTPc7BUTTNFPZKiCapu23vuFgxDSRKRxm35AfTGU2j7jd7iE5jVjfHaErGOeI0aUkauvAYsG6hylnWZaYOaacoMVJ23Gn0nHHXSTqG3Iv2yMt3gi+SJKp0ydQMn9+n6OyACUlJQXzZpCLJMG4Sjd/v3whI4aX0/b735Nobt6tbbBIpYisWk3TT36CGggw6s9/ouSszyM7nbsositqPdz3/k6+NKsGtz1/phPW0TXITieR1R8bYVNHlhCIJekK7V5ZHTFiRG7QwNA0RCqVHsXWtN3m1cGG3W6npJcFlSb5wel0Ft4E6SCmuro6N+iAIgSomiCR0oxfUtVQtfQKh+xz8cy/+sYxWuZcUtUGRRdl9g35wVRm80g0Gh2SowPvbetkRKmDUoeFRG0tlqoqLHvYDUoCJla5KXHb2XnsaWiJBL5nn0EMZHRa06jdUkcymWTW5+Yh70FRDYVC+3X0W5IlLCVFJC77KfFuD+1/+jNaJJJ7GWQUWd9//kPzz36GXFTEmPvuxX3ssb1ugCAEPP5RA2PKXVxywgQs+7LwKxtJQikpwTJsGJEVHxnBFUU2qovtrGvcvWeGfZpK1DQSdXW0/u53NF72QwKZHc5M0iQSCXMqsYDEYrH92jccbHR1deUGHRA0TUNTVVRV5Y+vbuKih5bzrQeX880HlvHNB5bzvy0dIOCZlY189R8f8pV7lnLu35fwpb8t4bbFWxAC1jT6+Mo9S/nFs+vwhuNpBXg3/WKhMfuG/GAqsya8v7WT0eVOrLJEvK4O1zFzYQ+KJcCYCheXLTiU4+cdSdUVlxNc/Abx2trcy/pEDQQIPvEE04okpk6qQcqXUpcnNE3w2IcN/PADL+r3Lie2fj3djzzSU2EXAjUQoPPvf6fr9jsoOvVUam77C9aqqj5tjmVZ4trPTeXB7xxNmbOnL919RS4qwlJdTWzDRkTGbECRJSZWFbG6oe/91ff1IyzZ3kHjj6/E//wLhJcupeVXv8L/35f7Z5phYpIH9rUOm/TNYJhx1BIJVixawq0PvEHtnX/D2bCT6mIHI0odjCpzMqbcidtmQSCocNuYNLyIySOKmTqyhOk1pYwudwFQ7LAwa2wZW9uDnH7H+9z//o7dmmCZDA0kcRD0ANFolAULFvDggw8ybdq0gjVMIQRCiCHl0UDVBH/733Yq3Fa+MWskO09dyIjf/57i+Sf3qYzpCJHeilYIkBJxGn/4I7RAgPFPPpEekdxdPgtB25/+jP9/71Dzr3/jHlax28vJfJVLklSw8stFCMGGlgBfv28Z//r2bMZ99Dadt97K8N9cS8npp4MsIzSNlp9fQ2TlSqqvvoqyL38ZyWbrVXZNCNY3+SlzWRlb4QJpHz0Y9EHn3/5G4JVXGfvAA1hHjkADPtjWRVLVOGXq8F7TFEKgadremXEIgfeJJ2m/+eYeo7H2yZOZ8MzT6fw4yNH7hv1Zfw8mhmLfO5RQVRVZlg9Y3RWpFO1/v4e7ljaztGoyd7x7F1a7jbFPPoltTHqxspT5cFdkCVUTqDleaGRZwiJLaCJ9LhRP8fAHtTz6YT2/+8I0vjSrJt0+e9xVeMy6mx/M3MsjPp9vyHkzkCWJH80/lG/MGUuqtRU1GMR55BG9KmO5SBJoAu56axtN4RSlX/0qifp6Aovf2L29pBDENm/G+/IrtB1/GsLl6k9ydHV17VdDeUmSOGx4MSUOC+vawhSdcQZFCxbQ+Zfb2HH2F9j5hXOov+CbJBsbGHXzTZSdey6S3d5n3jV0R7j2hfU8vCQ9et37VfuOc+YRaKEQqYzZgCxJnDhpGCdPrt6tmUFdXV1uUP+x7mpO0ZuJxcFKNBqlO7Mzm0n+CYVC5gLGAlJfX58btF9RAwGC73/AhxWHclzjWizJBEo0QuL9d7EpEnaLjM0iGxvPKLKELROm/3RzLlmSsCoyZU4bV556GP/67jF84YhRJFMaD7y3g48bvKTU/Wd6EIlEzL4hD5jKbB4ZaoPcQkBHMEZ3OA6aRuTDzM5fRUV9KmS5CCFYvKmdF9e04Jq/AMf06Xj/+c/0CF0f+SFUFc8TTxIVMlcnJ7HT0z+H3Acify2yxPETK1m6owtcblyzZ5Hq7ibV2kqyqYn49u0Un3EGRfPn9zkCKYBIIsWvn18PwBWnTCroCIdjxnREIkGiod4og2hC5d0tHTR5I70Wiz46sFdIEkUnnoilqsr4W7JaKfvaV/tlrnIwsE/5a7JHzLwtLAc6f4Wm0eQsp6VoGMe0bULOPI9uSrU3SBJYFIkZNaVYFZnWQIyHltRx0YMf8df/bSMUT+4yulsI9rZvEJnZvtxbNSF6/AYe89DEVGbzSFFR0ZCaKtCE4JmVTXz570sIxxKEl32IbcKEfiuyZEYv54wv579rW0kqCiN/fz2J5mY8//pX74vBNI3wihUEFy2i9uvfx1nkYnS5M/eqXiktLd27afB9QJLg89NHMrrchdBUQu++2/MCIYhv3dan4k6ms3pqRSNb2oL8+JRJVBbZcy/JK4rLhWPGdCIrVxojsS2+KP/34gbe29aJ1suzSpLE8OHDc4P7jWXYMOxTp6Z3NnM4KL/wW5SeddZuvVMcTOgrlgv5EXMw43Q6zU0TCkh1dfUBrbtSWTkfz/sywyM+KuJBJARIEo5ph+ftucZVunn5xyfxg5Mn8u/lDXzrweX8d21Lr/2lgRC77fv7g8PhGLA3AyGgzRdlRa2HBk/EUIZVTbB0RzdLtnexZHsXS3d04wnFDwqFduhoXkOAUCg0pMwMBLC+2cdR48qxaSrRjz/GNmH8wJRZYPbYctoDMWq7IlhHjqT0nC/geeQREjt35l6O6vfT+ZfbcB55BKvKJlBT7sJh7Z/C4/f79/uKZVmSmD+lmt+cNRWr1YL9sMN6nJckCeuokbvNs5QqeHZVE989aQILp1YXzLzAQFFwHX000VWrECJdHyuL7LhsFnZ0hHrtnIUQtLW15Qb3GzUQINXaSvHpp2MdMwbJZkeyO3IvO2iJx+MEAoG9GoEx2TPRaNT0hVpAOjo6DmjdVRSZy745n99YaxnmsuI++WSUykq6H3wANRTaZ4WSzLuswm3jsvkTeeXKExlZ6qTJG0WWJBIZt1+Q1iTVQIDOv/2NHZ8/i8YfXU5sy5a9Xuwai8UIBAK5wX2iCcFrG1r58j1LueutbXzz/mW8uKYFVRPEUyo/fuJj7ntvJ/9e1sC/l9XT5I3u1rzss4KpzOYRq9Wat6/E/YGmCTY0BzhpUhVaWysinhjwyKwsSUwdWYJVkdnY4keyWCj/5jdBVvA9/0KPBUFCTY9sJhoaKPn2xazujFNT4cTeT2XWZrMdkPyVJYmdnWHWNgcov/BC3Cccj+RwINnt2CZPpuy885B6GZEXGSVRkSUe+s4cvnPCeJRerss3kizjnDmTZHMLqY4OEIIiu4XR5U6afVHD32KPeyQJp7N/I+S7IATJlhaS7e2Ufe1rWEeMILZxIyJlKhc6iqJg68MMxWTfURRlSM2KDTUcjgP7YSoAiywzccdaqi44n9F33E7N7beTam2l9bf/j5S3b08tA0GS0qZlVUUObv/akVxy4ng0Ifjb29v54+uf0OiJoKZUuu65h+577yNRX0/4vfdo/vnP0aLRvVKqB9o3JFXBEx818NdvzObhi+fyyCVzeX51E9GkigDcNoVrPz+VO78xi7u+MYsZo0sH8kofshxUrV+3TRnIbyD3ORwOJEnaJbw/cfTnmj39BhKHJgSt/ijd4ThzxlWQam1FaBq28eP3GE/2eRBMGObi56cfxkmTqhCAdeRIqn72M/z//S+xbduNa1Wfj6777qP4c2eSmnEkJS4bM0aVoki9p5f7HC6XC1mWd7lud7/cOPb06+v6m17dzF1vbydVUkbNXXdRc+ed1Pz1bsb/+1/YDj0UkVXuehyJpMrzq5up7QpRVWzHaVWA3aczkF+fcQBKdTVyaSmRNWsQmoYkwayxZbT5Y6TU9G5Jub/KyspdwnabTtYvsHgx1jFjsE8+DPu0aSQ7O1EzI5H9jSP7N9Dr9/a+gV7f268/cVitVlyutGuggdyX/Rvo9b39+hNHf67Z02+gcQz0+tz77HY7iqLscj73t7fpDDSO3q7pLWx3v4Fe39uvP3H055qKiopdwgYax95erwnBqjov//fcGqL1DThnH4Vkt+OcOYOqa64hsuIjuu65By0e3+Xe3tLpLSz3J0ngsMrpPlukj19b38qFDy7nrc1ttLz+FlpKBSEQmkZi+w5CHywZcDqij75B0zTi8TjxeJxkMtljxlcTgkhC5dDqImwWmZGlDlKqYH2TDylzftnObt7b2kGbP5a2hDDu/uyiXHfdddflBn7WSKVSPPzwwxx77LFUVlYSDAbxeDw4HA48Hg9erxdFUejq6iIQCFBUVERrayt+vx+LxUJbWxuxWAy73U5LSwuxWAxN0+jo6EBVVVKpFB0dHXi9XuLxOD6fD6vVit/vx+PxYLPZaG9vJxAIYLfb6ezsJBgMYrfbjXTsdjttbW3E43EsFgutra3E43FSqZThzD4WixnHgUDAkMHr9eLxeLBYLLS3txMMBg0ZgsEgiqLQ3t5OJBLBarUa8nSHEgQDQY4bX4za2kRnZyelZ59NOJmk2+NBURT8fj9erxebzUZnZ6chW2dnJ6FQCLfbTWtLM2OLZcrcdtra20kkEjgmTKC1pYXgtq1YJk6ky+Oh+5FHiXR7kL79bYoryzhpnItRTpUil9MoB10Gv9+P2+2mra2NUCiExWJh+/btJJNJrFYr7Zl0NE2jvb2dZDJJMpmks7MTWZYJh8N0dXUhyzI+nw+v14vD4TBksFgsdHR0EAqFKCoqoqWlhUAgYJR3IpFAURRaW1tJJBJ0RzWW13Yzb2Ipiizwu1zYx43DHwrh9Xqx2+2GDOl60spLa1v4y1s7GW6NM9wpsNlstLW1EQwGDTn1qdG2tjZSqRTxeJyuri4URSEUChkyeL1evF4vbrebzs5OvF6vUZbhcBiXy0VrayvhcBhZluno6iJYW4vo6iJwyCEkVRWXVSYeDjJjVBGpRJzOzk4URTHqj25m4PP5sNvtdHR04PP5jPobiURwOBw0Nzf3qFfJSISu++4nceopKBMmkHI66KitxT17NjFJMmTo6urC5/MZMujloNdZXYZIJIIsy0Y91Y9VVSWRSNDZ2YmmacRiMbq6urBYLEZbUxQFj8eD3+/H5XLR1tZmtOP29nbC4TBFRUWGDLIs097ebnjJ0MtBjzu7Lul9hM/nw+l00tXVhd/vx2azGW3N4XDQ1tZGNBo18iccDpNKpWhoaEBRFKO/UFXVWMms9xfd3d0oikJ3d7fRBtrb241219bWRiQSwel00tLSQiSziYdel4QQtLe3o6pqrzJYLBa6u7uN+PR0nE5nj76ovb2daDSKzWbrkU5HR4ex/WZvMgQCAUOGzs5OAoEAxcXFtLW1Ge2rvb2dUCjUI6+yZdDbtBCCaDRKV1cXkiQRCoXo7u7GZrP16C+6urpob2/H5XLRnuln9XSi0ahRZ8PhMJIk0d7e3kMGIYQRd3Y56P2MXg4dHR0EAgGsVqvR1vQ2HYvFjLiz3w9CiD777Xy+e3qTwePxYLVajefuz7tH7/Pi8TiqqtLR0QFAbW0t8Xh8FxkG8u7R20muDMlkko6ODiRJIhgMGvVHf/coFiv/+N821q7dxmm+T0gtmE/UYsHldtNhsRCvrCTyxpt47Ha0ykrj/RnLbKShyxCPp/s8Mn2c/k7QZcgtb72eWqxWRtlizB7lIilZueuNbXSoCodr3cQOm4TqcqK53CROPAHrsGGEI5EBvXtqa2vp7Ow0+qtEIkF3dze/+c1veP3113nzzTc5/fTTUTLrDzQBb2xqo8xl45AqN5+0BvnX8nqmjSxlysgSOoJxRpY6afBEuPOt7QwvsTNh2NDcnXQgHFR+Zh944AGmTZtWsOmoQCCAy+VCUZRBX3EEgBBoAiRNo+PPfyb0zjtMXPR62qZzgM8fS6jc8dZWLjx2HDXlLhCCwJtv0vb/fsewK67AUjWM9pv/SOmXvsiwK36MJ5peKVpVZEfu52YJHo+HkpISLAfA5dOGZj/fefgjHvrOHGbUlPYoX5HxH/rp31DfHeb7j63kkKoibvvaETit+7dOaPE4zddcg+YPMPqvdyMXFQPp8pYlaZfiFULQ2NjI2LFje57YA0LTiK5ZQ+MPLmPUrbdQNG8eaiDA9gULqLnlVooWzO/VBONgQldootEo5eXl+7Ue5IPc+j0YCYfDWK1WrEPM1Guo0NTURE1N2g/r/iYQTXLW7e9w9tZ3+IpvE+PuuxdrZntdIQRoGp7HHqPr7r8y7MorqfjmBXl3C5ge3RQk/QHevvMRtq7cwMK6j1A1DQvgOmo24x58YM/+1XshEokQj8cpLy83wlRVNT7yJEnC5XIZeS8ELNnexZ8XfYLbZklv3atqXHzCeL54ZA1aZktfTQgeX97A25908Pdvzs7rtumDkYPqLSMV2GG53pEWMo18EU2oLNnehTeSAFUlUVeL+7jj0s++F88vyxLLdnp4bnVzOkCScB11FHKRm45bbqHlF79E7erCddRRCEni/vd28sfXPmEgJvMHymYW4JCqIqqK7Szb2Z1ZKvApuc+UVDX+8MpmLLLMb8+ehstm2eWaQiNZLLiOnEWqsxMtGESS0h8wq+q9bGjx97oIzO125wbtGU0jvGwZSnEx9gkTkCQJpagIx+QpRFat3OtFEZ8lJElCURTs9sJ6sSgU+7vu7g0WS7qNDYVnHYro0+AHgpX1XmKxBFM7dmCtqkIpLjbOSZKEpCiUf/WrVH7ve3Tfdx+BV19F5NkfuYRABAJ03XgjE155nAvOO4kxd9+F9bs/ZMT/+z9q/nhz2nPLXtQ/i8Wyi82soigUFRVRVFSE291zVFWS4LiJlTz8nTn88Sszuesbs3DZFGaNTSvDcmbjCFmSGFPhIpZUe10n8VnjoFJmC000Gk1/KQ4Bmr1Rfv3CBt7a3IGWSpKsq8d9/PG5l/UbRU4vBHtpTQtJNa3AhN9/n1R7ByIWS/9UFe+/H0eNx/lwZ3d6F6wBEA6HD5i3CJsi8/kZI0mk9px+qz9GMJbkV5+bwoiSA7NwQsp8TKQ6O1F9Psh80T/0QS2PfVjXq/9Ej8eTG7RHRDJJbO06bBMnYh0xAvS05xxNdOWqvL9UhirJZJJwOJwbbJIn9Glxk8LgzdMCq71hY7Of4VKCEYkgjsmHIfXigk12uai85GKKF55K+x//RHjJ0t5dQ+4NmkZ8506arryS6Lp11Nz4B4Z965sUzzuJKT+5jPKvfhXrqFF73DGzLxKJxID6BgF0heJEkyqyDO9s6WBshYsRJQ46gnG2tgdp9ceo7Qrz/Oompo0swWnr3yLrocze5b5Jr+gLwIYC7YEYvkiCaSNLSDQ0oobDOGcdmXtZv1FkicNHldAWiNHQnXbMH9uytacyo2kk29sJefxsbQtywqHDUAaQX/oCsAOBRZH4wbyJ/HD+obkDswZCpKd2xlY4uf+iozluYqWxI81+R5axTz4MSVGIbdsOmoYAxg1z8VGtt1dltqysLDdoj4h4nNjmzZSec06PDRKcs2aRaGw0diE72LFmLfIwyT82m82wKTTJP6WlpblB+42vzRnDH08fR2k8hHPmzN7NljIbtVRffTXOI4+k7cYbiW/Zku6U9xYhEKpK5OM1NF3xY1LdHmpuuYXiU09FUhQkWTZ++8KA+wYBS7d38ZMnPubKJz5mY0uAK0+dhEWRaOgOc9Orm/n+P1dyzbNrGVvp5sqFk7Du4zMOBT77Eu5HhooiqwlBbVcIWZKYNLyI6MoVWKqqUPZmmjmLGTWlyBJs6wgiEDgOn9bTdkmSsNTU8HF3kiJH2lXUQLLsQOevADa3BmjxRXvtIzuCMX713Hq2d4QocliwKge2eUlWK44jjiC64iOEqiIBEyrdeCMJOoPpxRzZDPhDQdOIrl2LFotRNP/kTzdIkCSsI0chO51E16V3PTM58PX3s4yZt4VlwH1DnkipGhUuK+OlOCIYwDljRt9T+ZKEUlLCqJtvwjZmDM1XXU182/a9VmhFKkVw0WKaf/pTrGNGM+Yf9+CcMX2vR2D7YqDmMZIEX5o1mmd+eDzP/fB4rv/i4YwscyJLEkeNr+Ch78zhP1ecwHM/PJ6fn34Y5S5bn1n2WSK/pXKQM1TMDFRNsK7Jn94swSIT+egjrCNH9jp9MxCmjCzmwe/M4YRDhyFJEsWnnELFJZcgu91IdjuOGTOovvpqWiMqhw0vHrBB+oE0MwAIxpL834sbeGJ5A2pOOSdVjXvf3cG7WztJaQKpr+Hb/Uja1GA2kRUr08qsBDWZD4gGT3p1uo4QYsBmBkJV8T37bNo2OsdHraVqGHJxMdG1a3uEH6yYZgaFxTQzKCwHwsxACFi0sZ3L/rmC0PqNWEeMSG+ZvQfNTCkpYcT11yNZrbT8+tekfL4B2+5rsRhd9/yDtj/8geIzz6Dmz3/GNmrUHtPeGwZqZkBGoZWltF2sLH36tpEyftGzfwcLpjKbR5xO54C+sA4UkiQxstTBOTNHImJx4p98gnXUyH1eAWq3KBkFOe3vUXY4qLr8R4x/4gnGPvQQ4x5+CPuYMXxj7lge/PYcih0DS+9AmhkAFDuslLusbGoN9LCd1VeXvrahjctOPoTJI4oL0eftFY5p01ADARJ1dUhIjKt0s3Dq8IzP20+RJImKiooeYXsi1dlJZMVK3Mce07OTlySUsjIs1dUkaneixWLZtx2UDHgq0WRAmGYGhWVvTJD2FYHg2VWNFFllomvX4DziiP5N6UsStlEjqbn9NkQiQcs1vyDZ2dm/EVpNI9XRQcdtt+N7/nnKv/ENqn/yE5TS0ryPyOqYfUN+KEzpHKQMle0UFQmuPHUSZx8xCrWjHRGLYxs3Li+NNZZQueThj+gOxRGk7Zjsh03CddRsZLcbTZLQhMBhlQf81ZhKpQ7oyLdFTm9tW9sVJppMjwIJoNkX4aqn1jLvsCouOGbcgOUqGJKEdfgIZJeL2Pr1SBKMKXdx87kzOHLsri8n3RVMf4muXQtC4Jg+fZePOElRcM2aRaqzCy0Y7HHuYETTNJLJ5C75ZJIfVFU9oH3DZ53Yfv4gFQI84QTLaj2cOKGMxIb1OGfPyr2sb2QZ24QJjLzxD0TXrqXjllvQEondK7SahhoM0vKrXxN46SWG//pXDLvsB8hFRQUZkdXRfR6b7Bv7rr2YGKRSqQM6Dd5fdnSG2dIeBCFItrQiUilsh0zMvWzvkCRaAzH+s6alV/dP65v9nHH7e6xr6t091O6IZ3Z4OVDIksT8w6po9UfpDMYyvnrBG04ye1wZ3593CHbLIGpSkoRleDWy2010w0bI7GzT6ouysTnQI/9FxkF9v9E0omvWIjmd2CdP7vVDyDV3DqrHk57mO4DlNhjQncMfyPr7WUZVVdPMoIAMqG/IA5oQLNneTZHdwphAG5KqYj/00AEplZKi4Jwxg1F//jORj1bQ8ec/9z1LJASR1atpuPgSUl1d1NxxO8WnnbbPpnf9Qd8MxmTf2PUNZLLXFBcXD4mprvve28mNr2wmlkiRbGkGVcV+yITcy/YKiyxxeMZFVyrjoktHCGjxRmj2RRlX+akT6P5SXl5+QPNXkmB0uYtjJ1TiCSfQtPRWi4fXlHDPt45iwrB9W0BXCJTiYqxjxpBsakzvHQ4893EzN722mZT6qWIlSRKjRo3KunP3iFSK2KZNFJ18srFwMJZU8UcThpJsnzYNZJnY5s05dx98OBwOysrKBlznTfqHy+XaxVenSf4YSN+QDwSwss5DVZGd4S21KEVuLJWVuZftGUmiaN5JVP3kJ/j/8xLexx/f1WWXphH5+GOar7oKLR5j9D1/xz13bv9MGvKA3jeY7Bv7p7QOEmKx2KAfeYkkUmxrDzKsyI7TqhDfug1rzSiUvekoekGRJY4YU0Z7ME6jt+fXvCoEa5v8TB5RTInDOuAlUpFI5ICPfMuSxH0XHc3c8RWsrPfw3UdX0uSJYFEGbjaxX5AkXHPnkuroRAuFAJg1poxGT8TwB6zjy/ij7Q/Jzk4SdXWUnfcVkCRSquD+92v51gMf0exNe3uQLRacM2YQWbIk9/aDjmQySSQSGfT9w1AlkUiYI7MFZCB9Qz6QM6Zwfzp3BtadW5GLilEqKgY0MqsjKQql53yBYZdfTveDD+J9/AkSTU1E169H9frofvSfNP3wR7hPOolxjz6aXui1nxRZsvoGk31j/5XY3qJpiFQq/TXV14tApLe0M647QArPYJ9GFEBXKIE/luTwUSXIEsS2bME5Z86nbpX2EUmCOeMrSGkajTkr5jVNsLbJx3GHVPbpq3V3JBKJA56/UmYVaXswzq2LtlDXFaK8yJbZH3hw4j5mLqnublJ+PwjBkWPKCMdVWnyffmwM1MzA/9J/sVRVYZ80CQG0+qM8u7KRYCzJpY+uSI/OZqb5Qh8u23U05CDDnEosLEPFxGuoMpC+YV8RGY87xQ4L0yptqC0tWEYM77Hz10CRrFbKL/gGxaefQcdf/sLOs86m4cKL2LZwIZ23307pV85lxG9/i2XYsL1SmPcF3QTJZN8Y3MqsphF6730677gD75NPpqdJe1FmtGgM/2uv0XnHHXTdcw/RzZt7va7QFBcXH9DV9ntEQFcwTiiW4sixZQhNI751K66j5+RtSkWW0juB3XLeERwxpufUSULVUCQp7bprL7TZsrKyA2pmQOa7aVOrn7Puep82f5x7LzqaYrt1f/d/A8I2bhxKeTmRlSsBcFgVasodfLiz27hGkiRGjhyZdVffiGQS/wsv4Jg5A8lqJaVq/OGVTVS4bfzmrGnUd0do9UfTizAmTUKEQiTq6g5ImxwsmGYGhcXlcmHdD/aNBysjR47cb3VX0wTPrGzkuv9sIOkPoHo8OGfN2mclU7bZGPa974KqIuJxtFgMEYlgGz+O6p/+FNlxYHZrdDgcB3RTis8K+dFgCkTw/ffpuvdeHEceSXT9epqv+YVh96cjNA3/f/+L55FH06uq7XZa/++3qH5/j+v2B8FgcNCPDsRSKiNKHUwfWUKyvh4tEsFxeNq2MV/YLDLzJ1fhsik9Fhm5bAr/vPSYjB/aHrf0C5/Pd8CnEiUJxlW4GVfp5nsnTWBiVVHuJYMOyWLBMW0a4Q/S0/0WRWbm6DK84U9HA4QQtLS0ZN3VB0IQ374DtasL58yZCEnm7c0dfLjTw2XzJzJ+mJsyl5XNrUEEYB0xPO1vdv0GxCBvG4UkFovh8/kO+MzCZ5VIJGKObhWQ1tbW/VZ3k6rGkysasSgyaiCA6vXimjU797KBIwSxzZ/sMkuUbGk9oB/aet8w2FA1QSCWpD0Qo9Ufozuzhe6By6ndkz8NJs+IRIKOP/2Zim99k+L58xl+zTXEt24lvm1bzoWC6Jo1VF56CcULF1JxwQVYR44g2d7e8zoTJAmOmVDJk98/DodFIrJqFdYRI5AdPR3e5wNPOMHVT6+lOctutjuUIKlqB26L1zxR4rLy6MVz+frcsUNCFklRcBx+ONFVq9DicRQJ/t/Z07h8waGfXtPPrwuhaUTXrQNZNlxyTR1VwjWnT+aEQ4dRbLdQ7rKxuTWAJsAyPD09GNu48YCZ/5iYmAwddnSGaOiOMGd8OYnt25EsFuyTJuVeNnAkCfvkyekRWL2/kyRsY8fu86jvZwUhIKUJ1jX6+MMrm7j836v5yZMfc/XTa7jsX6u46qk1PLq0ls5gfMDeiAqNct11112XG3jAEYJURweeRx6l4jvfxjp8OLLTSfCdd7FNmIB9Yk83UlowgP+l/2IdOYLIqtUk6usp/8pXkDKrW1OpFA8//DAnnHACdrudVCqFxWJBlmVUVTVGU/VjSZJ6hOv+TSVJ6uHrNNu3YSqVwmq1IkmSEYemabvE3Vs6qqoaz5KdDpkRM03TEELscqzfp2kaqqr2eO5dZVBRNZUGTxSXVcIiNHz/fhwhSRSffVZ6ujiV2uW5c2XoLZ3cPNE0QTSpcv97O7FbFI4cXUo8meTKJ9bwzicdLJwyDDknjt7SyS0fvcz09PsqBz2+3p41O76+wrN9/vVVDjYlvdgt+1l1GbLzJDfu3OPs585Ohz7yXs+T/soGkFJVVL+f0KJFOE84EcuwYSQ1aA/EsFtkJJHOq+LiYiPv9Piy09Q0DUkIvP/6F2pKpfQ736EjkqK6yMYRo8tQSKe3ZHsXyWSKU6YOR1IUQss/QuvuxnXKAoTF0uez5ob3pxz0fNAKVN7soRz0+PZU3haLBavVapghZaeTLUPufbnx7S6d3urS7uLuLZ3dyZabjn6cm45+nBt3X2lmy6bTVzlkx519LMsyVqt1l+fb23Syn1WPPzu+3eVJbjq5+dPbM+3uWfXy3l2avZVDbty9pZMtW3Y6+nNrmbaW7dRfT6e/757ccP25c8tBkiRUTeP1Da2savDx3ePHIv/3OWS7naLPfw4t89GdHd/u8iQ7D6WMf3OcToSqEtuxAwBLZSWlF38H2+TJSFl9a+67Z3fpZMuj5/1A8kSSJGw2G7IsG3mSXQ763/sDgeCpFQ3c/34tR40r59ITJnDBMeP44qwazjmihpGlTpbu6OI/a1r4whGjBtWi58GpzJLeXcj/wguUnf81LOXlAITefgv7hAnYDzvMuE7PyuCbb6KFw8Q3bkJ2uSg59VRjR6tUKsW9995LNBpl8+bNeL1eqqursdlshEIhQqEQFouFQCBANBrF5XLh8XiIRCJYrVZ8Ph+pjLLa3d1NKrPYwO/3Gw3b7/cTCARQVZVwOIzVaiUSiRAMBrHZbPh8PiKRCDabzUjHarXi8XiMY6/XSyqVQpZlPB6P0YD8fj+SJJFMJgkEAkiSRCQSIRQKYbfbDRn0OGKxGE6n0zhWFAWvz0d9Z4ALH/2Yw4dZKFUjhB9/HEbVYD3+eFQhjLhjsRjBYBBFUYx09OfWZfD7/cTjcRwOB11dXUSjUSwWS8YUIIXNauGDrR180h7kjCkVNLR18/THbUypdjKjKv1SD4fDhMNhbDYbwWCwhwyRSASXy4XX6yUej6MoCs3NzWiaZlyjdyS6+YGqqgQCAWRZ7iFDOBw28srv9xMOh7FYLPj9fiOvuru7iUajKIpilLeiKEaZ6HGTWeiXWw66DLo8Xq+XaDRqlH08HsdisRhloh+rmSkvr9eLlnGenSuDnlehUAin02nIoOeDXg4ej4d4PI4kSbvIkIxESLzzDolhw7AcNolVDT4uf3wtM0cV45bT2yl2dnYa+ZVdZ/U2kIjHsSkKbX/6E46vfY2NxaO56tn1TKywU11kw+/3gdCYPNzN1EorFUV24vE4cY+HxLJlqCedRFQIHA4Hfr+fSCTSI08cDkeP8vb5fMZGAz6fz3hJ6O0umUzuUk8tFguhUIhIJILdbjdk0Ms7Ho/jdDrp6uoy2oYeNxlTFk3TSCQSRt5n16VAIEA4HMbhcPRoD9nl7fV6SSQSRt7rK+3b2tqwWq1omobP5zPamv7cehkrimLUJafTic/nM8rb5/ORSCSw2+10d3eTSCSM/NHrki6DXk+zZbBYLEbcVquVYDBo5FV2X6Tnvd7n6YvXcvs8IQTxeNxou9nloJex3o4jkYiR3/F4vEdeybJsyKD3eXoZ620tHo8TDAaxWq2EQiFDhkAggNfr3aVe6TLYbDa6u7uJx+PIsryLDGQWOOnPHcn023ockUjEKAe9n9PrqS5Ddj3N7rf1/kLvw/V0dBn0NPV3gt5vZ7e77HePbkrh9/vRMgqrno5exno59PfdY7PZjPdNb+8egMbGRkRG2dXLuK93j/7+zG5fiUTCSFNfKO3LmN3ofaskSUSiUV5Z10YgrvKNIysJ3HUXxccfT/yww4hknlVvx729e3r0eZl09Lj1vtU1axbyrFlYjjuOqosuQps+nXBWncmus7FYzJAtu03v6d0TCAR6vHv05+7t3dPa2orP58Ptdhsy6OWgZpRea2agrNAIoMRp5YK5Y5kzoZIylw2rImNVZGwWmTEVLk6ZUs2sseWUuvbPM/UbMRjRNBFvbBRbjj1WRDdtNsLqLrlE+Bct6nlpPC4af/pTEVqxQmjJlNDicdF09c9F4O23jWsikYiYO3euWLdunUgmk0JVVaFpWo948oHX6xXJZDI3eFCQUjXx0ppmcexNb4otbQERq60V205dKLoeflhoqVTu5fuMpglxxxtbxUl/elvUd4fFxmafOO6mN8WiDa25l/abjo4OkUgkcoNN+kHS6xU7zj5btFx3ndASCbG5xS+m/+518ezKRpFSNaGqqti5c2fubT3QVFWEPvpIfHLU0SLc1S2+9+gKsfAv7whvOC705qRp6V8ypQo180estlZsnnmEiO3cWZB2N9jRNE2Ew2HR2dl5UMq/PwgEAiIWi5n5WyBqa2v3W96mVE14QjGRaG8Xm2ceIfyvvZbuVPKJpglNVfMf714QCoVEZ2dnbvABIztHNE2ISCIl/JGE8GV+/khiMGTbLgxOm1lJwlpdjexyk2xsSG8zFw6TrG9Iu84Q4lNXXUKQamtHKS5BUmQgvS98qr0jJ0oJWZZRFAVZTk9V5xu3242cx4VU+UQI+LjBS2WRjXKXDbW7Gy0UwjF5ckHyQpLguImVxFMqzb4ojd4osaTGkTkeDgZCSUkJygH2ZjBUUdxu7FOmkqyrRySTjCxzYpFlGjwRRKZ9DB8+PPe2nqgqvueewz51Kv/9xMPaJh+3nDeTUpftU5MzCWq7Qlz2r1XUd0fSNmmjRmGpriayYsVBaTcrSRJ2u52SkpLcUyZ5wul0YsmYsJjkn+rq6tygghCOp1A1QanDQnzzJ8huN9bhI/Jv0ypJaQ8++Y53LxhsfYOeI0lV49/L67nkkRVc8ugKLs38vvfYysGQbbswODUvQLLZGPbjK/C/+hrh5R/Rfe992KdMwT5pEqrfT+cdd5Dq7gZZxnX00XgeeojwsuUE33iD2KZNuE86MTfKghMcxN4M4imV7R1hRpY6KbYrJNvbEfF42rC+QDVz5uhS/n7BURw5uoyuUJxjDqmgzLX3u/ToUzome4Es4z7hBBINDYhEAqdVYdrIYuq7w4aP3Obm5ty7eqD6fESWLcc77jD+/MY2zpoxksNrSndxslbksPDB9m5afOnNE/TFYqH33oeDtPxig3TF8meFiOnNoKC0trbmBhWE297Yyv+9uB6hacQ2b0YuKkKpGpZ72WeKwdo3rG308cyqRi45YTz/7+xp/L+zD8/8puVeOigYtMosQOnZZ1P2la8QWroU69gxjPrDDShFaVdIkt2e/rqyWKj83ndxzzuJ8NKlxOvrGPH/foutnz4z88lgHhVIqoIKt5U54yuwSBDfug3L6Jq93lWlPzisCrPHlWO1yHzxiBpu/PIMLMrepzWY83ewI8ky7uOOI9XRQaq7G1mCYydWklA1kNKLOvY0qxDftg0tEmHY8cdw1hE1XHTceKxKz3skoMJtp6rIxtb2YHrRhSThnDGd6OrVu7jWO1iQMgs9TAqDmbeFZU99Qz6IJVWeX93EsCI7IqUS374dpax077axHULos8aDDU84wZGjyzh16nBm1JQxo6aUGTWlTBs1OH3iDr4czEKyWCg68QSGX/Uzys87D6WsDKS0GUHV5ZenK7kkoZSUUPr5z1N91c+o+uEPcUyenFe/qf2lqKhoUFZKgDKXldvPn8X3TjoERWjEP/kE1+yjCv4SaPJGuOjB5TT7opQ4rfu0+rG0tNQ0M9hbJAlLRTnWMWMIL1mKIgQ/mn8of71gNhY5rWiNGDEi965P0TSimzYTVOyMPGEu139pBuOGuXOvgoxCO3VkCZtb08qsJEnYDjkENI34tu25lx8U2O12SktLC97eDlacTidWc9OEgrFHE6R9RBOC9c1+EqpgxuhSpGSCZHMzzpkzkT7j5TrYzAx0jj2kEkmSWFnnpdkXpdWf/rVl7Rw5mBicmlc2kvTpLzc89+++rt1PhEKhQWlmIIQgFEsSTWRcrqRUYlu24Dr6qNxL844sSTR6o1z+79XUdoZyTw8Iv99vmhnsC5KE4/BphN57DzQVSYJESiOlpt3v7G4qUaRStKzZyG+O/jbPb/Wn7WxzL8ogSTC9ppQtbcG0mYEkYRszFklRiG3dknv5QUEsFjNW0ZvkH9PMoLC0tbXlBuUVIWB1vRebIjNtZAkiHifZ0oJr7twDMjC1P9H7hsGGzSIjS3Dlkx/zrQeWcUHm962HludeOij4bNeS/cxgXYCganDXW9u55tl1CATxnTsgmcA+6VMXZ4WixGllXIULJHDZ067S9pb95Z7kM4sk4Zg6jdjGjajBIKom+P5jq3hmZROaSI9u9UXc4+NVr5W2shFM2MOuZxISZ80cyVWnH5beVEKSsNaMQnK7SWzfcVAuAlMUxRw5LCCWjA9qk8Lg2A9bvSZVwXETKxhZ4iDV2Ynq9+M88sjPfJ8/WPuGlXVeNrUG+NsFs3n0krk8evExPHrxMTzynbm5lw4KzNafR+x2+6BseKqmsXRnF+Mq3QgB0bXrkEvLUEoLP7XhsimcO3s0p06pZliRPff0gHA6neYLax+QJAm7Pt2/fQdCpDuA5bUeNCF2O9XV+N6HPDd6LhedeChHjSvfrbmIJMEhVUWcmLVtsexw4DxiZnoB2kE4gmaxWHA4HIOyf/gsYLVaTROkAlJcXJwblFdkCb570gRu+9qRWCRBeOVKrKNGpX3Mf8bbjNVq3S8fCwMlllSZPLyYI8eUMabCxdjMb3T5pxtoDCZMzSCPhEKhQTkN3h6I0+yNpm2RJIiuXYulvBy5qLjgHYUiS5w7u4Zff34qdsu+VTfTm8E+IklYx40FWSa+fRuSBKMrXKxv9hFPpp3690YknuQPDTZqaqq49KQJu1VkdUKxJPe/v5P3tnYaYUXzTibZ1ISWccB/MBGPxwkEAqaZQYGIRqPGxg4m+ae9gNvDCwGt/hjheAq7VUHSNCLLluGYNq3g76fBgL7JwmBj6sgSvJEkr61vZXNrgE/a0r8t7cHcSwcF+6ZdmPTAmrVd5WBifYsfu1WhpsyBiMVI1tdjGTYMxT04v7D6YrCOfA8ZJAnb6NFIdjuJnTuRhGBcpYtgLEV3ONm7mYEQxFrbsbU28q1xVkqc/ZsO0wS8sq6Vtz/51N+z+4TjUX0+Ek1NPa49GFAUBZvNZtbfAmGxWMyR2QKSvZ1tvklpGje+solfPbceVRNoiQTRj9fgmDr1oFBm9b5hsLGy3sPSnV387r8b+fZDH3HhQ8u58KHlfPth02b2M48ls33uoEP8f/bOOzyO4m78ny1X1WVJtmS59wKm2IDpBAikUAIhCUlISA+kQkLyC3mTkN57JS81eZPQS0ggCTUU04yxce+W1dv1frs7vz/u9rxanWRJvpNl6z7Pc49Gs7MzO2Vnvjvzne/ACTOraax0o/v96JEIrsNk8eFQKOnMHjqSw0HZKaeQatmPpOssaCinqdpDIq0PEmaFAE03kHdt5/Nr/sQF86pGNCsLUO5SqfI4aPPHSWkZHVmlrAznnNlEnnzKHvyoR5ZlVFUtzcwWCUVRSn1DESnmMnhvOMkr+/wsn54x+ZTavRuEwDl79qSoU0VRJqTscMGyafzn82fxr8+fyaOfPYNHP3sG//rcmTz22TPtQScER5Y0M8GJx+MTcrC6YPk0fvWe46krd6L7fBiRCK6lS+zBJjzRaHRCWos40ig/+yxS+/eDrnHGgnru+eRq5jWU4fP5BoRL6wY//tc27v3HKzinNlA2f+6A68OhyBILp5bjj6WIZq1ooCi45s8n/NRTGUl5EpFOp4nFYnbvEgUimUyWVJCKiN/vt3sVjG1dYRJpPauLD8ndu5FUFUfz9EkxM5tKpUbdNxhCkEjrhBMa8bSesedtuRZP60QSGinNGHNX61Rl3A6Flr4o/9rUxfM7+0hpxohX58abkjBbQDwez4T7kkzrBn3hJLIsIQFaZxcilcK9eLE96IRnIh8XfCThWbkKEY+T2rMHRZZQZQnDgNra2lwYAWzuCHL/ujba9rRTcdFFo7b3uKypilBcI5rUM6a8ssJsau9eNJ9vUgm0DoeDsrKyCdc/HC24XK6SmkERqampsXsVBCEEm9qDyJLEihmZ0wSTu3eDquJoapoUwqzT6aSsLL/N7qHY1hnihns3cP0967n+7vVsbMuYSxTAxrYgN9y7gS/cu57vPrqVcDJtHvI4KuIpnf93/xv84b+76Y0m2dQe5HN3vc7jW/LvrTjclCSDAjIRZw27QgmuuPlF1uzqByCxeROOGTNQq6vtQSc8E7F8j0TUinIczc2En3oagOvvXs9Nj2wmmc7OoAKxpMbvnt5FbdTPZe2vUH3WGZmzzEfB6vlT+PSb5lPjdWRs0kpSZulQlknu2jWphFkhBIaRsedbovCUyrW4FGvWWwCBWIqLVzRR4XaAppFua8M5Zw5KkS0oTBTMvmGkpDSDXz+1i9Pm1/H795/IVatn8Zund5FM68SSGl+6bwPvOH46P7niOELxNL9+aheaPvL4Tdbs6Sep6fzqyhP43LkLufFtS7nu/IX84okd9qATgtGNToeCYSA0DaFlB0zDOOoGs2QyOaE6VQHs6omQ0nSWNlUihCC24Q08xxwDR+AsRjweH9VLX2IIVBXXvHlEnnwSkd0EtqsnjM+fOR9cCLhnbStv7PfxKf86KmbNGJOJnGmVbi5e0YTbcaCtOWfNQnKoJHfumlDvSrHRNI34JD3KdzxIpVJFE7hKULTd9hISX7pwMV988yIARDpNuqODstWn2IMetaTT6bx9gxAibx+pC0FPOMmFyxtRZYljm6uJJjV290Z4Za8PSZY4YVYNZS6FD6yexdp9PsKJAxMVI8WtyNR4nThVGVWWUCSJaq8Tr2Pi6fcCKDfddNNNds+CIgRC14m9/jp9f7iZ8L//Q+X55xF56SUwBEpV1agHydGiaRp33HEHF1xwAXV1dWiaRjqdRpZl0uk06XQaSZJIpVKk02lUVSWZTObCJJNJDMNAlmUSiURuhiWVSuUaXDKZHJCeNW4zDtM/lUrl3IlEIuc205EkKec20yE7M2m6zTwoipJ7bms6qqqSSCT468ut6AZctKwO0in6fvUrPBdfhGPePMimY34Z2uOWJGlAHqzpmHlQFCWXB+tzjyQP1rjzlZVZD2bciUQCWZZRFCUXN5aPCDNuSZLQNC3nNuM27zPzlszq2VnzMNZ6sObBGp+ZprV8rOlY248QAl3XB+XBWlb56tuaB3NAP1gekp1dBF56iaqLLiIlyzzwegdXrmrG63YSjSd55I0upikp3rTzecrmzsF11pno2Y1M9vq258FaPq/tD7CtI8DMWg/pVApNUYg+9i/0inKcJ56IbKljax6sz52vju1lZZaP9T221ne+shouD/nqwR63vR6sebCWvZkfTdNwOBy5dMjOeKVSqQHtx5pOvr5I1/VcPdjr21pW+fKQ7z0285PvHciXzlBlJcvygLIyy+RgebA+t9VtLZ+hysqaB6fTScrSt440D9je43x5yPceD9VO7Xk4WH9xsPq25sH6HtvzkK8ezDjMMrGWT776tubHTMeMW86uzOTLgzUda79tlsNQ9Z3ZIKpTlpWPUsEQfffdT+0HPgA1NYPq2JqHfO/xcHk4WD0MlYeD1bew9XnW986M+2BjjxACl8uVizuZTLJu3Tra29vp7OyksbERKSsnGULw8PoOTp0/hQq3SiCW5m+v7GdmTRm9kSRdwQRXnDgDRZGpcDm4/YV9XLSiadS6rm6HwmObOpElCYGgO5Tgry/v54wFdXicCv5YGrdDwaGM35zocBT/KYQgtnYtvT/5Ke6FC0luP3CcZfjppzM2fMYJXdcxDANd19E0DSEEmqahaRqGYeTc+fx1XUcIQTqdzsVj+pvxmY0/nU4PSmekaQ6VjjU+M017OvZn1TSN53b2srSpHGHoxHbtQhgG8qxZ6NkX0IwjXzpDua15MJ91qPSt/kOlYy0f83o6nR4URywWGzI+e/rW8rFfH0n6Zh7MejCvW91mHOaz2uPIF5/ptvsPV9/2dOxxm3nI529NxzDrWwjUeXMx3C4Se3Yzt9aDELCtI4imaUjC4Ma3Lua6FVUQDlJ2+mno2fdnqPq2us3n1nSDf23q5PfP7MLQs9eBsrPOJLZr16BnNcvQ+qxDlZuRpy1Z68F6X750zPjs7oPVt2Z5v+1xWJ/FnqamacRisUF5s4bN587XruzPbfW3u4fqI6zpWO8z07S6h3tW09+ejj0O+/PZw1if1ZqHfGna3Vq27zX9rP750jH/jiQdzdIXjSZv9riHK5+DPavpn++9M+MbKp3RpKkP0Rfpuk40Gh2UjrVMrGHzpWOPzzAMkqkUn7/rdX795A5S2eeObFiPqKjAMXfOQfMwVJnkS9+w9RfWOOx5MPNmDWPGnS8+ezpm+Vif2x7Wmp9UKpVbdTTTSaVS9PX10dfXh8/nQ7esOqiyzFuWT+Mzf32dbzy8mevuWk9aM9AMA90QOJSM0CsBDkVCCIEYg9bs1s4QoXiaPz67m5v+vplv/H0Tm9qDPLapi28+splv/2MLLf1R+22HD1FkDE0Tvb/7nQg8+qiIbdggdl96qRCGIeJbt4nun/5UGOm0/ZaCE4vFxMknnyw2btwodF23Xy4Y/f39IpVK2b0PG5FEWlz6m+fFYxs7hJ7WhO/ee8XOc88Tib177UEnPIZhiM7OzglVvkcyib17xbaVq0T/X/8q/OG4uPLmNeJ3j64Vz+/sFfe8ul9E4ynhf+hhsW3lKpHu7xfCMOxRHBTdMMSfX9wnln/jXyKR0oRhCGHouoi88orYtnKV0CORMcV7pGEYhohEIqKrq0sYkyC/h4NAICBisVipfIvEzp07Czp2GoYh9vZGxEnffVz8/pmduXrr+Po3RMtHPyaMZNJ+y1FLOBwW3d3dA/wMwxC6rgtd14VhGIPataYbYktHUDy2sVPs7Y2ID93+inh1b794cF2buOQ3z4toMtPftvRHxYW/eFZ0BeMD7h8JhpFJZ6ifbhgTqvsu/swsIHm96D09B3RkhSDd1YlcVl50FQMrkiTlpuqLQWVlJcoE0kX1OhVuvXoVZy1sQBKCxKZNKDU1KMMcWzpRkSSJ2traCWmP70jEMXUaan09yR07KXcq/PiKFZx33Fx+9eRO/vFGJ4amEXnmGbynnJzZLDiG90aWJKZXezAE7PdnTM9Isoxn2TIkSSK+adNRpzefD0mScLvd1NbWFrX/mcyUl5eXDqUoIs3NzQUtWwHs6A6T1AxOmj0FSZIQhkH0+edxzZ1zRO7pGCsej2eQtQhJkpBlGVmWB8ktZo85r76ccxY3EE5kZpKXNlVx4qwafNEk+31RkprOY5s6mTXFO2oVgwyCSFLjrlf38/WHN/HDf21lQ2sAITKmF2VJGsuwUDSKLsxKskz56acT+s/jhJ94EiMSJfDAA/huuZXyM04f9Q7piUwsFkNMkMHZEIKuUALdELgcMiKZIL1/P+rUqShl5fbgRwQT9bjgIxHJoVJ+5pkkt29DkaC+ws0/1u1jd2+U69+8EEc0RHztWiovuCC7YDU2ppS7qHCp7O2N5pa6JFXFOW8ekWeeQUySDX3pdJpIJDJh+oejDatObInC09fXZ/c6JISA11r81Fe4WNxYAUKg9fSg+3w5iyeThVQqRSQSsXsPjYBHN3by8yd28PPHt/P9x7bx0TPm4nbITK/x8P5TZvGbp3bxs8e38/zOPj551rwxHSUfSmh87aGN/HdHL5UeB4m0wQ/+tW1ym+Zyzp5N0w++j+Ry4VqwgMT2HUz9+tdxLVw4phmfiYqpD3NICJGx9HCI8Wi64DdP7eL/PfAGuiHQo1G0vn48y5fBBFHYHi2mLlOJQ0eSZcrPfRPJHTsRus6Dr7fxp9d6ueqUmSxvqiL+wgtILlf2SEn73SNneo2Ha8+Zx/wGyweULOOaP5/Is88dsG5ylGPq0ZUoDqY+Y4nikLRscC4UiizxrhNn4FQVEILUnj2gKDhmzDiq5IKDMdq+QZLgzIX1XH5CM5efOINfXXk8q+dNQZYys6UfOm0OX75wMe9aOZOfves4VjRXj/jkRisv7e5HMwS/ePdxfPnCxXzz4mVcd95CfvqfA/ueJhJFl2qEYeC/6y5Se/dRd80nmfHb3zDtxq/gXjAf6ShbMi4rKzs0NQMhSOzYQfDRR4m+8goiuztyLKR1g62dIebWlSMhYUQiaH19uI899oj96q2qqjq08i1xgOxyP5JE/I03WNhQzpsW1fGuVTORDYPIs8+hNjTgmDbtkAaWKWVOrlo9m7n15Qc6VEnCtWABut+P1tlpv+WoxOVyUVlZWdCl2hIH8Hg8OEZ5qEeJkdPQ0FDQtqvIEjdcsJiPnjkXVc5sUkru2ZNZtWmeYQ9+VON2u6kcpepflcfBvIZy5jeUU1fuGiCsOhSZ5lov8xrKqa9wjbn7LnerVLoduNTMmCtJEpVuldpylz3ohKDoUo0kScgeD8mWfZnZRkk68DvKiMVihzQ7EPr3v9n/oQ/T+dX/oe1Tn6bthhswRnnMnUlaF+zrj3H6/CnIZJZwjEgEz/LlR2zZh0Kh0lJiAZFUFdecOUT++yzLp5Xz0eMqmFbpQvf1k963D8+KFcher/22UWEIwZ6eCP/a1ElSy7wbkiThWrQQkUqRam2133JUkkqlCIfDpZWFIpFIJEY1u1VidPT19RWs7eqGYEtHiFBW1xMyEznJ3buRq6pQp02133JUk0wmCYfDdu+DIg2jADbcteEwhKAnnGBPb4TaMieGEPzhv7vZ3BHkhV19/PrpnXz09Dn22yYERRdmARzTphG46256f/s7/PfeS+C++wjcdx+xV9ce8nL6RGLMX65CoAcC9Pzox+h+PyKZxIhGiT33PPHX19tDHxRDCPb0RUimdY6fWYMkDOIbNuCcMycjnIz1OQ8zYy7fEvmRJJzz5hF78UVkXcPlUJCAdEcHWl8fFee+qSBt5bldffziiZ3EU1mVguzMLIZBal/LpNgERqn9Fp1S+RaPQpZtNKXxPw9t5AePbUM3TXMKQWr3HspWr0aahKtvhSzfQ+Xv6zv46eM7+NVTOwkl0rzRFuC3T+/izy+1IAQ8vL7dfsuEYFyEWT0SwXPccWjd3cRfX09s3evE1r1OqqWlYF97E4FDWQbXfD6MaHTAwC5SKbTengHhhkOIzFevIeDF3f0smlaB16mCYRBbvwH3ETwrCzBlypSSNYNCIsu4FsxH6+1F6+1l9uzZIASRF9ag1NZm2ksBWN5USWcwkZuZRZJQa2txzp1LcmdGZ/dox+PxMGVKZtd2icJTXl5eUjMoIjNnzrR7jZk2f5yOYIJjm6sOLI8bBqk9ezKbwsc4hh6peL1eamtr7d6HBQmJq0+dzc/ffRy/fPfx/OrKE/j1e0/gF+85nl9deXzOPRHFtuILs7JM5ZvfTNN3v0PT979H0/e+m/tVv/Pyo6rhBgKBsS2DSxKOpiYcM2cOEDYllyvjNwKEgP2+GLc+v5d9fVGuOXset35wFaoiYSQSJLduxbN8+RE9mPb19aFNkg1D44EkSbgXLcZIJkm1trJv3z6EYRB67DHKzz4bqQDCgSxJLJpWQVLT6QjEB3SC5W96E8kdO2As78wRRjweL+hSbYmBRCKR3AlMJQpPS0uL3WtMCGB3T4RQPM0ZC+oywqwQpNra0EMhPCeeCEfono6xEovF8Pl8du/Dxu7eKAhwqjJOZfBPlWX29UcnnEA7Pq0mu7Gp9dOfYdcFF9Jy9YeIPPssoqTjlEN2u5n+s58iud3IXi9KdTVC04hveGPYHd8pzWC/L8bXH97I2371HDf/dzfr9/uRJYnqMmcmzL59iHQa5+zZ9ttLTGYsuqvptjYMTSO5cydaZwfe1acUbKOg26Ewo9bL+tYAhqUHrDjnbFItLeijMUtTokSJcadQH2GabvDi7j6WN1XSVO1BkjKbxKNr1uCYMQPlEHX0j1QKVb6HikDw5LZuLv/9C9y7tpXuUIJgPE0onsYfS7G5I8hNj2ziurtfH9CXTwQKM1oNh5HR1+z48pcpO3U10278ClWXXorvzj8RffnlcT3Otth4vd5DmvmMPP88jvp6Zt5xO3MeuJ+6a67B96c/EXz47wOWYg0hcrpG/9rUyVW3vsyGtiCfftN8/vKxk7nk+OlgUQBPbtuO7PGg1tcd0WoGFRUVY1bjKJEHc7l/zmySO3ZQX1ND5L/PotbV42yaXrC2osgSV50yi7l1ZQOidDQ1oVRXE33hBWvwoxKn00lFRYXdu0SBcLlcJRWkIlJXV2f3GhOyJLFgagVXnzYHyRyhdJ3I88/jmju3YH3OkcRE6hskJD5+xly+845j6Akn+cbfN3PtX17jE39ey3V3vc6fX2rh+BnV3HzVyglXVUUXZoUQRF9+mdr3X0XNFVdQftZZVF98EXWf+TSxV15FiKNnA1g0Gh3zF5ZIpwn87S7cx63AvXQpjqYmaq/+IOVnnEHPz39G9NVXSad1fNEUz2zv4dGNnQgBq2bXct15C7nr46fw8TPnsnhaJQ6rHdnsrLjs8aAWqEM6XJSsGRQBWab8rLNIbNtO5569xNatw9HcjDq1wR5yzEiSxPtOnsUZC+oPDGCmGk3zdCLPPT8g/NFIMpkkFArZvUsUiEQiUVJBKiK9vb12rzEhSfCB1bO5cNm0nDBkxGIkN2/BOUmF2YnUN0gSqIrMiuZqPnnWPH71nuO55QOruPXqk/jDVSv5ziXLueS4ZqZWusdku7aYFF2YBZBUB5p5gogQIMAIhZGczqNqJ/OYZwaEyCzv9vTgPfHEnP1d2e2m/rOfwXPiStb/4Ff88rFNXHXry1x39wY2tgcRCBqrPVx6/HS8TjVv4zKXkJX6+swxtnnCHCmoqnpIM98l8lN+1lmk9u1D8fWT2r2bijefXxB9WSvBeJp/b+4iGD+g1yg7nTiaZ5DYuBEjHh8Q/mhDluWx9w8lDoqiKKW+oYg4nRmVtUNBCHhiSzdbOkMD6irV3o5Ip3HNm5zC7ETtGxRZwqnKeJwKXqeC26GgKvKEraKiC7OSLFN+5hkEH3yQnp//gtC//k3fLbfQ/eMfU3bq0WWGw+v1Io9Bz1AYBvHXXweg7OSTc/5p3UCprcXx9W/ztePfy/1Pb2Z5pcxD157Kly9cnFd4tWPEYmj9/XhWHHvEK9ZXVlaW1AyKgHPmTBSvh7KXXkb3+ag499yC6cuSXZ3Z3hXmaw9vYnOHZQZClnEtWIARi5Hu7DyqPmztOJ3O0qEJRcTtdk9IgeBooaHh0FZqBBCIp/jN07v4v5daBhhBTbe1ZYXZeQXtd44UXC7XhFEzOJIpfsuRJFzz59P861/jaJxGfMMGJFmm6TvfwbP8mKPqSywUCo3t0AQhCD/zX7ynnILS2EhSM/jnGx18/q71tAYS1FR5+fblx/H9ff/k4y/9lWaHjiKPrNyMWAy9vx/v8SfYLx1x+Hy+0lJiEZBkGaW6huCDD6I2NRV8xURCor7CBUjs648OuOZevBiRTpNubStomhONRCKBz+cbsxpSieGJRqOlQxOKSFtbm91rdAjoCCToDSc5c0H9AVnWMEjt34+QpEm7QTkej+P3++3eJUZJ8YVZITDiceTKCmre+14abvgitR/+EM6ZMxFa+qgawMY0MyAEWn8/8XXrqHnvlbQEkrzn5he56ZEt9EeThBNpXKrCaUubOOnrX0Ts2k7PD36Q2QF+sLITgnR7B0YigfuYwtgMPZw4HI7SzFahMQz6bruN5PbtkEqR2reXjhtvRI8OFDoPBUmCqZUuHIpEa39sQLN1zZ+HpCgk9+w+qgU9WZZLdlCLSEnNoLi4XId2hKlAsLEtgBCC1fOmHPDP2pd1L12CXFZ2VE1ujZSJ3DfohsAfS9ETTqIbAs0QpPUxTNiNA+MizIafeorQP/8JgKQoSLJMYvt2Qo89dnCB7AjC4XCMWs1A6DqBBx5AndqAa+FC/rm5m62dIX7x7uO45YOrWNpUBdnZM8+xx1J//ReIPvMMvtvvQBjGQcsv+uqrOGfNRCkrs1864nC5XKMu3xLDkLXv6P+/vxwwk6cbxF5+hdTuPfbQh0S520FTtYfOUALd0mZljwfPCccTf2PjQdvykYyqqrhcrpLAVSRUVS2pIBWRsgKMH49v6eb0BfVUuC2TPrpOcs8eys84wxp0UmH2DRMNw8iY6frEn1/jfx7cSDih8eLuPu5/7RBn6YtE0SUDIQSpfS0458wZ8NWlVFeTatmfEciOEuLx+Kh32xuRKOF//RvPiuMQLjf7fTHevWoGp86ro9ylDjhfWVIUKi94M3Wf/hS+O+8kcO99B7XVG3v1FVwLFsJR0NFHIpFRl2+J4TESicGHFmhaZtWkgEjAW5ZPY2atN6NAZ6IolJ12Ook33jiqhdlUKkUkEjmqZ58PJ8lksqSCVET6+/vtXqNCApY2VvKO46cPUJHTw2HSbe2UnXrqgPCTCbNvmGi0+GLc+txevvrWJUhSxiRolcfBfZNVmCUruMZeew00DYTILC3sb0H2uI+qZYWxzBwm9+xG6+2l7IzTUZwObnzLEq5/86Ihi0WSZaovu4yqy95B769/TWzduiGPAzWSSRKbNuNauOCoUKz3eDyjLt8SwyBJuObMwX3M8gMbMSUJx4xmnCM8eW40XHXKLD577oIBg5kky3hXnojm6yfV2loQgVboOsmdO+n4f/+Pts9/nuhLLw178Mh44HA48Hg8pZnZIuF0Okszs0WkqiqzQjh2JD533gJOmTtlwMbl2Lp1yGVlOJtnDAg9mTD7honGxvYgixsrWNJUidlll7tUukMJe9AJQdElA9OaQfy11+j9zW8J/vNRfLffTv9tt2eOzDyKhJPRClpC14lv2ACAsvJk3mgP4VBlqjzD6M9IErLHQ8P111N26mo6bvwq8dfXg32GWwhSe/eCEDinNx/xlgzI6sWVKCySw0Hzz35G1eWXIy1fRuVb30rj976PMuWAXluhUBWZrZ2hAea5kCSUqiocDVOJvfxyQVZqkrt20frJawg+8g/C/3mc1muuJfSf/xREUB4rkiQhy3JpZrZISJJU+lAoImPaD5IlrRs8ta2bTR2hQZM0sRdfxNHYiOQ6dNNfRypm3zDRaKxy0x1KEk/qGCJTj7t6IiyYOjEtLxS/BCUJ58yZNP/ylyi1tUSeexYjFmP6j3+Ea8GCo2pmNh6Pj86agaYReeppys8/n81hwaf/9jov7h7Bco4kIbtcTP3yl1Frauj+7nfRfL4Bg7UwDJI7d2YOS2ioH3D7kUokEhld+ZYYEerUqUz9n6+ifP3rNP3g+3iWLyuKyTzNEPzPQ5t4bmfW5nQW2e3G0dxM9MWXBn+UjQH/X/9Guqsroz5hGIh4nPCjjx3W2dlUKkW0gJvqSgykpGZQXA5FzSAYT/PLJ3fy9/XtA15voevEXl2Lo6kJyTF5hdmJ2jccM72KunInN9y3gX19UX7y7+388smdfPHNC+1BJwTFF2azqA0NTPnAVTRcfz0V552PUl1TlAHzcOJ2u0c1e5jYsYPk3j1UXHIJj2/tRpEljp9ZbQ+WH0lCratj+i9+juRw0PbZz5Hu6Tkg0ApBcucuZK8X9RBtBE4UysrKJuQX7NGA5HBQ09RU8MMSrEhAbZmTl/f6Bvq7XDhnzya1bx96IU7CMfRBs7Aj2SxZTBwOxyEfd11iaJxO5yHNHpYYnpqaGrvXiPFFU7T6Ypy9qOHAAqEQaL296OEwzlkzkdSRj5tHG06nE6/Xa/c+7LgdCv/vwiW85ZhpnLO4geZaD9+/7BiWNFbag04IiioZJHfsoP2GL2V0OoUg8sIL7L38nez/2MfYf/XVGUPpw6AHArRddx2733wBvb/+TWZmJc+AJFIpAg88yN4rrmD32y+i//Y7htQjLSa6ro985lAIgg88gKOxCaY389D6Dj582hxqvKP7QnVOn87Ur36VdEsL3T/4ASKVypSRrpPavx912jSUQ9Z3mhik0+nSMm0RSSaTdq+CosgSzTVeXrUJs8gynmOWoweDaL0DZ21HhRBoPh+pfS0D+gnJ6aRs9SlFFdQPhmEYaJpWar9FYlR9b4lRM9a+QTcE61sDSJLESXNqD3zMCUG6owOhaZkV2kmMrusTclXh5b0+ntzazSUrpvPFCxbz6XMW0Fjl4Rt/32wPOiEoqjCb2LoVx9QGJEXBSCYJ3HMvVRdfxMz//SOeE08k8sIL+ZcVhUAPh2n95DW4Fy+h6ac/IbVvL31//OMgIVXoOoGHHiK+YQNTv/Rlmn74A7wnnnBYZkBGbLRbCDS/n9i6dTiXLOG+bUHcDoW3Hts4olO9BiDLuJctZdp3v0P89fX0/PKXGNFYxhB9WxvelSuPCn1ZsssxJWGgeMRiMbtXQZEliRk1Hlr9McKJA523JMu4jzkGIxxG6+nO+8F6MISuk9iyhY4v3oDu91N/3XVUXHghyDJ1n/k01ZdfflhVmnRdJ5Wy6AqXKCglYba4xMd43LQhBP/Z3MVZC+txKPIA6zzptnbQNFzz51t8Jx8TsW/QdEFLf5RNHSF0IRBCYAhBIJ7mqW099uATgqJKOXowhHvZMgBEPE66o4O6a67BvWQJ1e+4lPT+1vwbPoQgsXkzqdZWaq58D55ly6h+97sJ/f0R9EBgYNBUiuDDD1P7gatwL1+Oa9483EuXDhLghBAYhoGu64hs5RSasrKyEQnRIrs5S+vvp+zss3G5HVy4bCpVbseYxltJVSk//XTqrrmGwN334L/nboxojHR7O+7jVtiDH7GUjrMtHkIIpk6davcuKJIEM2q91Hgd+KLJAe+gY9Ys5IoKEtt35O8ThkIIhKaR3L2btuuuJ93RwfRf/YopH/4QTT/4PrLXi3v+AiS3237nuCGEwOVyUVk5MZfnjgbM42yL0a+XOLTjbM9fOo13r2weMLYJIUju3IFSV4c6bZo1+KRjovUNQsC3/rGZh15v58XdfXzrkS2537cf2cyiaRNzA5hy00033WT3LBTJXbuJb91G+WmnktiylcSWzVRfdDGSopDu6SG1dy9lJ5002KKBYRB//XW0jk6qL788c9CCquK/624qzzsf1bLTOrFjJ8F77yO5fQexl1/C9+f/Q8RiGXND2Xg1TeOWW26hqakJn89HOBymrKwMRVFIJBIkEglkWSYej5NKpXA4HESjUZLJJIqiEI1G0XUdWZZzbiEEsVgsJyTHYrHczFYymUSWZVKpVM4di8Vy8SViMUL33Y/W2UXZhz/E4uZqzlkyjWQiY6dWkqRcOoZh5L6KdV3PuVOpFIlEAlVVSSaTJFIpPEuWEAuHCf/1r4Qe+QdaTw9aTw+OhQtJer1omoaiKMRisdySp5kHM25JknJxm24zD/F4PJeHeDxOOp1GVVUikQjpdBpJkojFYhiGcdA8SJJEIpEgmUyiquqgekgmkzgcDmKxGOl0GlmW8fl8SJKUqxPDMHJ5MAwjl44kSaTT6Zw7mUwOeG5rfqz1nUql8ubBGrc9D8lkkkQikWtL1jaTSqVQVXVAHsxjN023OZtkpmmN25oHM26Hw0E8Hs+lGY1G0TQNVVVzcZt5sLalkeQhGAzicDhyebC2WTMPQ9X3wfJglvf0KgefOHshLikzGyFJUq4ejH37SLbsw3HGGcjZ/OjZlRh7OxVCoGka8ViMyGP/ovtrX0PMnEnTj36I0dBAKlsm4WefRdd0PCtXEk8mSafTOByOQXkwP3BNt6Zpg/JgrQezzVrrO51OD3i/zLLXNA1d1wmFQjgcjlx/QXY1x2z31vfOWt/WerDWdyQSyS1P2uthqDzIsjzguc2yz1ffmqbl2qk1HWufJ4TImwfre+x0OonFYgPeL3tfZM2DWQ9k+26zzZpuWZYHvHfxeJxoNIrD4SCRSAxoVyPJw1D1kK8vSqVSg95jex6s4wO2d82M2+wvzHTM585X3/oIxp6h8mCv13i237b2UWYYa39h77f7+vpQshMJZty5sWeI8TOVSqEqMnOqVaZVOFGt9a3r9N9+B+5ly3CtPoV4Vo3BzINZVskijT3W9mOtB3t9m3Vsth+zvq31YO1b7f1FcgRjTzAYJBqN4nK58uZBCJEr+/GiJ5wgnNAwhGD1vDrqK1zUV7g4YWYNHz5tLl7n+D7PSCjqzKzn+OMIP/YYrZ/+DG3XXUfZ6acjOVQQgvj69TibmwcLsmRsqot0Gslie01yODKzMPpA3RIjEsaIxZjykQ/T+K1v0fyLnxP8xz8wbEumhmGwZ88etm7dSmtrK4lEAiFE7oXRdT3X8IQQObfpn8oucZudjqZpJLODo+k2G2sikcAwjNyLaRhGLj7DMEhEYwT/+U+8F7yFBzf3sLc7kPHPxm11m3FrmjbAbXYohmFk8pBIIGQZ91vfhpFIkm5vByD26lp6//hHEuHwgLjT6TS6rg9ya5pGOp3O5d2ajjVvZn7Injtv9TfTMd2appFIJNCzukFmOmbZm2WVK59sfPZ6iEajA9Ixn9t0W+M2y96eB2ua5vMNl4fEKOrBWt+JrMBgjc+eH2seEtl6MOPWdT1XJtZ0hmqzZD+irP7WeshXPmZYM+5IJDJsfZt5MMvKngd7Ovb6TiaTJBNJQvE0vlCUeHxgWZWtXk1i4yYS2cMxzLLPl46WTpOKxej961/p/dGPcB57LDU3fQOlsZFUNm9CCNQFC4muXYuerRuzvq1lZU3HdFvLx+o2826th6HarFlu5rObApC1vs24re/ASOrVTGeo8rHXQ764re+DtV7z1bf1Xi0rnJvutKXd50vHmgdrmVj7U2uZWN3W98Fa3mY7NdMxhQBrHsy47e9dItserelY47bWiRlfvvq258FabtZ0rO+APQ/WZ7LGZ/qb8R1s7DHbkpl3ax7MvOdrm/aysrqtdRyJRAbkwbxvqDJJJpPEEwn+vr6Nl3d1D4pbS6dJbt2Ka9VK9Gze7O3Umo71Wc08DNdvm+6h6sFaJvnq295mzbzlKx/ru2Z9H+x5sJaV+XxkP4Ci2QkHax4SlndgPJEkeNeJM/jBZcdw29Un8e5VM3jXymauWNnMhcc0Uu09fHsPhkMSonjrMkLXSe3aRXzjJqQyL+WnnprZjCQEkeefx7VwIY58S5uGQejxx+n73e+Zfc/dyE4nyb17af3Yx5l56y04Z8/OBU3u3k3bZz/HjN//HueMZoxkkrZPfZrG738PR3ZpJB6Pc/bZZ/PHP/6RpUuXIssysiwjSRL5sm/1N91Sdo3EdFvvM/9PZWfi7HEPCG8YRNesoeOGL5H63s/5+MsRvnnxcs5beqAcrGnmez6Gea7A/Q/QddNNA04GU5uamPfoP5Gyx2nan8seR740hwozXHh7mEOJg2zn4nQ6kYew11mIdA4Whx1reHscdoYKM5I4DvZc9vAm+cLki0NkZxnMYyvz3WePI196HCSdtC742J2vsqSxki9esAhVydalECR37qT1Yx+n6Sc/puykkwalk3MLgZFI0PuzzIdr7dUfpPaqq5Cz1gJyz2UYBO6/n96f/5w5Dz+MWp8xUZcvznzPmo98+R/KbUXPCvbmkbbDxWH9f6gw+a6PJIw9vMlQYfLFYccahjxlONS9+cIMFcfBwmjZmXBzBitf3AeLIx/W8PY4huNg6QwVR74wQ8UxXHi7n91tJV8Ye9hoNDqobxjquUx3KJHm4396jQUN5Xz70uUHwghBYvt29r//KuY8+ACOGZkDE+xpmhwsHTv5whQ6Djv5wuSLw46UncnVdR232503jqEwhMAQGSsxsiQhSZmJQN0QB05ZlEDJXhstuiHY1RPh4fXt+GKp3FYGhyLxnUuPsQc/7AyeFi0gkqLgWrSI6ndeTtVb3nJgV70kUX7GGfkFWTLXXXPmoPX1kd6/H5FKEX99fUa/pqEBkU5ndGeFwNncjFJbi+73IzQNIxLBSCSQbTpykiShqipq9gxvs5FIWWPb1p/V33Rb47HfZ/4fzy5/2sMMcOs6oX8+ijJjBnfvT1FT5uK4mTV547OnM1QYq9u9bCmS02IRQZJwzZmNlBWwzbDDxWFPa7gww4W3uw8lDkmSCIfDGNmlVHtYa/hDSedgcdh/+cIMFX6oMCOJwxpmJOHz+R8sjp6enkFhh3Jb/ew/a5jB4aG23MX27vCB/jZ7n1pdjVJTQ2zt2jz3Zd1Zkz7t13+B0KOP0vCF66n7yEdQLPrq1mdxNjeDJJPau3fQ8x38WQf/8oUZym39pWxHVtrD2u87WJh81+3/5wtjD5/PP597qPvsYfKFH+refGGGiuNgYcyZMHvYodz54sj3yxdmuPD2MEOlM1Qc+cIMFYf9/3xhhnKPJg5Jkujry1gZsYex+1nd/lialv4Yb14+beB9QhBfuxZ16lTk7Htrj8P6O1g69l++MIWOw/7LF8Yadrj7rH1DvjjsCCCS0Hhyaw+/f3oXd764j1Z/DN0QxJIaP/73Nn7x5A5+/dROfvPUTlr9sQEniI+UYDzNVx54A38sxfauMFMr3WztDNFYNfFOK6PYwuyYkSSc8+ZRc+WVdH3v+/T8/Of4776bqV/+EpLLRXLnTrq+/30QAsnhoPb976P7Bz+g5yc/pf0LX8S7ciXyYbDbZmT1vYZD8/mIb95MZOFy1nSnWDW7ltqy0ZnjGg7X/PlUv/OdSKoKsoxaX8+Uj370sJolKhQjKd8SY0Nk9VGLjSxJrJxdQ0t/bKDRAklCrqpGnVJLfP2GQVZLABCCVHs7HV+8geTmTTT94AfUXH750G1bklAbG5EcKqldu+1XxxWR1W8sURxEkTb1lsgw2qVuAbyws48yp8LxM2w2ag0je1hC46BJp8nIaPsGIQT/+9we7nutjSWNlSiSxBfuWU80pZFI6zy8voPZU8o4cVYNK2fVUukem/3ll/b0s6ChnMtPaGZOXRmfPmc+N751CZs7gvagE4KJKcySmdWtu+aTNHzhetzLl9P885/hPe44JFlGbWig8sILQZJAlqk8/3yavv893MceQ8MXv0D9Zz+TEebGmYqKiuEVtYUg1dpKqr2DzpVnEEoL3nH89AFn1R8qkqLQ8KUbmPPwQ8z4/e+Z99ijlJ18cqasjnBqampKhtGLhCRJNDc3270LjixJrJxVQ3sgTkobKLDKbhfOefPRe3tzKy85DIPY2rW0vPd9GIkEs/76V8pPP22Q1ZIBSBKOqVORnC6Se/cMjG+ccbvdVFdXDznbUuLQ8Hq9OIb6qClxyEyfPt3uNTxC8PcNHaycXYvHMfAdNSIRUi0tOJpnDFxFnKR4PB6qq0d4WFJ2+X9bV5hrz57Lm5Y0cPmJzbhUhZ5QRtfXpcosaazghFk1rJ43hSqvc4BJtJEiSeByKNSWOQnEUqR0g3KXysa2iSnMFtWaAWQGocT27ejhCGp11aiEKkmWcdTX416wAKWyMjNwSRKyx4Nr1qwDA1n2fHfXvHmZwcs2wGmaxp133slFF11EfX39gK94+xd9Pnc+P9NtDRMOh3E4HAMGrAHpaBq+P/8ZI60x61Of5ITZtRw3swZTlrXHPRa3ECIzI1VTg2NGMzidkNXXGfAsw+TNen24MHY/050vHnuYfNcPFsbn8+FyuQbpzNrjsfrnuz6SMPbro3Xb4xvKbb/P6raGHS6M3c9054vHHsZ6vb29nerq6iHD2P3yuYcLn/krqHCpPPpGJ2cvrqfakxFAzDB6JELkmWeoeNObkGtqMm1X0wg8+ijd3/s+rkWLmPatb+KYPh3ytAPzb85fVYm8+CJGJEr5eefm+oyRPGs+/6Hcdj97PMlkknA4jCe7qdV+3e62hrGHt/uZ7pGEyRd2qDB2v3zu4cLbr4/EPVwcw4WJRqNItjPu7XEfajpWdz4/0z1cGPv1fGHs4e1+pnskYfKFHcptv8/qbm9vp7KyMje25Qtjjc8QgrpyJyfPrWVqpRvzQ1IIQbqtncADD1B+wQW4ly3NjU/2OKxxW935/Ex3vnjsYfJdH0kY+/WRhLFfzxfG3ADm8XhyfpqmEQgEcpYbHA5Hrm1LEvijKW55fi+xlM6jG7uo8Tp427FNpHXBLc/vZX1rgH9v6qIzGOe4GTVj0putcDl4fEsXFx83nSe3dfP4lm7+vbmLcxZP5bT5dfbgh52iC7PCEAQffggJcM6aNUjQPCiSdOBn97MiSZm47f7ZhnH77bdzyimnUFtbSzgcxufz4Xa76evrw+/3o6oqPT09hMNhKioqaG9vz5kq6urqIh6P43K5aGtry+1O7OnpwcjuHO3p6clZM/D5fDidTgKBAP39/TidTrq7u+lvaSF8xx0E33YJatNUlsyop7urg1AohMvlorOzk2TWjEdHRwfJ7K7Onp6MkeJEIkFvby8AgUAAn8+Hx+Ohv78fn8+Xe9ZwOExlZSXtHR2Ew2FUVc3lwel05uI2DIPu7u7cLtLu7m6krG5qf38/siwTDAZzQmRPTw9+vz/nDofDlJeX09ramjM71NXVRSpr7sXMj6ZpOX3MRCKRc/v9fvx+P263e0AeOjs7CQaDVFRU0NnZmftIaG9vz73YnZ2duV2f3d3dud28PT09yLJMJBKht7cXRVEGlFVPTw+BQCD3rJFIhMrKStra2giFQrmysteDpmn09vYisjtve3t7c3kw21J/f38uP+3t7YRCITweD11dXUSj0VzZRyKRXDrp7KlmnZ2dpLO7qnt7e3N56OvrQ5IkfD4fPp+PioqKXD1Y81BeXk57ezuRSARFUXJ5UFU1F7dZPmQ3RZrpmHlIZXfxBwIBPB4PnZ2dBAIB3G433d3duQ7XXlZmHkx3MpnMlX00GqW3txdVVent7SUYDFJZUcFZs1zIqSgupzNXx2VlZfSm0wS2b8fV3EwfEPP7iT3zX/Y++QTe886l6hOfoD+dxrDkweFw5N41h8NBf38/gUCAsrKyzPsgSWivryN67LHENS3XZiORCLIs09XVhZY1VdfZ2ZnbmdzX1zegHhRFobe3F7/fj9frpbe3N1c+9vqOxWK5so/FYkhZnWRZltE0je7uboysWSXzuYPBIP39/SiKQl9fH4FAIPcOWNtsNBrF6/XS1tZGNHumu/kOALn8mO1UUZRcHlRVzcXtdDrp6+sjGAzi8XhyfZ7b7cbsL8w+zxQWzf7CmodoNEpfXx9OpzOXB1VV6e7uJhgMUlVVlXunrXnweDx0dHQQz5pOMvsOsy0JIYjH4zl9zUgkMqCOzX7WzE9lZSVdXV0D0kkkErn6MfPQ1dWFkT2RzUzHGre1LZnPXV5eTldXF6FQaMB7bPbbiaxpJzNNIQTd3d25PJh9XigUyjv29Pb2EgqFcu+xfexxu93Djj2GYeTqON/YY9ar2W+73W46Ojpy/vaxx9RB7unpQQiB3+/P1ZNZx0ONPRUVlbS1t1Hj0JleW0539n1wuVx0dHQQ2ryJ2IYNaJdcDB5PwcceVVUH5MGM2zr2BAKBUY09HR0dxGKxXJhDHXu6u7uJRCJUVFTQ2tqa+9DtyvbbPp+P//mf/+Hxxx/niSee4O1vf3tOmBWAIWBDW4CkZtDqizNripdVs2txqjLHz6jmw6fP4ZjmKv78Ygv+WIoTZtWM+kAmj1PhwuWNOFWZk+ZMQTcEJ82u5bITmnE7hlmBPkwU1ZoBZJcH171O/5130PSd7yCXl+cuSfkE1SIQj8c555xzuPXWW1m6dOmAmdNComXt0FlnB6wEH3qItp/8nDve+ikqly/jhrcsnpCNYqKSztoWLFb9TWZEdvbQPQ46bCKbniEEiiQfeP2FQAsG2feudyN7PFRe9HaS27YTXbOGKR/9KDXvyfiPtr+Iv/EGbdd+ijkPPpCzaDDeGFn7u47SUnhRMDd/DdX3ljg0TEsyI+l7dUPwt1f2U+5SuXhFE7JVjc4Q+O+9l54f/5gFzz9X0pm1nF5n7RuETY/Wqr6Y0gyu+ctr/L8LF7NgagXhhMYX7lnP+06eyVmLDhxuoRuCf7zRwb1r2/jD+0+kfBS6s4YQOa0sSQIJCUMINrUH+f1/d/GH96+033LYKfqbL4Qg1dZKaucuWt73ftqu/RRtn/40bZ/+dOaAg1EoPk90QqHQkJtoRDpN+L//pdddyYtJL9VlTlSl6MV/VOHz+Ua9EaHEyBBC0NraavcuCoYh+OOzezj/Z88STR2oTyORoOub3yLd1kZyxw56f/Zzwv/5D3WfupbaD2RMb41WkAVwzZsHDgeJzYfvTPF4PI7f788tI5YoLNGskf4SxWE0fUNSM3hgXRvrWwPYR3dhZI6d9hx7LHJJXxYsfYMVKWtmzvxZMYQgGEtTmVXRcqoyTlUmlNAGWC0QQuCLpnCq8rBbC+wIAU9v7+Fzd73OZ/62jv9u72VHd5gv3b+Brz60kYUNE/MEsFFkcWxIskzF2Wcz44830/zb3zD1qzcy9StfYepXvkLl298+erWDCU7eL1ch0H0+4jt3s3n2CsKSgytPmomSL2yJEoeBvO22iHidCqF4OrdpASFId3YSf/VVMIxMj5r90PUsW3ZIGzolhwPXnDlE1qyxXypRosQIGGn/IIBYSmNbVzgzK2u/Tc8Is96TVo3pw/RoZaTlC6AqmQ1eX7x3A49t7OT3z+yipT/G6QvqeGprN796ciePb+nmzhf3cceafbx75Qxc6shWgIWAzmCc7z26lZPnTOHNS6fxk39v58v3b+CY6VXc+sFVfPbcBfbbJgTFlyQlCaW6GkdTE2pDA0plJUpFBUpFBbLn6FpiqKioGHKZK7FtG+H+AI80rOAdJzRTU+YsvcujpLq6etBXaonC0dTUZPcqCpIEM2u9pA1BlynMkulJB63UDKEHPyoUBeecOURfejnTWx8GXC7XqHYslxgdJWsGxWXatGl2r7wYhuDxLd3UljlZNr1ykJ6m5vORbm/Hc/zxA/wnM263m8rKSrv3kCiSxOfOW8ibFjewtsWPbgh+9M5jqXA7mFdfjlOVeWlPP/5Ymh9efiznLZ06UNVjGAQZSwmLp1Vyxcpm3npMIxceM42FUyt4z6qZNFS6J+yKcvGfSgiEruO/+272vevd7L38ney94l3svfyd9P7614dtcCkGkUhkgJ5LDiHw33Mvrc0LiXgruWhF06CXvMTBCQQCQ6pxlDg0zM1P44GExMwpXjTdoDuUOZYSSUJtaMA1bx6SooAsIykK7uXLcS1aZI9iVEiyjHPObNL79w82+TVOJJNJgsGJadLmaCAWi+U2wJUoPN3d3XavvBhC8OC6dk6eU4uSZ2InvmEDstc79IFJk5BEIkEoFLJ7D4kkQV25iw+dNoevvX0pX3jzIpY0VqLKErPryvjkWfP42tuX8sU3L+KUuVNQZGnEprmEgERap8bjyOxtAKaUOZlWmZl41HQDzRj//nMkDG5thUYIwk8+ReTZ5/Acdxzl559Hw5duwLV4EWWnnHLosy4TiLw2UIUg3dVF7KWXOPPdF/LoF87hmOlVR1O2x42RbkAoMXokSRqXzV9kO+PpVR6mlDlJpPWcnpdSUcG0b32Tmve/n7LTT6fmqquY/pMfI7tcthhGiSThmD4dSVVJ7t13WIRZRVFKM4dFRFGUIVfFShw6I+0bJEniI6fP5r0nzRysYgCZkzxrapArK4+qsf9QmGh9gwBe3NPPF+/dwBfuWc/da1v595ZuvnDvBq6/Zz033LvBfsuEoOjWDISu0/f73+Netozk7j1IEtRefTWJLVuzu5Q/kpmJKSLjZc0gnU4P6lSFruO/5x7afnczTX+4mZolCwt6SMJkIplM4rDY2ytROIQQxGKx3Pnr40EiraPKMqpieR8MI6NqYBi52dlCDHqJbdvZ/6EP0fCFL1D1jkuL3ufY0TQtt2O5WP3PZEbTtNymmRKFJxaL4fF4Dtp2hbkLXsockDLgmqax/0MfRvZ6af7tbw5JD/5oQtM0dF3Hdagf7QVACOiPJNneHT7gl/1r1qYsSayeNyV3faIwLlKBUl6OEYniqK8nvn4DRiRCev9+jFjGRuLRQjgcHqRmIFIpomte5O6GE7j++T6M4n47HNWU1AyKS0dHh92rqKiKTFo30K3LVrKMpKpITmdmsDvI4DlSHI3TkNxukvv2HpaZ2WQySSAQsHuXKBAlNYPiMhIVJN0Q3L+unbtebR0kyJLdBK0Hg7gWLCgJshYSicSEUUGSJJhS4WL1vCm536nZn/n/yXNr7bdNCIouzEqShPvYFSS2b6fsjNNJd3ay57LL6P7pTyk744yjyprBIDUDITBiMXq37uThuadz6qKpg1/yEiOmZGO2uIz3zMAbrQEu/s3zpPU8euYFQIgDcqvs9eJevIjUvsOjZiDL8uD+oUTBUBSl1DcUkZH0DZohuO+1VrZ22vQ/DQMjFiPywgtovb04581FlCYlcky0vkHKzr4O95uIFF+SlGW8JxzP1C9+AbWmhll33E7zz3/OrDtux3vCCQWbeZkIDFoCF4LwK6/yhGM67nIvp86vK6kYHAJut7ukYlBEyi0HmowHjdUe/LEU+/oLv0JjCMH61gAb2gKZ1RBZpuyU1aT3tRwWYVZVVVwuV0ngKhKqqpZUDIrISNSPfNEke3qjvPPE6QP8tf5+Wq+5ls4bv4ru99P3698QW7v2sLyHExGzbyhxaIyPZCAEqbY2+m65lf5bb8OzfDlGLIZuMxR8pBOPxwcsgxupFF1/vZuXmpaxuLGKhVMnprHhI4VIJFJSMygSQgj6+/vt3kWlzKkwpdzF6/sLv/zeG07ypfs28MsndhBP6UiyjPeUU0i1tmIchuXoVCpFNBotHZpQJMwjp0sUB5/PZ/caxKNvdFJb5mTRNIuZKcMg+vLLA4TXdFcXfb/7fUmYzWL2DRONlGaQTA8cb3VDEElOzPes+MKsYRDfsoWOL30ZIxQk/PTTIEmkOzsJP/54zjD60YB95jC5axfaju2cubyZz563AKda/OI+mvF6vaWZ2SIhSRI1NTV276LiUGXqK1ysby28MNsXSZLUDPb0RommdJAknLNmInu9JNZvGPd+x+Fw4PV67d4lCoTT6SzNzBaRg9lINoTgofUdHNtcPcgOqdbVPeh9S49AB3eyMFH7hud39XHXqwNPfuuLJPncXa8P8JsoFF0yEEIQffFFqi67jIrzzsstszmmNZLq6BxsJP1oQQgiL72Mqip84pKVrJpdO2F1TY4USku0RxcORWZ2rZeOQLygkzSGECycWsEtH1hJXzSFL5KxZSspCs7Zs4m8uOaw9TulNlziaERC4tuXLud9J88cpErnXXkiksORUSmUJCSHg6qLLjqqVAwPhYnWJwigP5qipT/Krp4IfZFk7tfqi7G7J2K/ZUJQdGEWMoKdpGRO8hHZXRlGNHLUnc2cSCRy1gyEprFz+37+fNzFhGunZk4yKnFIRKPRQdYiShQGIcSg88GLjSpLfOKseXzz4mUH7L4cIkIIntjSTXcowbyGcv7nbUuo9jozwrIk4Zw7h+iaF8d9A0o6nSYWi5XUDIpEKpUqqSAVkYP1DQLBiuZqVsyoHvAqC8Mg+vIrSG43rkWLcDQ2UvvBD1J71ftLwmyWVCpFLBazex82hBB8/E9ruX3NPh7f0s1H/7Q287tzLd/4+2bes2qm/ZYJQdElLEmWKTvpZPx/+QvxDRsQ8TjRtWvp/e3v8K5aOe72HouJx+PJLXVpoTCP90s8PvVYYnppACsEZWVlJTWDIiFJErW1429ypbnGS3ONd6B5rjEiBLT64/z439v532czNq3fvWoGUyvdmXFTknDNmYPW0YHuL7xqw3A4HA7Kysom3CzM0YLL5ZpQO8KPNobrG3RD8NeX93P3q/sHng4lBNGXX6b/ttuov/Ya5tx7D/Me/w8Nn/8cSlWVNYpJjdPpHNEGu/FCliR+/74TuOaseVx6fBM3v//EzO+qE7n7E6v5+Jlz7bdMCMZFMnAvX8a0r36V+KZNSG43/j//H7Xvfx/e4447qr7O0ul0buaw95F/stbbxOmLGphR4y3UxNOkJpVKlWa2isjhmB3Y1x/l439ey+v7/Ydsg1kgeHh9O5GkxkfPmIuERGcwwY//vY2W/iiSJOGcPRuh66Tb2+y3FxVd10vtt4iYhucPN4YQaEbmdzRVdTwet3vlMITgvtfa2NcfGzDO6YEAfb/7Pe6FC6m67LKM/ejsUdVH07h/qJh9w0SivtJNpceBIks0VLhpqMz8yl0q8gS1yFRUYTa5cyepjo7MGevLllH/mc8w+66/Mf2nP6HinHOQjjJzFJqmZVQoEgleevQ5uqY0c+05CwbpEJUYG+l0uiQMFAkhBIlEwu5ddMpcKhtaA+zuiRzS4G8IQbs/zp1rWrj61Nk0VnsACMbT3L+unVf3+jJqBrNng66Tbmu3R1FUDMMoGfUvIrquT4i+IZHW+fif1nLr83sO+eNsIjFU3yAE9EVS7OgOc8lxTRkZVQhEKkXfLbeg9fQw9etfy8zElgTYvOi6PuH6BglorHTTE0qSSOsYhsAwBLohJmy7LqowG13zIsktWwAwYjEC99yD5HAgOZ1HpQ5pRUUFsiQR37yFP049mZPm1zN7ysTbpXikUl1dXdqxXCQkSWL69IH2IceDKrfK9BoPu3sPbVOBbghueX4vVR6VtyxvRJUlJAlm1XpxqTJvtAcxBDhmzEBIEqnW1nE1DeR2uw+6I7zE2PF6vRPifPs9vVFea/HTGUjkjgE9GmhsbLR7QfYj8tGNHUytdDNrihdZkhCGQfjJJwnccy9TPv5xXPPm2W8rYWGi9g2VHpVoSuM7/9zCQ+vb+efGTv65sZNHN05MSxTjJlEKw8CIxcd1ABlvEokEhq4Te/klrt/6d645uWmQmZISYycWi5U2gBWRkdiSLDSyLLGiuZqdPZFDGvxVWeL9J8/k+vMXMb0mMytLdub3xFk17OmNktQMZJcL74oVpFr2jesmMHMDWInikEwmJ4SawfauMCnd4L0nzUQ5imYih9oAphkGz2zvZXlTJWp2gkr3++n7w814V62i8oI3H1WnfBaDido39EdSeBwK0ZTO8zv7eHpbD09v6+GZ7b32oBOC4rYyIRCahpFIINJpRDqFSCYxEomMX3ZZ/mjB1JkNvvgKS1YtY+mchpKubAEp6RwWl+H04oqFLEkcP7Oalv6xd+a6IUjrgrn15bzlmGmDdLresnwaLb6MMAvgPe1UUi0tmf5nnJiIenFHE7quH/YPXd0QbOoI0lDupLbMycPr24t2VPN4M5SagUOR+ekVK7jhwsWoioSRTNL1rW9jJBI0fufbKON8quCRyETtG1bOruX7lx/Ljy4/lh9aft+/7Bh70AlBUYVZyemk/5ZbaP3EJ2m//gvE1r5G6zXX0vqJT9L6iU/Sf9vtR5Uw6/V6ifb28z/eE/BdcuVRZalhIlBZWVlSMygiU6dOtXsVHVmSOGthPd+6ZBljVS3f0Brgnb9fw57eCJIkDfqAXD1vCh9cPTunu16+ejXpjg6MyKGpNowGp9NJRUXpBMBi4Xa7D7s1A0nKCACfPXchj2/t5puPbJmwNjlHS319vd0LARiGoKbMyYxaL5JhEHrkEaIvvkj9pz+V0ZMtzcoeFJfLNSH7BkmCQCzNk9u6efD1du5f18YD69p46PXx3W8wUiRRxKkuI5FADDN9LrndyG530Rt8PB7nnHPO4dZbb2Xp0qXFMY8jBH19ffzjn6/xq33w3FfOxet0lHTeC0hPTw81NTUTQjfuaEMIwZ49e5h3GPTbhMjo3klSRnd3NK9MSjO44d4NbOoIcvcnVjOlzJX3nTNEZne5Ikvo4TB733EZU2+8kYo3nWMPWhRisRjRaJS6urri9D+TnHA4jNPpPKxn3Fs3xrT0xXjbr5/jyxcu5gOrZx3xdb5nzx7mzJkzIB+6IfjfZ/fQE07w9bcvRQ+H2XfFu3AtXsz0n/4E6TB/XBwpRKNRYrFY3g+Gw0kirfPhO15FlqAzlGBWrZetnSHetLiB777jWHvww05RpUjZ7UaprR3yJ3u9RRdkx4t0dze9T/yXO7aHOXteDU5VyTuolhg7RfzumvQIIQ5b+SY0nVue28Pf13dgjNLe7I7uMK/s8/HxM+dSV55fkCWry/jT/2wnntKQHA4cjY1EX37ZHqxoHK6ynSwczvZr8s83OnlyazdCwOy6Mk6eW8t/d/SSPkrtjGu6wRPbulFlCT0ape3z16HUVNP4rW+WBNlRcLjb7VCs2d1PXbmLz7xpAcc1V/OH96/kGxctx6VOzNXRo0OSPJwIQaqlhX3vez+v3HIPPZrKcX+/HeH3H1UqFBOB+vr6w76UeLQiSRJz5x4eY9hCCF7Z5+PRTZ2jMvtiCMH3H9vGnLoyLj2+2X55AK2+GH95eT9bu8KgqjiaGom98sq4DSRer7c0K1tEKioqcB7GEyXTusGvntzJf7Z0I2WXaK8/bxHrWvx0BvPrmx5JzJ492+5FZzDOzu4Ilxw7jcADD5J44w2mfOxjKBNwyXwiU1ZWxpQpU+zeh51wIk19uZMKt4NYSkc3BPMayvnPlm570AlBSZg9VIQg9O//oPX0EJVUZgU6WL71JXp/9KNx3S09GfD5fBNix/LRSktLi91rXHAoMlMr3LT54sSSI6/fRNpg4dQKPnbGXBzK8ELinLoyFFliY1sQIck4mmeg9/eh+3zj8tEZj8fp7+8fN+F5shGJRA6brU4hYG9flGA8zfKmKqSsbvaCqeVc/+aFQ64WHEm0trbavfjHG100VTqp6evAd8cd1Lz3vZSdfvpRs9o6XsRisSGtRRxOljVV0RNOMqPWQySpcfsLe7nt+T2cOKvGHnRCUGp1h4gQgnRHOwjBme0b+NELv8ejJUlu2zoug+RkwjCMkjBQJIQQh203uCxJzK0vI5rU8MdHtqvXEAKnIvPVty3hrEX1yAeRGGbUeqmvcLKxPYgBOOfMQWg66c7xs5lYarvF5XCVr0CwsztCSjdYObsmp/Ptcii8/5RZTK/2FOS45sOJfRLBEII1u/uY5xaEvv4/OJoaqbvmk8iHcXb8SOZw9b3DMbuujO+8Yzluh8KNb11Cqz9GXYWL71y63B50QlASZg8RSZLwrlyF7HCgIFCFAbJMzZXvLX2hFpiSNYPiIUkSDQ0Ndu9xQZJg/tRyoimdQOzgs2uGEGxoDfCnF/chZYXhg6EqMm9d3sjWzhBCgGvuHNB1tI6OcfnoNK0ZlNQMioPb7T5sG0OFgLUtPpprvMypO2CKSgLiKZ0//Hc3r+z1jUqFZqLR0NAwqO1+421LeG/Pa0gdbdR/7nPILlfplK8x4HK5qKystHsfdlRZosLtoD+SRJbg25cs57rzFlLmmpiqfiVp61CRZSrPP4/q974Xdfp01MZGaq66iuor3lkyFl1ggsHgoBmCEoVBCEFXV5fde1yQJInjmqv59iXLmFNXZr88iEhC4/89sJF1+/0jPmhBkSQuP7GZj5w2B1WWcM6cCQ4HqX0t4zKjl0wmCYVC45LWZCQejx82NQNZkjhvyVQ+d+58XOrAPt+hyDy1rZt71rZyJE/Odnd3D2i7ad2gsXsvU/7zEHXXXkvZiSeWJm/GSCKRIBgM2r0POynd4M8vtnDVra/wlQc2EkpoPPpGJz/993Z70AlBqfUVAMnlouG6z1P3h98z4/bbmPqF6zM2ZktfqQVFVdVBswMlCoMkSYdtA40EVHmdnL9sGuUudVgB1RCCf2/uoiMQ54qVM0Zsm1aSYHq1l4uPyx7Z63TiPW4Fie3bx2VmVpbl0ubFIiLL8mHpG0RWzeDkuVM4d8nUQQd2KLLEx86Yy9PbevBHU+PR1IqCddbbEII/rdnHD297CtexK6h+97tKguwhMJa+QTMEu3sj/GtTF8/v6iOS1HJtK6kZrG8N8MSWbnrCiTGvCGztCPHM9h5uvupE6itcCGBufTnP7JiMJ4BNIiRVpWL2bJwzZiA5nSVBtghUVFSU1AyKyOE4NMHKS7v7+ecbncOa50ppBg+t72D59CpOnTdlVAKMQLCxPcDN/92NhoRn1Ukkx0GYFYDqcILTc0TPzk1kPB7PqAWCQmAYgn++0cnT27oxDDHIRrIiS6yaXUuV18F9r7WiF7mtFYucCpIATTN4YF07SixC3bXXoJQdfDWlxNCM9tAEQwgefaOTT/z5Nf75Rge/fnInX39oEyktY3HgjjV7+e4/t/LQ+nY+euda9vRGxyTQ7uuPMntKGTNrvchZ+98OVSKcGL+TE0dDSZgtIKFQqLQMXkT8fj/aOB5BOpkQQtDW1mb3HjeEELza4uPOF/ehDbMZYktHkFZfjO9euhyHIg8SHoZDCHhlr48/PreX7kgK76qVpFpbMSLRogq0Qgie3tbNx/+0lr5I0n65RAGIRqOHRc0gnta5Y80+Hl7fgTbEl0q528HKWbX8a1MX4fj4PqMQmY+pQ6W9PXPqkyEMdry8gX09Id521dsoW7qkNHFziMTj8VFZM9ANwb82d/GNi5byqyuP5w9XnUh7IE6rP8bOnjB3v9rK9y87hp++6zguWDqNXz+1k1T2KO/RsGhaBXv6ooQSGkIIdCOzV2FlyZrB0Y+qqsil5Zai4XA4RjUTV2LkSJJ0WE9PkpA4ZnoVLf1R4qmhPwiPm1nDXR8/hVlTRj8bJEmwbHoVad1gV08UR0MDSkUF8Tc2FE2YFQK6gglafAk2d0XZ1D7xdOOOBhRFOSx9b2cgTlcwwcrZtTiU/Ok7lYyqwY/euYIq7/htUjOEYE9vhJ3dYbRDPLjB7XYDkOzo5JF7n6SptoyZxy0tHdleABRFGbR5UQiBpmm5nxVZkphW6ebVfX529kTY2hmi3K1SV+7m9f0B6stdNNd4cCgS5y1tYE9vdEyzqfMbKjhlbi2fv+t13mgPct0967l/XRtfuGCRPeiEQLnppptusntOGAwDkU4j0mkQIrOhaihhRoiMXVdNOxA2i6Zp3H777axatYqamhqCwSC9vb243W56enro6+tDVVW6uroIBAJUVlayf/9+fD4fDoeDtrY2YrEYbreblpYWYrEYuq7T2dmJpmmk02k6OjrQdZ1IJEJfXx8OhwOfz0dvby9Op5OOjg58Ph9ut5vOzk6CwSBut5v9+/fj9/txuVy0tbWRSCRQVZXW1lbi8TiaptHZ2YkQglgsRldXF0IIfD4ffX19eDweenp66O3tzT1rMBikoqKC1tZWgsEgqqrS1tZGJBLB5XLl4tZ1nY6ODtLpNKlUis6smaJgMEhPTw+yLOP3++nr68PtdtPV1UV/fz9Op5POzk5CoRDl5eXs27cPv9+fS9+ah1gslssD2a9Q093f3z9kHvx+PxUVFbn8qKpKZ2cn8Xgcp9NJW1sbyWQyl4dkMpnLgyRJhEIhuru7kWWZ/v5++vv78Xq9dHZ20t/fj8PhoKOjg2AwSGVlJS0tLfj9flRVpb29fVA9pFKpXNmb9SBJUi4PLpeL3t7eXFm1trbi9/vxeDy0t7fnjts068TMZyqVQghBe3s7qVSKRCJBV1cXsizn8iBJEn19ffT19VFeXk5nZ2eujbW1tREKhaioqGD//v2EQiFkWaa9vZ14PI6iKLS2tg4oH8MwiMfjuXT6+/tz7TQUCtHf34/H46GtrQ2fz4fL5crlwev1Diqr4fIQDofp7u5GURS6urrw+Xy5PJj1kKnjAN7ySh56vZ0FVdBYmXkfYrEYsiyzv7WNPb0hVKERDfQhDINYLEp3dzeqqubeNVVV6e3txefz4fV6c3lwOBy0d3QgaUnu2dDPFEeK6Y4EeksLfRXlMHUqSBJtbW2k02mi0UzcQ+XB6/Xm3OY75ff7c2lGIhFUVWXf/v386uk9PLejh/6YRlOViyVTMm1Z13XC4TA9PT25/qKnpwdFUeju7sbn8+XeAWtZRSIRvF4v+/fvJxKJAOTeAbMe0uk0sVgslwezLamqSk9PT+497unpwefz4fF4cn2R2+3Olb3L5WL//v2Ew+FcOrquk0ql6OjoQNM0IpFILg9+v5+enp7c++rz+aiurs6902ZfFA6Hc+lEo1HIzv4lk0kMw6C9vR1d13P1QHblq6enB6fTmXvXHA4H3d3dBAKBXJ9n7Yus/bY9D9Z+24zbmgdrX1ReXk5HRweBQGDAe7w3BA++3s7VJ9RS43XQ3t5OLBbDMAw6Ojpy71oq3E+N10EgEKCntyfX59nHHjMPw409ZtzWsccwjAF58Pl87G3r4oaHt/O3V9uIRUIsbaygO5uOdewx68Heb5tjnBAiYye5u5uev9zF3YFyqmZM5eLjmgj4Mn2Hw5HJu9mf7t+/n0AgUJCxx+VyHfLYY+bBTMccP91uN319fQcde8w8mGFGOvZYx+mhxp79+/cTjUZxOp25sae3t5drrrmG+++/n4ceeoh3vOMdAz7Wpld7+N0zu3hpj4/7Xmvj0uOms2JGNWt29xFP6lx4TCOKLKNIEn99ZT+XHNdEhXt0H1ISEsc0V3H8zBrOXtTAmQvruWLlTKZWuCbkpJIkJur2WiGIvvwy/r/8FZFKodTX0/CZT6PW1+dVNhe6Tv9tt+O77Taaf/kLvCedlLsWj8c555xz+N///V+WLVuGJEkIIQb8zcVj+T9fmOHcfr8/Zz7KHqaQ6QznzudncrAw1utkZ+uGC2P3y+c247H7jzQdq7u7u5va2locDkfe6yNxW/1GEmas7nx+JgcLMxp3Pj+Tg4WxXhdCsHv3bhYsWDBkGLvfaN3C1h5MtxmmM5jgw3es5arVs3jfyTMH3BdKpLnyjy/z7lXNXHXK7NxGm3zp2NM84Acg+MBtr1JX7uRHFy2i58YbSfv9zPzjzcguV944RuLO5wfQHohz2e9e4MLFtezuDqG6y/jjVSfiUKRB4fOVid2dz890m/fa/e1uq99IwozVPdQz2cPY7xutWwiR+1h0uQ4MtPb0rW57HKN1CyEQwC+e2MkTW7t55NOnZ9rkMOls6Qjxiyd38pN3HkuV1zng+nDp2P1G4jYMwZ9e3Mfv/ruHNy1uYO0+H79893EsbapEZAUVSTpIOkJgpNOkdu2idf16qiNRfHf+Cc+NXyO9ajVz6ivIZHmYOLIcLMxo3Pn88rkZoh5MP/N6vnvt7nx+o3Vb/az+kUiEWCxGQ0NDzs/8SCQ7c1tWVpbbL6LpBl9/eDOr503h/KVT6Y+kuP6e9XzrkuU8s72H11r8/Oa9J+BQZHrCCa669RXu/PBJNFZlZteHQwCxpEZvJDnkYpUsScya4rV7H3YGS4UTASHQ+vro+H9foerSS2n6wfdRa2vo/uEQp2oZBsldu4m+9BKSLCOG0Ks0d7xKkpRzW/3s/+cLM5zb5XIhy/Igf3tY+//5wozVnc/P/v9QYazX8/nbw9j98rmHCz+SdKxuj8eT+1DId30kbquf/f98Ycbqzudn/3+oMKNx5/Oz/z9UGOt1WZZzdlCHCmP3G63bTMfuNv+vLXPx+fMXsDq7scu8biBx55oWgvE0b18xfdB9w7kH+mX+v/7NC/nIGXNRHA6cs2Zi9PZiBIN5wo/cnc8PJDa2B4mlDM5f1sgHVs9mW1eIpKbnDS/nKRO7O5+f/V67v91t9bP/ny/MWN1DPZM9jN1vtG5ZlnE6nTlVA+v1gz3LWN3m38tOaOabFy9DkWXkYdKRZBmPU2VbV5jHt/YMvn6QdEbrRpKYXVfO585dwDcvXsafPnwyixorMQS8vMeX3Yg2fDoIQfif/6T1459A/8EP6f/1r3HOmU3TOWcwv6ESRR7Zs44kzGjc+fzyuYcLb70+VBh7eLvfaN1WP+v/DocDt9s9yK+mpoaamppB9tU1Q7CzJ8zpC+pwqQp1FS6m13hY3xpgRq2XzmCCpKZjiIzFgyqPA49jZKKeEIKX9/r40O2vcvXtr/CB217hqltf5oO3v8LV2d+H73jFftuEYGQ5HG+EILF5C5LDQdkpJ6NUVVFx/vnEN25E6x1sFkLz++n5yU+Y8sEPIGV1ew4Hasl0VFEplW9xMfXiDhcep8KFyxuZW3/A8DzAvr4of3ullYtWNFHlcQypaTRSjp9Zw/LpVciKjGvhIoxIBL2vzx7skNGF4PmdfTRWuThx9hRWz6/nzx8+mfJRLveVODiHQ2dWliTm1JWxas6Ug7ZJCWis9jCvvpyH1neQTOeZlCkwZy9u4H0nz8LtUJhe40GRJZ7a1sO1f13Hj/+9nY5g3H7LALTubnp++CP0/n5Ip9F1g7+lG/jRU3swCrKtrATZSTbHKA78kCWJKo+Dh15vp6U/ymstPlr6Y6yYUcUpc6cgEDyxtYcd3WHuXLOPMxfWUe4aWfyyJHHSnFpuvXolt1+9ip9esQKXKnPbB1dx+9WZ3y0fXGW/bUIwMXVmDYPY+vVo3d1UXXIxkqIgyTL+u+6m4vw3o9bV5YIKXSf02GM4m5ooO/10AvfdR8U55+CcMSMXRtM0br75ZmKxGG+88UZuudrpdBIOhwmHwyiKQjAYzOkn+Xw+otEoqqri9/tJpVI4HA76+/tzOoKBQADDMNB1nUAgkDPqH41GURSFaDRKOBxGVVUCgQDRaBSHw5FLx9Rtsro1TUPO6tqk02l0XSeYNaicSqVy7lgslltaM/NgPms8Hs/lIR6PI2f1j5LJJIqi5OI2DCOXB03TcnHH43HC4TCyLOfSMZ/b1AUMBoMkEglcLhd9fX3EYjEURcGftThg5iGVSmEYRi7udDpNMDsLFolEcnpI1nrw+/25ejDzoygKbW1tCCFy+dS0zC7LQCCAruu5PEiSRCKRyOmPmvXgdDpzeVAUhUAgkCur/v5+Yln9THse0un0gPIx6yFfHszyMevV6XQSCARIJBK5sjfz4/f70XUdkVVRMXURQ6HQgDxY03G73QPqwe/35+rBjFuSJAKBAOl0GkmScvnJ15as5WPq25n5sbZZMx2n05krq3x5MPX4zLK31kMoFCIajebyYL4nZh07nU7W7+nmmR39NFU6iYQCJJMpHtrYwwu7+vj6hfMoc0gEg0EMw8iVlbWdKopCOBzO6aD5/f5cOmY9OJ0u/vbSHtbs6mHFzGqCd9+N4+STkKdPH7YerHkw9YvNPsJa3+a7JssSezp6OX1eDbNrXPT0dFNf5UXTdILBAEKIXNzW/kLO6uma9R0IBAbUdzKZzNVDMpmxjhAIBNCyK1L2PFjrQVEUQqFQLj6zrOx9kZmOmTdTH9fe5xmGkTsQQlVVYrFYLh2z/Xg8nlw9mO+X2ZbMuK3t1ExHCJGLm6xxeTMd67sWyup552tX1n47kUjk3g1rHkRWn9JsP2Y9WPsil8tFIBAgFovlyuTOF1t4aU8/zV4DQ8tYKfD7/QP6ViFE7l1zKBK+aJJnd/Rz5sI6FC2e64uChzj2WPPQHkzyrX9s5Zg6Fbdz4NhTKaeYWiZzx0vtPLG1h/nVMnUVHvz+TD9n7fPSO3YSfvhhyK6GaorKzcvfzszZDSyZouLM028PN/aY5VaIsScej+NyuQb1RdY8FHLsOfBOHxgfzHqw9q32/sJsS8ONPV1dXfiz+vZm3NZ60HUdp8UGuCTB0qZK7n61lTvW7GPtPj+fPGsuK2dPwetUWTW7lluf28M9a1s5fX49Hz9zbsbyy0E+uEycqky1x0mN14kqSzzyRgefOmc+tWUuarxOqr3OEcc1nkxMYVYIEtu3kdixk6q3vx1JUTBiMQL33kPV298+QJhN7txJ4O57mHL11UhA4N77KD/7bBzTp+c2gWmaxh133MEFF1zAggULmD59Og0NDbkGoihKzq2qKk6nE8Mwcm6yO+lVVUUIkXObywFKdunb4XDgdDpz90nZZQN73KbbkdX9tIY347ammS8dWZYHPLdi2RFpPoeZB7u/mX6+uJ1OJ3J2CcaajhmHvazMPDgcjgHpDJUHObuMYuZXUZTcLnozbkmShiwrj8czoE6sZTJUHuzx5UvHrIeR5MGejr0erPENFbc1D9Z0lOwMkzUP1rKyp2PeZ5aP6bb6W+O258GRLR85a7jb6/XmzQOjqG8zD45sfQ/1Dih52uyzO/u45fkWzl3SQLU3k4aOzPEzqjhlbi2qOjAP1vKxp2M+q5mmWd8Oh4O/vrSfJ7f38Z6zFxO56y5cCxfgPfZYyNZrvnow82OvBzMPA8vKgaKqLJ5WwYJpVTidmXvXd8b41qPbWTm7lrpK76A6NtOx1rcQYtj6trZNsx6sebDXg70t2dvpUOmYz2WWvem2lo+1HszydmV1ka3vgNVtfW5r3PnKPl/5kK0Hc6nWngf1IP22NR1rPeTLg1nfibTOb/+7j0Bc523HTMPlzN9fmPVguhurPDy1vY+Vc2qZXpVRm7Km47C12dHkQZJl4imDz92zEUVRuOjYabizfasZn6rILGys4tQFU9nZHeEvr7bzluXTqHBn0rbmwVFRTuSJJzACAQB2VzXx2NLz+MQ585lZWz6orMz7nEOMPaZbHWLscdjq2Fon5Om3zbKyxm3PgzUd2TL2yHneY2vcpv9QebA/d7625Bjh2GMYBk6nE683o4dqz4MZv4kkSdR4nbzlmEauPGkm71o5g/kNFaiyhCRBTZmTtx3bxJUnzeLkOVNwqCMXZE2ymipEUxoPr2/nfafMytiazfpPRCbmBjDDIPzMM3T/4IfM/fvDyE4nie07aPvsZ5h5++04p2dP8ZEken75K4IPPYRSVQW6Trq9HaWujum//AWeJUvAsgHs1ltvZenSpUhFqo1IJJLT6yxReILBIOXl5aXyLQIie5xtY2Oj/dK4sqE1wEfufJU/XrWSFTOqIdexZox2F4o71+zj10/t5K6PnYzjazfgqK+n8aZvIGUHq0Mlqenc9vxe3nZsEzNrvSSTSZLJJNv7NT76p7X84PJjuGDZNOQi9UWTjXg8PkDwKCZCwH5flKtvf5X3nDSTT5w51x5kSHRDoOkGsiyhyqMXMoZDNwQPr2/nfx7axC/eczznL5k6ZPwCSKR0NrUHOHF2LYYhiKV0ylwqirm5UtdJbN5Mywc+iNA0/rbgTaw59RLu+Ohqptd4Cvo+TmYSiQSpVIrKykr7pXFHZMcCzcgYKO4JJ/nwHa/wyKdPz8lNkpQ5pnmiMfGeiExpuZcsQcTjxF9/HaHrhJ9+GveSpah1deiRCPEtW0AIqi+/jOk//hHTvnoj9ddfj1xeTu373oezudkea9ExlzVKFId4PF4q3yIhhCCS3T17OJldV4YsSbT4omzrDPHFezewqydS8IHz2OYqNEOwqyeC58QTMyeB5dtcOgaEgG2dYW57YR8v7u6H7OpQIpFg0bQKasucrGvxl04DKyCmKtB4IBC09McIxtOctfDAKuFIUGQJp6oQjKXpDMaH3DE+FpKawe0v7OOMBXWcPn94PV4pq6O+as4UZEnivtfauOz3a7j71f0kswb2JUki3dWdOdHyW98mevG7aK4rp6HSVfD3cTJj9g0TASEEL+zq4/LfreHS377AR+58FV80xTuy/1/62xe44g8v2m+bEExYYdYxbRqN3/send/8Fvuu+gDhp56i8Zs3ITudpHbvoffnvwAhcE6fjveEE/CeeCLe41agVFTgXrwIpXzgJpLxwFyiLVEc7Ls6SxQOSZKor6+3e487bofCvPoyNrUH+esr+3mtxc/UysJvTFs0rYIyp8K2rjCeE04gvX8/elY381AxhOClvf0YhuDcJZljQJ1OJxUVFXidCm8/tpE1u/uZiItiRyput3tcZmVNXt7bz5y6MubUjX6cCcRTfPIvr/HT/+wgrRfm41wAe/siJNI6P7liBR7H6PrJy06Yzslzavneo9u44d4NhBNptGQK35//TPmZZ9B45un84KpTuPmqE3FOwFm5IxnXKI+zLSayJHHa/DoeuPZUHvrUaTzy6dNZ8//O5aFPnZb73fvJ1fbbJgQTt1VKEmWrT2HWrbcw7as3MvOPN2dUCWQZ5/x5NNxwwwHFDlkGWUauqKDpxz/CteTwHLFnKoWXKA6lme/iEovF7F7jjipLXHnSLMpdDh7d2MUX3ryQcldGf6yQuFSFb16ynHMWN+BsqEeurCS24Q17sDGhC8Hf13dw+QnNVHsyApa5IUuWJS45roloUiOcGN+jTY9mNE0bt75BQuKtxzTylbcsRs0uyY+GCpfKKXOmsKEtQG8BjjcWZJYDFk+r5K6Pn0KZa/RWXxyKwo1vXcL3L1vOju4wH75jLftffp3Uzp2Un3sufeEYupiYy8tHOmbfMFGQJQmHIuNU8/8mahuYmE+VRVJVHNOn4znmGNTa2txhCUp5Oe5FCwcJrJKq4l66FOUw6Z6YO01LFAdzR3WJwiOyJ5sdbhRZ4rylU9nSGWJ2nZfT59fldPgKiSJLnLt4KsuaqpDKylFqaki8scEebNRkVAxCtAfivHNlM0q2z9J1PbNrH5hTV84jnzmDKk9mU0iJQ2e8hFkBaIbBoqmVnDirdkxtU5Fl3rVyBh2BODu6QhiH2KfpusEz23vxR1NMKXeNSQ9bkqDMpfK2Y5v43w+s5NxFdThfXYPm9pBesIQ/PLePG+7dUFC1iBIZNE2bUMLskcqEFmaPNMrLy5HH2dbhZKKqqqqkZlAkJEk67Ju/THzRFP3RFO9ZNZNqb/EEvoSm87tndvNiVwK5pobE5s35D2UZJdMq3fzo8mNprvHkvrddLhdVVVVIkoQiS5S7VdK6gV5SnC0IXq93XNQMDEPwwLp2fvHkDqKpsenoShJMr/Fw+oI6/vLy/sxmm0NgY3uQGx/cyOutfvulUSNLEjNqvXz85OmkNmzg7/Ur+MyTnfy3Jc78htGrVJQ4OG63e0Js/jrSKUleBSSWPTe7RHGIRCKl8i0SQgh68xxIcjio8Tr4zDnzeeeJzblja4uBYQhe2evjoU09yM0z0Pp96MFgZnp1jBhCUFvu4rylU/E4D6hHpFIpIpEIQggMIXh6Ww/n/+xZdnSHB9xfYmwkEolx2QCW0HQe29TJprbgmGZlTSQJrlw1E1WWSKbH1qcJIJbS+PY/tjK/oZxT549uM9pwpNra0Pbu4aJPvgtNCBI6rJpTW9T3cbKSTCYnxObbI52SMFtASoJWcTGN85coPJIkkU5PDB1Or0vlrEX1meMy7RcLiFOVmd9QzqaOEMnZ8zCiUXSfzx5sxBhC8PKefm64dwNp3Rjw7EII9Oysr4TE3Loy+qNJdvVEDkV2LpHFMIxx6RsCsTQt/TFOX1B3SBuhzI02v3rvCZS5xrbaJITg6W297O2L8L6TZ+J1FEi3XAh8t96Ga8ECFp12PL957wl849wmjpleVdT3cbJi7RtKjJ2xv40lBlFSMyguJTWD4jJR1Ayk7GBfbGRJ4sRZNQTiafqnzcaIxdD6M6a0xoJmCO55rY2ecGLQJglTzYDsrNzMKV7m1Zfzyl5fSdWgAHg8npyh+WIhBHQGEvSEErxpSQOHOknpVGViSY3XWvzEUqMXZoSAxzZ1cuaCes5Z3GDfQjI2hCDd00P48ccpP/NMVKeTqZVuLjx+TlE2YpbIqBmYfUOJsVOSvApIyQ5qcSmpGRSXvr4+u9dRjSxJrJxdQzSp0VVRh+Txktq1a8xqBu3+OC/s7OO9J82yXyKdTg9YSpSQuOyE6azZ3Vcw80yTmWQyWfTZLUMIntnRw7yGcmbWlo3aYkA+OgIJPvWXdezqCWesEowQkf0o+tKFi7np4mU4C/SRLwyDyHPPITkceE88Ibfpuv8QPvJKDI+pglTi0CgJswVkPJa5JjNCiFIZFwkhxKT7UJAkmFbp4WtvX8qKOfW4ly0l9sbGrK2j0fPw+nYqPQ6Obc5s9LIyqO1KcPaiBmrKnLQH4tagJcbAoPItArIs8d6TZvLNi5ejFECQBZjXUM68+nL+9GLLqD6i/NEUu3sjNFd7qClzFmZWlszpm9HnnscxaxauBQty3sUu28nMeLTdyUBJmC0gFRUVJTWDIlJTU1P0pcTJiiRJNB+GU/MON5IE71o5gxlTynEfcwyJN95AjEGajaU0Xt3nY/G0CqZVuQfpFrrdbmpqanL/S0BzjYeb338is6ZkzmQvMXbKyspwOotn+YLshsGGSjcrZlQVTHh0KBJvOWYa/9ncRVcoMSJ5Nq0b/PHZPVx39wbShfwAFQIjmST28stM+ciHkVyu3KWmpqYBQUsUDo/HQ3V15ujuEmOnJHkVkGAwOOlmt8aT/v7+cdmxPFlpaWmxe00KokmN3z27h86GmaQ7OzObwEYiVVjwOBR+/M4VXHf+wkH6smRVkOxLtQ5Fpsyl0hGIk0gXd4n8aCcSiRTVVqcAHljXxs8f305ijNYH8iFLEifMrMHjVHlmW+9BP6QEsL41wP3r2rjqlJl529pYEYZB4L77kcvLKD/rLCTLxExra+uAsCUKRywWw+8/dLNqk53CvQklSpQ4Ypmsy1wCiKV0/rGxi6e6deTycuKbN49KmBXZzV/TqtyjtsW5Znc/n/y/dezuLVk1mMikNIMnt/bw0m4fTqVA07JZFjSU88HVs1g1p9Z+aRCxpMavntzJjBovb142bZA6y6FgRKP47ryT8jPOQFLVQYcSlSgek7X/LSQlYbaAlKwZFJfq6uqSNYMiIUnSpFxKlIBqr4PGKjcv96aguprExk2IUaywxJIal/72BZ7Z3jOkQGruWLYLH0sbK+mPJtnUETrorFyJoSn2oQnhRJqW/ijnLW1ALeBsKIDLoXDNOfOZ31A+rBUPIeD1/QG2d4X52BlzqPE6B6mzHArxDRswQkHKTj9jwKwswLRphRWcSxygZM2gMBT2rZzklHbbF5dAIFD0HcuTFSEEnZ2ddu9JgcuhsLSxkh7hxO8oI7F1K4ywnemG4L87eukOJaktc+WdzBKGQTwUItDTg0inB8z61pY5OWl2LU9u6R5SEC5xcGKxWNHsJAsyJrk6gwneckxxzNcJQ3DP2lb+9OK+IU8EkyQ4prmKmy5exrlLp9ovHxJC14m98grICt5TTh40K9vV1VWaPSwSiUSCUChk9y4xSkrCbAFRVbX09VpEHA5HqXyLhCRJuN1uu/ekQAJWz5tCVMiEpjaj9faiR6P2YHlJ6Qb/3tzFjBoPs2oHb+QSqRSBBx6g56MfI/Du99D2uc+T2LYtd11VJC5cPo1X9vkIxdOludkxoihKUVfF1uzuY2lTJY1VHvulgiCAlv4o//vsHgKxwbq/uiHoiyQpd6lcuHwajgLnVaRSRF9YQ83734dSVjZImJ2sfcN4oChKaWNzASjsGzHJ8Xq9JWGriFRUVJTUDIpIXV3hjsM80lg5q5YfXH4sy849Fa2/H2OEdh+DsTQb24K8edk0KjyDl7kT27fT+6Mfk9y8GcPnI/LMM7Rfd11mhja7AWhZUxVVbgfbukJjNgs22XG73UUTCCTgg6fO5lfvOR7HoZ6UMASSBKfOqyOU0Hh5j29AMxACesNJrrrlZZ7Y2o2EZJc1D5noSy+h9fQw5QMfsF+CSd43FBun00l5+eh07UsMpiTMFpBQKFRaBi8iJWsGxUMIMal3LHucCmcvmcaUE49D9/vRg0F7kLxEkxrlbpXLTpiOkkfQSe1rwbDO8hoGus9PqrUtp24ws9bLY58/g9Xz6goupEwWotEoyWTS7l0QDCFwOxTqKlzIeeq4EMiSxHEzqqktc/L8rl4Mi6qBZhjc+vweoimd42dWZ6TrAiJ0Hd9tt+M+9ljkIYSqydw3FJt4PF6yZlAASsJsASn2Utdkp6RmUDwkSSq6nc6Jzp6+KF98oZ+0x0ty504Ygf77nPoy7r/mVBoqBtuWBVCqKsG6MUmSkNxu1Cm1uaVcWZZQFZn+SJJU6TSwMSHLclH6Xt0Q3LlmHx+581X6IsURlk3KXCrvP2Umb7QFBxxxvG6/n7tfbeXas+cxpcyVt52NGSFI7d5NcvduvCeflLFikAeXxeZsicIiy3LRVhUmE4V/+ycxk10YKDZut7skzBaRiooKu9ekIpE2WLPHx+baOURf34A4yCpLmz/G9q4wspR/2Vek08TXrwchkDweUBSUmhqm3vgVlMrKAWH39ka54uYX2dk9umNNS2RwOBxFEWY1Q7CuxU8wnqbMWXyB44oTZ/D1ty/NzfIn0jp/WtPCjFov5y2dOqy1g7EgDIPoq6+CrlN+xhmDdGVNSsvgxUNV1dLHQgEo/Ns/iYnH46Udn0WkZC2ieAghBhn1n2zUljmpr3Dx+pR5RDcML8waQnDPq61c+5d19IQHz9iJdJrA3/+O/29/o/7zn6PxjttRL7kYyeXCu2rVAKFBAubUeYkmNF7d6xuwxFxiZCSTyaKoeKU1gy2dIS5cOg2HWvzhstLjYOXsWqJJjbRuYAio9Kh84c0LqSvPby3jkDAMwk88ife003DOmGG/msPn89m9ShSIVCpFdIQbTksMTfHfzklEaeawuHi93qLMvpTIqBlM9iMVq70OZk0pY4e7jkh3L1pvrz1IjnhK55V9PpY1VTK10jarYhhE/vssvT/9GVWXXkrN+96HZ8kSGj77WZTKSnx33jkwPKDKMuctncq/N3cPaZqpxNA4nc6Cbw4VIjP73hFI8NZjG1HGqW/f0hnik//3GhtaA7hUmW9fegznLCqsKS7Iqhi0tJB44w1qP/iBIVUMgJId1CLicDjweEZvJUPYfkNdmyyUJIMCUhJki0upfItLoYWBIw2HIrN6fh0+bzURyUly+w57kBzt/ji7e6N8cPXsAUu/QteJb95C1003Ubb6FOo/+1nkrM6sWlZG2WmnErj//oygbF3FkeCcRQ1s7QrR5o8d8C8xIorRNxhC8OLufo5trqK+ogizokNQX+5ie1eYrz28mXvXtmIIUZS0habh+9tdOGfPwjVnzpAqBmT1OksUB0mSRl2+4USazkB8wC8Qy1hI8cdSA/z9sdSksGE9uhIsMSwlNYPiEo1GS2oGRWSyqxnIksRbj2nk+1euYkqlm+T2A/ZgrQjgzhf3MbeujGOaLTNWhkFq9246vvIVXEuXMvXGG5HdbpAk0uk00XicinPPQ6TSRJ5/fsAGMwmJ+VPLOW1+HeF4yWLHaCmGmoEsSVx8XBM/uPzYvJYqisWUcifvOGE627vD7OgOF3bDlwWtr4/YmhfwrFyFfJCZwdJu++IxWjUDATy7o5fvPbqV7z26lW//Ywuf+dvrPLCuDSHg5v/u5qsPbuR7j27l+49u5aHX2yfF6YIlYbaAlNQMiovH4xn1F2yJkTPZ1QwkCeor3Kw6dhbOqkriu/fk15sVAo9D4Z0nNuMwjzYVgnRXF13f+Q6S08G0b3wdtaYmN9tlLiW6ly/Dc/zxhP756IAjcyUpY6Lrl+85nmOaqybB0FNYiqFmEEtpOFSZ2VPKCr7xajhUWebjZ87lvMUNXHf+ItRi9HlCkNy+Ha2vn4rzz0M6SNlV2jYsligco1UzkIALljfykytW8JMrVvDtS5djCMGZC+sRCHojSa48aSY/vmIFP75iBVetno1UtE+iiUMR3pKJixCiqDOn5sxAMdOYzOi6PiHLdiI+01hIpQafPDTZEAie2xvkF42nk+ztx4jFBqgDCJGZGbnxbUsytmWljKceCtF50zfRevto+v73cTQ1QVYIEUJgGAa6riM5HNR/7nPEX3+dxLbtAwRaWcoMOa2+GPHUxGnrE+U5hsPsGwr1rEIIHt3YyUfuWEt/NDmuHxeSlFE1+O37TqDcpQy3+j9mhK4TefY5HM3NeFesGFbFACjaUcElyPUNVoQQ6LqOrusYhjGoXauyhNuh4HYobGwPMrXSzcxab+ZADSR80RS7eyJohkCWshLwUY5y00033WT3PNrQNI077riDc889l7q6OpLJJLFYDEVRiMVixONxJEkiFouRSCRwOp2Ew2Hi8TiyLBMOh0mn0yiKQigUIp1OI4TI7a7XdZ1IJEIkEkEIQTKZRJZlEolELp1IJEIikUBRlJyBbzM+0z8SiaBpGpIkEQ6H0TQNXdeJRqMIIdA0Lee25iEejxOLxXLPmkwmcTqdhEKhnIASiURIpVLIspxLJ18eyJ4VHYtl9PaseTDLypoHh8NBMBgkmUwiSdKgPFjLimynaC6pxOPxXHzWPJhl5XA4iEQiubi7u7tRFAVFUQiHw7kXPRKJ5F58M25z6UaSJOLxOIlEAlVViUQiufo282CWlVlvZtkfrB7M8rHmIR6Po6pqLj5rWVnrx3SbnZjptsZtXX4y43Y4HESj0QFtM5VKoapqzk22vtPp9IB0zLKy5sEsn1gsRn9/Px6PZ0Adm24zPmvezPo2BQl7PUiSNKAeotForl5Nt1nfZlsy24y17M3yMQwj99yGYeTakiRJufdBluXce2zGZ5a3+Q5Y26y9HkLhMNs7Q9y5J8XJ8RYaz1iNli0LSZIIR2M8u6MfWZZwGGkSyQRyOk3b3/5GaNMmGq+/Dn3+fNK2d0DTNHw+X8YEj9eLf9s2knv24jj+eGLZ54jH42xs6eWDd6zj2EYPlQ6BM/sO5Ktve19krwdrHZv1IMvygPZjlpXZfqx9kdnnmWnm6y8MwyCVSuXK3uwvrO+x2Z9a6zuVSuXiNgUlex6EELk6FkIMSMfsi8z8hEIhXC4XsVhsQL1a+23ru2HNg7U/NfMQjkT5v1fa2NcX5l0r6nA5nbk2ay0TMz/W/tSan3z9hb0/lfKMPYlEAoc6sB7s9W3PQ756MOvSfO6oebhEOEzbX/6K+5JLKFu6lEg0Omyf19XVhSOr+22Wlb3fNt81a39q9hHW+h5u7DHjHqqsrHnI9x4PNfbY68HsT+15MMvKOq9UCvoAAEpASURBVPZY25IZt7U/tbqxjT2J7Pgw3NjT399PJBKhrKwsl4dIJMIjjzzCli1b2LFjBwsWLEDJM3uuG4IbH9zEmxY3cPzMGgA2tQdZ1xLg5b0+bnt+L16nwoKG8nFVlTkcSEIU6FN2AhOPxznnnHP4/e9/z/LlyyH7NeRwOHKdp6IouQHN4XDkOiRVVXNCgaqquQ5MlmU0TUNRFCRJQtM0DMNAzs7GWONWVTU3KOdzCyFwOBy5F1FRlFyakiSh63quIZtukZ3tMdMx3eYLZ82DNW9mmlJW6dyeB1VVMQwDwzBybmserM9q5jOVSuWeW9M0ZFkekAczHVVVEdkvTms6+epBCIHT6RxQD7FYDIfDMaCszLitZZUvHXs9jKS+D1YPQ+XBjEOSpLz1bU/HWg/WuO15MAwDp9OJlm1rB6vvkbQla9ypVAq32z2m+h5JPVjr1Yx7JPWQr3yGyoO1vvOVyVB5ULLvQFrT2NkT5eN3ruXdG//Jx7/9KZxz5qAbBoqqEo2nePMvn+frb1/GeUvqEMkk/t/+lsCTTzHt61+n6pST0YQYEDfZTR7JZBKXy4UkBP333kfgttto+tnPcC5elHvueErj6jvXcfyMSm5480Jc2XfAmh+zvu15GKqs8tWDWcbWNmuvb2v7yVdW9nTMd8Csh3z1aq8HM25r+8mXh6HSMZ9V0zScTidGdqbbTMd8B+1lZc+DyPanZj3EUhrv+d9XePuxjXz0tFmD+iL7+z2SPFjbqbW/yFcm1vqWRzD2WPNgjdt8PvO5TXfor3+l/++P0PyLn+Npbh5U39b3WMkKfKYqhz0daz1Y82CtB2v61rKy5sFaPqZ7qLZppmOvV3mIsedg9WBts2YfNZr6NstKzdNv2+vBXt+JRALDMPB4PLnn1jSNPXv2QHbz3aJFi5Bt6iaGEGzvCvP+W17m/z56MksaM6ogkaSGKksIYEdXmC/dt4HbP3QSTdUjV2U4EplUwuytt97K0qVLkQ6ypDJWwuEwXq839+KUKCyBQIDy8nLUYUzIlBgbQgg6OztpamqyX5p0hOJp3v2HNcxe9yzffcdyat9xKUgSuiG4f10bP/vPDp74wll4JYPggw/R+5tfM+VDH6L2fe9DGsL4eSKRIJlMUllZiQSku7vZ+853Unv11Uz50IdyOou6IfjVkzt56PV2/nP9mbjUUl8yEmKxGKqq4izQwTVbO0N84NZXeODaU5lR67Vfzo9hkO7pIb5hA5Ik4z72GNT6+oPqo443RjTK/o99HHXKFJp+8mPkIdqslc7OTqZNm1a0sXMyY/YNdvNnpmg2VJnrhuCW5/awZnc/f7xqJS7HQGFXAJpu8PZfP8/v3ncC8+qP7oMvJpXObLExv6hLFIdkMlkq3yIhhMgtwU12KjwOlk6vorN8Cr5163P+SU3nt0/v4syF9bhkCP/rX/T+7GfUvPs91F511ZCCLNkZoWQye7iCJOGYOpXqyy4n+OBDCNMfUGSJE2bW4I+l2NYZnhQmdQqBll2tKBQPr29nXkM5DZVu+6Uh0UIhWq/9FB03fIn2L3yBlve9n9TeffZgh5esbdl0RwflZ589IkGW7MdCieKgadqBvsGCJElDCrJkZ2af3dnLp980H4eaCWcIQVo3SOsGmm6wsS0IArzOifVBVQxKwmwBKSsrG7QUUKJwVFVVlWa9i4QkSUydWgTD7EcgEvDh02bzyVky2isv5z6g1rcG6YukOGthHcn16+n9zW8pO+ssaq/+IFJWn3AoXC5XZlbWMjhVX/YORCJB8O9/HxB2XkM5bzmmkbRuTAqTOoXA4/HgOEgdjIbrz1/ET9+1AqdprWIE9P3mN6S2b0ekUoh0mnRHB8FHHhlggu2wIwSRNWuQHA7Kzz7LfnVIGhoahhWsSowdt9s9amsRQkBnME4orrGiuTpnbSOpGXzsT2v58v1v8KX7NvCjf2/jE2fNpb58ZB8tRzIjf1NLHJRoyQ5qUQkGgzldoxKFRQhBT0+P3XvSsqSpipOPnYXR24PW0wNCsLypkhvOm8+JIkDbtdfiWrCAxm99E6WszH77IJLJJKFQ6MDKgiThaGrCvXQpgXvuxYhEclYTmqrdfPfS5Zwwq2ZcTUIdycTj8ZyO46Egssu3siTRWOk+2Cb/ASQ2bR64ciQE6fb2CbWaJHSd4H33U/nWt6CM4lSvnp6eCZWPo4lEIkE4HLZ7D4skwfRqL/d8cjWqcqCRuh0KN1+1ku+94xi+f9mx3Pmhk7jkuOkoo/goO1I5+nNYokSJgyJJUmmwsvG41MAD884ksWMnum7gdchcuaiSxA+/i2v2bBpu+GJmmXY0Eo8Fyemk8qK3o/X0EN+8OSfMypJE2hA8saWbWKr08TaeCCH4+4YOPnLnq/izJyqNlMq3vw3JtjIne70wUT7ADYPoSy+hBwJUvOncCafLO5kZS9+ryBIehzLgg1cCXKqcM9vlcigo8mSwMlsSZgtKTU1NSc2giNTX15c2fxWRefPm2b0mLUJAr6uS++acQWzXbja1B/jJ3zfQ+slr0Hp7mXHzH3DNnDliQdbr9VJXVzdoqbb8zDNRpk4l+MgjAwa0tGZw/T0b2NQexBjDQDfZqKioKMjmL8OAF3f30RtOUu4ahbAnBM7Zc5AcDuTycuSKCpwLFhB67DECDz+MSKdzHyuHC6FpBB96GOesWThmNI+47QLMnj3b7lWiQJSVlVFXV2f3LjFKSpJXAQkGgyU1gyLi8/lKagZFQgjB/v377d6TFkWWWNJUieb2sqUvwc//s51XH32WZHs7jd/9Dmp1de5QhJEQj8fx+/2DZmBkp5MpH/4Q4f88TrqtLSfweJ0qx82o5r7XWtGNwysEHQlEo9GCqBkYQvDqPj/vPLEZdaRLs0KgBwL0/OQnlJ1+OrPvvps5Dz3InPvvo+a9V9Lzwx/h+7//G3BAxuFA6+0lsWULZaefhjJKHc22tja7V4kCYfYNJQ6NEb6tJUaCfaAqUVhMm30lCo9pJ7HEAZq9CmWK4ME3Olm7o4sVsU5m/uJnlK1cOSpB1iTvh64s4z3hBNSGevx/uwuRs0sLp82v44mtPYQTGb8SQyMKcPqXIQR7+iJ0BOK8/djGkesrC0HoySfRurqoufJKXHPn4GxqQnY4qP/0p6m9+mr6fvNbfLffjpFI2O8eHwyDxM6daF1dVL3jHaNWMcjbdksUhEK03RJHgjBrGJnz0YerbCEQup4ZCIYLV2RK1gyKS2VlZcmaQRFpaGiwe01ahKbhevAuqnvaeaZhGbqAldF2vIsXj0mQdTqdVFRU2L0BUKdMoWz1qUSffx6trw+ywuyxzZkNOq+3Bmx3lLDjdrsLooK0qT3I8TOrqfQ4RrYKLwR6OIzvttupeNtb8Z54Qqbysj9JVZny0Y9Q94lP0P+/t9B/620Yh+HYaKFpBO69F++pp+JobByVigFZFa8SxcHlclFefnTbgB0PRt8rjyN6MEjwH/+g7w9/ILpmTV69I5FKEV27lv7bbqP/lluJrV2bOU/9MGAez1eiOJSsGRSXrq4uu9fkRddJPvoPPrLhIRb697PI18KMlq1EnnveHnJEmNYM8iGpKjXveTfp7m7imzaBYSBJEoumVbBqdi0emzH0EoOJx+O5E5bGioTEpcc3c9vVq3CqIytzkU7Tf8stiGSSuo99DMmutytJyC4XtR/5MFM+8Qn8//d/9P32d5kxahwnXpJ79xJf+xpVF188SG97JHR3d9u9ShSIRCIxZN9QYuSM7I09DIhUivYvfYnEli14jjmG/jv/RODBhwbpHaW7uwn/53Fcc+fhWriA7p/8hMC9945rR2FSmpUtLqXyLR4ie+RiiQM4yspY7tvLJzb+nU9veABV6ChTau3BRoR5/GVeZBnn7NmUn30WvjvvxEilkIC6chd/eP8JrJ5bVzhrs0IcWO0yjMPSTxaDsQhodlK6gSEEXqc6MhUDIUju3UvwH/+k8qKLUKdMyT/jKUlIikLt+99H3bXXELjrLnp//ZvxW0kUgtCjj6JUV+NeujT/Mx6EUt9QPIbtG0qMmIlZgoZBYssWkpu3UHv11ZSdeio173kPvj/9KWOP0YKzuZlpX/l/VJxzNhVnn82UD3+Y2Ovrc7pn40l5eXmpURaR6urqUqdaJCRJorGx0e49aZEcDqqveCeyx8P0aB/TYz68xx1H2apV9qAjwuVyUVVVNaTQJcky1e+8gtSevURffCnnn9YFL+zqJVIAvVmh60See459V13F7gsupPunP0Xr7x8fgarIeL3eQ7JmYAjBfWtbedNPnqEvPPg0pnwITSP4wAMA1F71fqSD9E2S00nNlVdS/8UvEnzwQbp/+COMcTh1Tw+Hib+2DtfiRTimN41JmC0dqFI83G73oKNsS4we5aabbrrJ7nnYEYLYa6+R3LuP2vdeieRwIDkdBO++h4pzz0WttcyOWPSTEILAAw8iO1TKzzorZ/NP0zRuu+02zj77bLxeL7quo6pqzramVfnadFv9813PFyYQCOB0OgcMWEPFN5Tbfl8+93Dh7ddH4h4ujpGEsV8fSZh81w8Wpre3F5fLhSzLg8KOJZ3h3MPFMVQYq9se31Dukd43XHi7n+nOF489jPV6S0sLtbW1w4ax+uXzHypMvusjCTPU9ZGEGY17UByAc948vCetwjGtkcqLLmLKh65GrqzMzZIOF4c9nUQiQTAYxOv1DghvDStXlBN++hm0zk7Kzj4bZJm0bnDNX9YxpdzJ4mkVg9KxuvPFmQsjBJrfT9snryG5Zx96OERy82ZEOoV39eqcgDPovoO4hwtvvz4S91BxHCxMJBIZNMNlv2+4OKJJja89vInVc2t5y/JGMi1gYBh7HPF16+j9zW9p+NINuI85Jm+YQXFIEq55c1Ebp+G77XbSXV14TzoJVHXIdOxxjCYMQHLfPnx3/on6667D0dw8pnT2798/QOCyh7GGHY17uDhGEsZ+fSRh8l0fSRj79ZGEsV/P545Go4TDYbxeb944KNDKw9HOhBRmhWGQ2LSJdFsbVW97G5KiIDQN/113U/nWt6DmUUYXWYPQgb/9jbprr80ouWfRNI2bb76ZvXv38sILL9DR0UFjYyNut5v+/n78fj+qqtLX10c4HKaiooLOzk6CwSAOh4Pu7m4SiQRut5uOjg4SiQSGYdDb24uu62iaRk9PD6lUimQySSAQwOFwEAwG8fl8uFwuenp6CAaDuN1uent7CYfDuFwuOjs7CYVCuN1uurq6SCaTqKpKZ2cnyWQSXdfp7e2FrG5NX3aDSDAYxO/34/F4cnkwn9Wah3A4jKqqdHd3E4/HcTqduXQMw6Cnpwdd10mn0/T29iJJEpFIBJ/Ph6IouXRcLhe9vb05gb23t5dIJEJZWRnt7e2EQqFc+qlUakAeNE3LxZ1IJHLuQCBAIBDA4/Hg8/nw+/255wuFQpSXl9PV1UUkEsnlIZ1O58Kk0+lcHtLpdC4PsiwTiUTo7+9HlmWCwWAunZ6enlz9mHmoqKigvb19QFnly4NZ9mY9mHnw+/243W58Ph+BwP9v78zDoyjSx//pnntyEUISjoByKpcgiLisroLrLYK6HruwCqiov1VX/a7HeuKx67GuFyt4K65+vY9l/a54i4qK6AoCGhTCkYQck2Qmcx/dXb8/khmTYUIyYUYTrM/z9PNMv/121XR1dfXbVW+95Wl3X+N5BgIBrFYrNTU1+P1+LBYLtbW1CT+/+LVFo1EaGhowmUwEAoHENbjdbjweD7m5ubhcrnZlFQgEyMnJSaStqip1dXVEIhFMJlOirOLl0/YaTCZT4hqEEESjUTweT6I+Njc3J+pvMBjE4XDscr+TryESibS7hvjvhoYGmpubE9cQvw+1tbWJxry2tpZgMJi4hnA4nPjdtp4ahpG4BrPZnHjWzGYzTU1NCcOxrq4u8RzHryE3N5eqqir8fj8mk2mXa9A0jXA4TFNzM7bBgxGj9ydQUoKlsJDGxsZE2vHraXu/49cQCoUwm82J6zGZTIl7GW8vDMMgGAzS2NiIxWLBFw4T8weIfPQh/v33x9862rNmayMrv6nhpPGl1NXVEQwGcTqd7Ny5k0AggKIoiWcgfg26rifKR1VVAj4fNf9aTvWqL/h4wDg29h3KIF8dRuV2Ir/+NY7W9Nq2RaFQCJvNtks+hmEkrkHXdQKBAE1NTVit1nb3ob6+Hq/XS0FBQaIuxZ+vQCCA3W6npqaGcDiMoiiJ5060rkYnWj8C4s9a/Jm2Wq2J9sJisdDY2IjX6yUvL6/d/Y7Xn3i7neoa6urr0XSDBz/YzDd1AW46cX9EpKX9i9dNr9dLTk5O4nqsVis7N2+m6Y47MRUUEDtpJlFFQWlTZ1NdA4DP58Pd3EzB+PGIwkL8L71IeMcOvAMH4o9Euv3uEa0Gffx/N3s8NLlcmPx+qpYswaTp5J+zgAaPp1vvHr/fTzAYRFEUvF5vuzYv2++e+Psm3rZ29d0TDofbXUMkEknkE087+Rri9zsvL4/4uycuDwaD7fLp6N3Ttt2Ov3vi7/3kd09ubi47d+5MtK3J1xB/99jtdiS7RxFtzf+egmHQ/MYbNC17in3/+RSK1Uq0qoodZ89j8CMPY0sO7m4YhDdvpubaaym99loc48e3Cz0SCoWYPn06Dz/8MGPGjEFV1ay4A0QiESwWS1bSlrTcx3jPrCSzCCEShock82iaRiwWw+FwJB9qh97czLbf/o7844+n+P9diFBUnvxkK397cxPvXH44AwocaY0SC9EyhI6h41/zBbf+7UX+PexQVGEwsWEzV0c2MP6ZJ9MO1dTTiEajqKqKuZOh/mQEUO0OMffR1Ry+Xz+uP3EsZrWTAjYMfB+vouaqq+i/aBH5xxydrNElhKbhe/8Dam+8EeeUKQy87a+oDke33ACSEbqO7+23aVj6INHt27Httx9Dli7B1HZUMw3iBp7sIcw8sVgMTdM6bRsku6dnWgWKgnXIEGJVVWgNDS09td9+i6lPH8zJK2UIQeibb6m55hqKzjlnF0O2LaqqYjKZsmYMBQIBOds+i3i9Xlm+WSLekyTJDpFIBJ/P127oMBVqbi4FJ83E/dxzaB4PCoKxAwswqQpf7fB0en5bhIDv630s+WALL7+3Ed/y5Rxbs5YH3v87l6x9iYrCMl45biGGkp32sCuEY3pGXHbD4XCidz1dDCE4aN9Cfn/Ivp0bsoARDNJw3304f/EL8qYfkXy4yyhmM/lHzqD/jTcQ+vJLam64Ad3rS1brFqF169h59Z+JfPcdIhwmvH49NTff0hIRqBvItiF7xNsGyZ7x07Viu0NRsI8ejfOgydTfey++t9+m8ZFHKbrgfNTcXEIbNlD1x0vBMIi5Gth5zTU4Dz4YxWYj8PEqQuvWtczW3SXZzhuqPUH2ymYX2SubPRRFIScnJ1ksyRAmkwmbzdZpG6SoKjmHHoqiqnj/8x+EYTB2YD6nHzSYUaW5nZ4PoBuCKneQK19ax5xHV/PoO99S8+jj+N95lyk3/5kpf7uZY8eUcMuGF5l9QClKq+GbCaOyqwgBtc0hLnzmSz7e3DIMvCeYzea02wbR+hFXVujgLyePZ1hx5/VfaBru559Hc7koWjAfxWJJVkkPVSVvxgwG3nMPgc9WU3XpH9E96cUVFoaBiMUwwmGi1dU0//t1XP94ABGN/nBTDYNIeTlaU1O3brRsG7KH2WzGZrMliyVp0iN9Zmlt1HN/9SsMr49oRQUFJxxP3owZKKqKiEQwwiGcEyZgNDejN3tAN9BqaohVVyPCYexjx7abALZs2TJmzZpFcXFxl14I3UEIkdWe3587uq5jsViydv9+7hiGIX2zskS8R9XcOvG0QxQFU24uoa++IrLpO/KPPhqrw8ahI4vp47SiKkrKUWhDCHQBqqLgDkSZ98Qa3IEIxxcL/vDlC4xvrqTslpvJO+JwrPvui3P//eClZ+k/fAjhfYaz9MMK+uXZKMxpP4E10whA0w0+rWjgz69sIBjVOWRYEaUFdhRFadmST+oCQoi03ceimsETH2+lwR9hRHEeps56ZYVAq6+n/m93kTP1YApmzd5zYxZQTCYs/UuxDRuKd/m/CZeXYy4qIvD552guF6a+fVEtlpawlLqOCIWIVlUR3vgNwdWr8b35Fp7nX6DxkUdoWvYU4fXrEbEohtvTEn6NlnplGTSIPr/5DWo3nnFd17HbW+6RJLMYrXGlLRmoSz9neqbPbIaJ+8w+9thjjBkzJmsPZFNTE3l5ebJSZom6ujr69u0ryzcLGIbBli1bGDlyZPIhSQYIBAIEAoGufUwbBsF169ix4Bz2feF57MOHowl4+b/VHD22lD4Oa8KgNYRANwS1zWEe+aiCG2aOQQhYX+lmaJ4Zz6UXE/32WwY/uBTnpEmJ1ctELEbtLbcSLi/HtPhhFjy9FqtZ5eGzJjOwj6NrcVa7gWEIVmys5frXNjCkyMni3x6IxaTy51fW87upQ5i+X0nnRmUK4hOzuvoxJgRsrvcx/8k1nHzgIP545EjMpt0bwkLTaHz0MZqefJJhr/+747iy3UUIwuXlVC48H93rRWhaS4i4U0+l8LdnElyzhsDqzwlv2IARDCJiMUQshqmgAOdBB+E8ZGrL0shFRRjRKFV/+AOR8k0tF2uxMPC2v5J/7LHJuXaJzZs3M3z48M7rriRt4pPr5AqMe8bun15JWtjt9rR6BiTp4XQ6ZflmCUVR6NOnT7JYkiEsFgtOp7NrxoCq4hg3Dsf48TQ88ABC0zAEPPxhBS+sqURv7X/QdMGqzY1c9fLXzPzHx2yo9lLZFMKsKozV3DRffCFGUxNDnngC5+TJ7ZbhVcxm+px6CtGtFRRt/Zb7z5xArs3Egie/YF2lp2XSWBbwRzVe+rKSkyYOZNn8gxlU6MRmNiGEYMn7m2kOdc+n02q1prXUtS4Er3xVDcDZ0/bF1IkhCxDetAn3M89QtPC8lvCQXbmX6aAo2IYNw1xcjIhEWnphw2HczzzD1pNPoempfyLCYfJmzKD4oosou+8+hr/xH0a+/x6D/n4Xhaedhm34cEx9+mApKWHIk08y4K9/peSKP7HPP/9J/jHHJOfYZWTbkD3ibYNkz+j8CZZ0mZ9BJ/dPiizf7CKXYs4eojWuZJfrsKpScPJsAqs+IVy+CUWBA4f04aUvq4jpBlHd4Pp/beDCp79k7Q4Pt58ynmfPm8q+RU60hgaq/3QF0R2VlN13L46xKVZ9UhSs++yDbeQomp5+hlFFdu4980CsJpWrXv4adyDaXn8PMERLz/HWBj9Oi4mHfn8Q1xw/mjy7BQXId5i5ceZYNtX6eP3rnWh6F8uoDWmVLbDV5eeZz7ZzyYyR9M2xduraIKJRmpY9hZqbS/4JJ+xanhlCtLoytEWxWOh/880M+9drlC2+n5Irr6DPGaeTc8hULP37t/tIaYvJ6aTghOMpnDs3dR1IA9k2ZJd06q4kNamfAkm3iEQislJmkVAoJBvVLOKV64NnDU3TCIVCyeIOUVSVnKlTUZ1OfG+/hWIYTBpSSK03zEffu1AVhZMmDOQvJ4/jxQt+wVFj+mM1KYQ3bqTq/AtQnU72efzxljCGHRg7am4ueTOmE/n2W/SdO+mfb+fhsybzP0fvR57dgmG0uDDsCTHd4KPvGzh32Rfc9p9yYobAYlKxmNSEbaUqCoP7Orng8OEseX8LG3c2JyfTKfGY011l1eYGRpTkcfh+XXD7EILwpk0EP/+cvvPnYSkp2SPDcHcoJhP2iRN+uGeKgrmkhNxfTkOxWlsWEDKbWyL2qOru/4eigKq26O5OrwvI2fbZIxaLpdU2SFKTupWTdAuHw9F5wyjpNjk5OdLNIIv07WYMSknnWCyW9GaEKwqWAQPIO/poAqs+gUiYKUMLsVtMfPSdC1WBQ4YXMWviIIpybajCILp1K9WXXY6IxRh45x3YRo7YrRGjmEwUnHwyusdD6L9foQiDgX0cHDO2P2ZV4bGPK1hX6UEzRJv1sLpORDN46Ysq/vDMfynMsfD30ydiM6d+flVF4bQpgynNt1HtTv/FbrPZuuxmYAjB76buw5Pzp1CSZ999r6wQGLEYdX+9DdvIkfSZNWu3ZbqnKGYzxRdfjHXo0BZ3gf79Kf3z1ZiKipJVf1QKCwuTRZIMYbVa02sbJClJ3bJIuoWMgZpduhtHUtI1otHMDS1L2iOESL/+KgpF8+ejNzcTePc9RhTn8dzCQ7j6uNEtUQ3ieoZBaO1aqv5wEZYBAyhb8gDWQYM6N7oUBXNhIfmzTsL9/PMtfpqt6EKwrTHIgmVr+Nfaaoxu9NA++lEF97zzHfOm7cv9vz2QXLu5w4lligL98+08c94hHDd+QNrRo3Rd79KomBCCld+50AxBvsPSaREJw8D3xgoimzdT+LvfolitySqZRVGw77cfw157lX2fe5ahr71K3pFHdhg7/cdCtg3ZI74anWTPkMZsBokvcSfJDvFlECWZR7QuhynJDpqmEWljLHYVc0kxOb+chuu+exGRMMP65ZBj+2GVK2EYBL74gupLL8NUXEzZ/fd1zZCNoygUnHQSsZoa/Ks+SYjNqsqfjx/N4aOKuWn5Rt7YUEM41vnHuiEEgUjLi/k3k8u4edZYLj1qFH2cnfulAuTazNQ2h7j8hbU0+CNdNmo1Teu0bTCEYPXWJv747Fo+3dKyvGxniHAY93PP4jhgPDlTD+l6ue4hisWCdZ99MBUU/Gh57o5AIJAskmSI7rYNkvZIYzaD5ObmdnmoS5I+BQUFsnyzhKIoDBgwIFksyRA2m61bSwUrJhO5R0xH93oJrPoEpY11JwyDwIcfUXPdddgnTGDQ3+5sMX7SccVpnUFvLSvD+/rrid5ZRYEcq4nbTjmAOVP34abl37CucvfB/GO6wXvl9Zz/zy+pcgfpl2tLuCykY441h2J8srmBxz7a2mWfXYfD0WnIvlBU58lPtrFvPycTBnc+O19oGs3/fp1oZRWl112Hav+RA9v3ACM2TmlpabJIkiHsdnu32gZJe9Jo9SSdEQ6HuzTUJekewWCw094XSfdpampKFkkyRCwW617vlqLgPGgy5pJSfG+9idA0aF3xyffue+y8+mrsY8Yy8La/tsxs74YBZMrPJ++oo4iUlxOrrW2JS9r6geOwmLjsqFFceex+HFDWB90QuyxBKwT4IxrPrdnB1S+vx2xSsJlNqGrLIgjpMqIkj3m/3JeX/1vFTk+wS2HCotHobt28DCHY4vKzuqKJCw4fTqGzc3eBWHU1rvvuo2DmTKyDB6f3kbCX4Xa7k0WSDBGLxQgGg8liSZr8fJ/OLNCVoS5J94nFYvJjIUsIIeRQVxbZE784NSeH4j/+Ed/77+N7/wOiVVV433yL2kWLyD3icPrfcD2mvLzk09KiYNZJCF3H/+GHCWOW1s5Bq1nltIMGY7OovPRlJYvf24xmGAm1QETjxn9t5M4Vm5gzdQiLfzuJ4jxbWr2xbTGbFOZNG8qw4hwue2Fdwm1hd+i6vtu2N6oZ3LminPFlBfx6dGmnCzMIw8Dz0kug6/Q5/bSf3Gf1p0a2DdlD13VisfTiKwvR8oGWvMVpK/u5vDGlMZtBpJtBdpFuBtlDURT69++fLJZkCJvNRn5+frd6KgFM+XmIYIjqyy6j4sSZ1Fx3HXm/PpL+N9+MOQMzzU19+pB37LG4//k0xm4MFwE8+/kOFi3fiCcYRQio8oTYXO/j9lPGc/GRI8m1/+DT211sFpWFvxpOOKZT4eq8R7szNwOzqnDWL/blj0eOxGLq/B7EamrwrniTvuecg23ffbvV4703IduG7GG328nPz08Wd4gQ8P6mem7690Zu+vdGFi3fyDWvrOe1r3ZCqzvN8rU7ufX1b3l81VbqveEu+573ZqQxm0HkMHh28fv9snyzSGNjY7JIkiHibgbdGVnQPR52XnPtDy4G0SiK2Uz+Mceims0ZMbQUk4m8Iw5H9/vxr/wQkWLIXlEUTjmwjEUzx/L6uhr+54V11PvCjCrN5dGzp3DM2AGY0vSP7QhFUTh0RD8ePXsKYwcWdPoyjkQiHfZ864YAReHI0aUcOKRPpx8UQtOovekmzCXF9J07JyPl29uRbUP2iEajabkgKQpMKCtgztR9mDN1H06dVEZ5rY8BBXaEgJe+rOTjzQ2cMmkQvpDGTf/+pkujG70dacxKeg3prvIjSQ/5oZA99qTuai4XRvKCFpqGEez6C7BTFAXbiBFYhwzBu2IFIkUoJgWwmFVOOGAAfzvtAOp8Yf61thpVUSjOs2E2ZcaQpTUvq1llQIGdrY0BnvpsGxHN6HDIdHdl+2lFI9e++jWGIToMDZbAMAh88gmh/35Fn5NPRnU4kjV+lsi2IXt0p20oyrUxqjSPUaV52C0m7BaVA4f0QTMMnlm9g9MmlzFmYD4XHDGc7Y0B6n0dj7bsLfysjNmuVJq2x+O/U8mSEUKQl5eHqqopdVLJ4qQ61tU8k3+nknW0nyxLdZwu6KSSJdNZGsmk0iksLMRsbhnCTHWcLuSTLEveT5alOk4XdFLJ4sSPdZRGR+em0kklS6YjnWT9wYMH7yJP1ulIlkxnaSSTSqcraXSmkyxL3k+WpTqeTCqdVLI4Qgjsdnu7wPNdyTMutwwciJqf/8OKT6qK4nRiHjAgpXHXUdod5RNHzc0lf/ZsQl99hebxJPTbnqcAqtrSy/nk/IOZM3WfXXRS5ZMsS95PlrXNe83WRu5+6zs+r2hsF++2rX5OTg4Wi2WXNAIRjT+/8jWa/oPvYLIOtPjICk3DiEZp+t//xTJ4MHlHHw1daM9THaeLOm1JpZ9KlkxHOqnSSCbVsVRplJWVtdFIrZNK1tF+sizVcbqgk0qWTGdpJJNKpytpdKaTLIvvOxwO+vRpia4Rl+m6js/nw+fz4ff7dzk3jgAe+3grvxjeD4tJpcEfIRDRWhZSURSsJpX++XbcwV0/Tvc2TIsWLVqULNzb0DSNJ554gmnTplFUVITf78ftdmO1WmlqasLj8WAymWhsbMTn8+F0Oqmrq8Pr9WI2m3G5XITDYSwWC7W1tYTDYXRdp6GhAV3X0TSNhoYGmpqaiEajNDc3Yzab8Xq9uN1uLBYLLpcLr9eL1WqloaEBv9+PxWKhrq4On8+H1Wqlrq6OaDSKqqrU1dURiUTQdZ3GxkZE6wSd+G+fz4fb7cZms+F2u/F4PIn/6vf7E9fg9/tRVRWXy0UoFErkGY/Z6nK5Eg7o8aGkePmoqorX68Xj8WC1WmlsbMTj8WCxWGhoaCAQCOBwONi5cyc+nw+z2Ux9fX3Ka2hoaInrGA6HE/k0Nzfj8Xh2uYb6+nq8Xi9Op5P6+nr8fj8mk4ktW7agaVpCJ76EpcvlIhaLJa5BURQCgQBNTU2oqprIx26309jYSHNzMyaTKXENOTk51NTU4PP5MJlMuFyudtcQjUYTabe9D22vwWq14na7aW5uTtxLn8+HzWbD5XIRDAYxm83U1dURCATaXQOQ+B2NRhP/2+/309TUhKIoeDwePB4PDocjcQ3x+x0IBHA6ndTW1hIIBFAUBZfLRSQSQVXVRNqxWIyGhgaEEITD4UQ+Ho8Ht9tNTU1N4pqsVmu7Ohu/BpvNtktZxSfmxX9Ho1EaGxtRVbXdfWhsbMTr9Sauoe399vv92O126uvrCQaDif8dDocT16NpWiJtXdcTdclkMiWeNZPJhNvtxuv1JtJr+xyHQiGcTic7d+4kEAgkng1N0xBCUF9fn1h6Nl72wWAwcQ1NTU00Nze3q0sWi4X6+np8Ph92u526ujpCoVDiGoLBILFYjB07dmAymdA0DZfLhWEYBINB3G43ZrOZ5ubmxHPX1NSUeAYaPB7EtGlQX49v4ECUceMoOvYYAmPGEGr1b02+D5qmJcon/jzE84lfg8VioampKVFP6+rriZaWEH7/A9xCIMrKsFit1NbWEgwGEUIk2jxd1wh63aiIRPm0bfPiz5fX6yU3NzdxH0wmE/X19QQCgZY8W8sq/gzEY3U3NDRgGAbhcJg8Ncq6miAfl9dw8AAzdqulXXvR2NhIfX09DocjkafZbKa2rp7nV29l1VYvC6YUU2jRURQSacdisZb7oOvUrXiTrQ89RNN99+Pz+bGcdy6OoUNxtaYXT9vn8yXa0EAgkGjbw+Fw4j6Ew+HENcTbi3j7F2+30333WK1WampqOnz3GIaReNY6e/e0fd909d1TUVGRqF9t3z3xdqknvnvalhWt757473TfPfF6Gq+/ye8eTdPaPWvJ7x6bzZZoL+L32+/3k5OTw7Zt23C5XDidTlyt7x63280dd9zBypUrWbVqFYcffvgu80WEgHpfmFtf/4ZzDxvGkL5OGvxR/rVuJ6dOLqOP04oQ8M63dYwekM/gQude7TGjiI5M/r2IUCjE9OnTefTRRxkzZkynPlNtURSlw6+iZNxuN3l5eZjN5nbndSWNdPVTke55qfRTyZJJ97+m0kklSyZZp76+nr59+2Ju7Z1NJlm/I9nuSFc/zp6USfx3V85rSyb04zIhBFu2bGHEiBHtjrfVSf7dEal0UsmSSTefVKSbRld0UpFuPsFgkEAgQHFxcULWlfMSCIERCCT8ZdWcHOhkMmQ8/bT+q65Tf//9eP+1nKH/eg1znz671++ATvNJowwNATuaApy69FPO/9UwFhw6FHNrNIL4eV6vF5vNhs32QyzYqGZw+kOfUpxr4x9zJmEzq7vmIwTR7dupPG8hsZqdLZkBliFDGPrKy6hOJ6TxX+Ok0kkl2x3p6sfZk//akf6WLVsYNmwYSgfvzo7O64hU+qlkyXTlv7YllU4qWTI/Vj60LkgRDAYpKSlJ6Is2KwaqqorJZNql7HVD8OpX1Sz9YDPLLzoUp81Moz/CrAdW8cS8KYwqzUM3BOc8uYbLjh7FhLLOYyv3Zn5WbgaK0hL3MJ0tnfPi0QySz+tKGunqp9rSPS+VfipZ8pbuf02lk0qWvCXr5OfnJ8o31Zas35Fsd1u6+qnO60oaqfS7cl5HaXRlS6XfVta/f/9djifrpEojeUulk0qWvKWbT6ot3TS6opNqSzefeDSDdM9LbKqKKS8Pc1ERpoIClNYP5t1t8fTTylNVyfvVrxCxGP6VK6HVGE536zSfNP6XSVUY1MfJKZMG8eF3LgIRbZfznE5nohMhvoViOv3ybNwwcyzWVkN2l3wArXonelMT6EZLd5cQ6PX1xLZt3yWf5N8dbal0Usl2t6Wrn+q8rqTRFf3S0tJdZB2l0ZUtlX4qWfLWlf/akf7uZMnbj5WPoijtohnEZaqqYrVasVqtiXqdjNG6NPPCXw3DbjGhAIVOK/3zbVS7Q8R0A3cgSoM/Qh9H53GVezs/K2M228jZ9tnF6/XuNjC6ZM+ora1NFkkyRCQSwZs8iasnoqrYx4/HVFREYOVKRJrxL7OFxaRy2a9H8ei8KeTa2/vG0jr61jaagSEEeXYLS+dMZnBf524nfilOB0pyWC9FwZSBkGd7C/X19ckiSYYIh8P4fL5kcacYQlBe42X2gWWorSMVqqJw0fQR3PvOd/x73U6ufPlrxgzMp3/+j7x63U+ANGYzSEfD35LM0NEXqiQztB2ilWQWVVV7Tfug2mwULVhAaN3XaD1kVThFgRybGbvZxKZaL6u3tv9fbUfEhBB8+J2LT7c0tvbItlNtj6IALZPq4vtqXh4lV12JubQkWftni2wbskd32gYhoMEX5Q8zRrRbLlpR4LBRJfzpmP1o8Ec5acJAFp00Dptl9y5JewM/K5/Zxx57LG2f2XTQdT0xRCDJPJqmpfQdkuw5QghisRhW694/HPVTYBgGhmH0mvprhMNsO+10co/6NSWXXJJ8+Ccjqhlc8txXbGsI8M9zptIv14ai/BA6SlVVAhGN0x76lElDCrl19rjkJH5ACIxQiO1nz0NEIgy4+SYi27aTc/AUzKWlKPHoERKi0SgWi6VX1N3eRrxt6I5BawjRsmx00jFDiERs5lTH90ak1ZVBmpubpZtBFmlsbOwwMLpkz9m+fXuySJIh4tEReguKxULur4/E88KLaI2NLW/OHoDFrHL+r4bRFIzy0pdViSU8/X5/SyQEIVi6cguRmMElM3adzNgW3e+n9ta/YHibGXj7bdjHjaPPSTOxDBjQsnytNNwSVFZWJoskGSIeDSRdFIUOFylRW33NOzq+NyKN2Qwie2Sziyzf7JJuz4Ck6/S2ERvFZCJ32jRENErg448RPeQjXQHGDyrg3EOHsfSDLWxvDGDEIzYA2xuDPL+mkqPGlFCU2/HQuNA0fO+8g//ddylauBDbqFEoZvMPsXwl7UgOCyXJHL2tbeipyBLMIHa7XVbKLJKTkyMb1SzSNqi/JLNYLBZycnJ61TCtffRobMOG4Xv3PeghxiyA2aQy+8CB7NvPyZIPthDVDGw2GyaTmfc31aMAv5k8GFPrpJhdEILAJ5/guu8++vz2txTMmtViyEo6RLYN2cNqtZKTk5MslqSJtLwySDAYlLPts4jP55PlmyVEa7B9SXaIRqP4fL5dZuH3ZFSnk6KF5xH49FN0r6/HuBoA9Mu1cevscVx34hhsZlNLgHwtxhkHDWbJ3EkM7deBcSAE0epq6u++B9vwERTNn9fiUiDZLbJtyB6RSKRb0Qwk7ZHGbAax2WyyZzaLOBwOWb5ZQlEUCgoKksWSDGE2m3E4HL2qZxZFIWfaNCz9+9P4+GOIHvQhqSoK4wf1Id9u5vt6H41BnZ3eKDaLiUlDChOhitrROuGr7ta/gBCUXn8dpvx86VbQBWTbkD0sFgsOhyNZLEkTaRlkkN4yU7m3Iss3u8hIBtkjvopPr0JRUMxmcmdMp/mVV9F6WKxRRYFGf5TLn1/Ljf+3ibMe/6LVzSD1pBcRjdLw0MOENqyn5KorsQ4eIg3ZLmJJjsMryRi9sm3ogUhjNoNIN4Ps4vf7ZflmCelmkF2i0Sh+v79XuRkALSuCzZiBiEQIrP68R7kaABTlWjlu/AA+q3BjAJOHpPbtFIZBYPXneJ57jqJzziFn8mQUk3z9dZWGhoZkkSRDRCIR/H5/sliSJvJpziByAlh2kW4G2UO6GWSX+FBirxtZUFXs48ZhHT4c/8qViB4WGk9VFBb8cigzJwzg2hNGU+i0puxsDX/zDTXXXUfujBn0nTsXRY5CpIVsG7KHdDPIDNIyyCCy1zC7GIbR63q2ehMyhm/2MAwDXdd7Zf1VTCZK/udygmvWEKupST78k2OzqFx7zHCmj+yb0pA1/H5cd9+Dmp9P8R8vaYlckEpR0iGybcge8UUTJHuGNGYzSCwW65Uvq95CJBKR5ZtFAoFAskiSIXRdJxqNJot7DY4DDsA6uIzGRx/tUWG6aO2dNSsCU7J9KgRGMEjd3fcQq65m4B23YyktlYZsNwgGg8kiSYbQdZ1IJJIslqSJNGYzSE5OjhwGzyL5+fnSUT6L9O/fP1kkyRA2m438/Pxkca9BtdtxHjwV/wcridXW9jjfWYfDscuiH8Iw8Lz6Gt7lyym68AIco0dLQ7ablJSUJIskGaK3tw09BWl5ZRDZM5tdIpGIHI7JInISQvbQNK13976oKnlHtk4E+7znTQSLxWLt2wbDIPzNNzQ+9CAFp55C/rHHtqzuJekWctQme8ie2cwgn+4MEo1GpTGbRaSbQXaRxmz22BteWPbRo7FPnIjvjTd6zPK2cTRNa2fMRqurqfx/f8A+Ziwll12Gaut4aVtJ50hjNnv0+g/dHoI0ZjNIb1uusrch3QyyS2lpabJIkiH2hqFExWym6NxzCH61lkhFRY/ynW3rZmCEw7gWL0a1Wii+9I+oVqt0L9hDpJtB9tgb2oaeQM82Zg0DEYshotGWkDAd9col6/1EjWwgEJDD4FnE6/XKiBFZQghBXV1dsliSISKRCF6vN1ncu1BV7Pvth3XIEJqefLJHrQgWCoXQYjGErtPw0EMEPvqYQYsXY99/f+lekAFk25A99oq2oQfQo5/y8JYt1Cy6ieqrrsZ1z70YoVCyCgDRykpqbrqJ6iuuoPYvfyW2c2eyyo+Cy+UiHA4niyUZQAhBZWVlr54R3pPRNI3y8nLpxpEFhBD4fD6qq6t7ffmqDgc5hx5K8PM1xKqrkw//ZDQ1NeHzevG9+x7up5+h77yzWwxZyR6j6zrfffed7EjIEs3Nzez8iWyWvYmeacwKgeH3U3XhhTinHMTAv/4F3efFdf9iRCzWXjUaxbVkCY5x4xl0552oDjsNDz/yowf3FkLw2WefyZVSsoQQghUrVuDxeJIPSTJAKBRiyZIlMp5kFhBCUFFRwdtvv93rR24Us5mCE45Ha2ig4eGH8f7ff9A9no5HzXaDiEQIrV1L07KnCG/ciIhE0k9HCHSPh9qXX6HuiSeou/VWnAcfTN9581Bkj2xGiEajPPLII8SS3r2SzPD999/z9ttvJ4sladIzn3YhCK3fgNB08o44AsVmI//EE/F/8EFLw9kGraGB2LZt5B7+KxSrlaLzziO6dSsiRQ+pECKrPSNCiF7/surJyEUTske2n42fO3tL3RWGQbSyEnSd5n8tZ+c117Dj/AuIVe9scfXStK5tsRj199zDjvMWUn/XXWw/62xcixdjBIO76na0xWJEt2+n8oILKHjySdSn/onW2Ejf3/0WRfrWZ5S9pf72RGTbmxkU0RNL0TDwLF9O8yuvMuTRR1AsFmL19Ww740wGP/wQ9lGjEqr+VatofORRyhbfjykvDyMcpvKCCym79x5MffoAEA6HOeyww7j22msZOnQoFosFW4ZntwoheO2115gyZQplZWXJhyV7iGEYPPjgg5x66qlyolIW8Pl8XHbZZTz44IO7xOuU7BmGYbB27Vq+/PJLFixY0KsnMYpolPq//53AJ5/+MDdBVXH+chqO/bsex9WIhHE/87+g6y29sYqC2qeAghNOQHXmJKunRggiWyvwf/ABaD8MgTunTaP06qukQZshwuEwl19+OXfffTd2uz35sGQPWb16NevXr+fcc89NPpQgJydHxgHvhB5pzApdp/m11/C+sYLBSx5AsVjQmprYesqpDH5wKfbRoxO6vpUrcT+5jLLF96Pm5iIiEXZccCFld/8dU2EhtA6TXHHFFe38WWXUAYlE8mMihNg72p2e98rYlb2hnCWSViZNmsTChQuTxZI29EhjFsPA+/Y7NCxZwr7PP4dqsxGpqKBy4fkMefwxrPvsk1ANbdhA3W23M/gfizEVFmKEQlSefwFl/1iMqTXcRbwbX7oASCQSiUQi6U2oqipXF+2EnmnMCkFk2za2/24OQx57FNvw4bhffhnfGysY/PBDKFYraBqK1YoRCrFj4fn0v+bP2EaNIvjf/9L02OMMuu9eVDkkIpFIJBKJRLJX0zONWVoMWteSJUTKN2EbPZrgms8pufxy7GPGEN6wAdfixQx5+GGEEHjffJPml1/BceCBBFatou/vf0/+ccf+aENNQgjcbjdbtmxB13WGDBlC//795ZdUBhBCUF9fT3l5OaqqoigKBQUFjBkzplf7Hv6UhMNhtm7dSlNTE3369GH06NGoqpoYvaioqMDlcpGbm8vIkSNxOBzJSUg6IN4WVFVV4fF4KCsrY9iwYdAa4mj9+vV4vd5E27D//vvTr1+/pFQkHaFpGlVVVdTV1aHrOkVFRQwdOhSr1dryLvB62bx5M9FolIEDBzJ48GDZDqdBLBbj+++/p7m5GUVRGDhwIIMGDcJkMlFbW8v333+fcJUxmUxMnTpVlm8a+Hw+Kioq8Pv9mM1mBg0axIABA1BVFcMw2LZtG3V1dTidTkaOHInT6dw7XJN+BEyLFi1alCzsESgKzkmTsO+/H5b+/Sk48URsw4ejqCpqTg6OAw7A3K8fiqpi22cfnBMnYiktoWDmiTgOnPijOf/HG9BLLrmETZs24XK5WLZsGTNnzsRsNsuKuIcIIXj77bd56qmncDgcuFwuDMNg2LBh0pjtJps3b+byyy/niy++YP369Rx33HGYTCaEELz//vvccMMNmEwmli9fTmNjI5MmTZL1uIsYhsGyZct48MEHefXVV9F1ncMOOwxaDYXLL78cu91OQ0MDDQ0NDBw4kL59+yYnI+mApqYmbrjhBlwuF/X19Tz44IOUlJQwbNgwhBDceuutfPbZZ9TV1XHvvfcyZcoUiouLZf3tAkIItm3bxvXXX49hGGzcuJGlS5cyYcIESktLWbFiBXfeeSclJSXU19fj8XgYP368bIfTYN26dbzyyisEAgG++OILFi9ezOTJkykpKeHTTz/liiuuQFVV3nzzTXbs2MEhhxwi625XET0dw/hhS5Yn76fSyzK6rov//Oc/4owzzhA+n09EIhFx7bXXiqVLl4pYLJasLkkTXdfFq6++Ku68804Ri8WEruvC+JHv8d5GNBoVkUhEfPTRR2LhwoUiGo0KIYTw+Xxizpw54rXXXhOxWEyUl5eLww47TNTW1soyT4NwOCx0XRcXX3yxuP3229vJ586dK3w+n9B1XdblbhCLxUQwGBS6rgtN08Q777wjzjjjDBEKhUR5ebmYOXOmcLvdIhqNisWLF4vrr79etsNpEAgEEuUbjUbFPffcI2677TahaZp44YUXxJw5c9rVXVl/08MwjET56bou5s6dKx566CERDofF+eefL5577jkRi8VEZWWlOPLII0V1dbUs4y7S88cHFOWHLVmevJ9KL8sIIdi4cSMzZszAbrdjMpmYMGECr7/+upxwliGEEKxatYo//elPLFmyhMbGRnqqd0xvwGKxpBw18Pv9VFdX8+tf/xqTyUT//v3Jz8/nq6++kuWdBjabrcOh11gsxi233MI111zD+++/LwPRp4nZbMbhcCRcjuKbEIKVK1cydOhQHA4HZrOZ0047jQ0bNsi6mwZOpzNRvqI1+kbburxt2zauuOIK7r777sQomaTrKIqCYRiEw2E2bNjA5s2bGTx4MLFYjK1bt3LCCSdgMpkoLCyktLSU1atXyzLuIqlbXElauN3uxFCWoijk5eVRW1srG9EMoCgKw4YN4+STT2b69OnU1NRw2WWXyZXAsoCu66iqis1mQ1EUbDYbVqsVt9st63IGMJlMzJ49m2nTpjF27Fj+8Y9/8PLLL8tlQruBYRjU19fz+OOPM2fOHFRVxeVykZeXlzB0+/TpQzAYlHW3GxiGwbp163jttdc46qijEu3wOeecw/Tp04lEIsyfP59t27YlnyrphK1bt3LllVdy8803c8ABBzBp0iQMw8AwjETbazabsdvtNDY2Jp8u6QBpzGYAi8VCNBqF1l5EXdczvijDzxVFUZgwYQJnn302s2bN4tprr8VqtbJ582b5ksow8V6DOEbrqj8Wi6WdnqR7mM1mzjzzTGbNmsXcuXNZtGgRy5cvl8Zsmggh8Pl8XHvttYwYMSIxkmC1Wtstx2wYxi6jD5LOEULg8Xi4+eabufrqq5kwYQKqqjJ58mTmz5/PiSeeyJVXXkl+fj5vvPFG8umSThg+fDh33XUXjz/+ODabjZdeegnahBCN/zYMQ7a9aSCN2QwwdOhQ1q9fnzAEqqqqmDx5codDjZLuYzabsVqtRCKR5EOSPcRms+FwONi2bRuidWKjz+djxIgR0ijIAjabLdEjI+k6brebO+64g0GDBvHnP/8Zu92OoiiMGzeOuro6YrEYRuuqa4MGDZJ1Nw2EEFRUVDBv3jzOPPNMjjrqqJTvMZPJhM1ma/fxIOkaqqpit9vJz8/n4IMPpqqqCqU1Sk9FRQVCCILBIE1NTYwePVrW3y6yay2VpIWqqhx00EG88847fP3113i9XpYvX85FF10kZ3lmAF3XWbVqFW63m0AgwOuvv853330nDaw9QNM0IpEI4XAYXdcJhULEYjHy8/OZMmUKd911F01NTXzyySfk5+czfvz4lC80ya4IIdA0jWAwiKZpRKNRQqEQuq7T3NzM+vXrCQQCNDQ0cMsttzB58mTZ+5IG4XCYm266ibq6Oi655BJ0XScSiSCEYMaMGVRXV7Np0ybq6uq48cYbmT59uqy7XUQIQTQa5bLLLmP27NnMnDmTSCSSKN+PP/6YpqYmAoEAH374IRs3buSXv/xlcjKS3fDhhx9SU1NDIBBg69atPPjgg4wYMQK73c6hhx7KLbfcQmNjI//9738RQjBp0iRZf7tIz40z24vQdZ133nmH9957D03TmDp1Kqeccopc4z4DGIbBc889x7p16xBCYLPZOP744zn44IPlx0I30TSNK6+8Er/fTyQSIScnh9/85jccccQReDweli1bxs6dO8nJyWHu3LkMHz5cfjh0ESEEX375JU8++SSBQABFUcjJyWHhwoUMHTqUu+66i3A4jKZpDB06lNNPP51+/frJ8u0iTU1NLFq0CCEETqcTWkdrbr75ZhRF4fPPP0+ERBs1ahRz5syRsTq7iBCCTZs28Ze//IXS0lJMJhOKojB27Fjmzp3LSy+9xJo1a1BaJ4UdffTRHHbYYfI9lwZxOyHuWjRmzBhOPvlk8vLyaG5u5qmnnmLHjh3Y7XbOPPNMxo4dK+tuF5HGbIaI+7gIIRKNgCQzxIdihRCorcv6yfLtPvHybDu8bTKZEh8H8WOKosgPhjQRrX5vbYdf4+WotPokx8s9VUQJye5JVXfjbUK8Byte9m1lkq5hGMYudTdef9u+42Q73D3iZdi2fW1bhsnHJF1HGrMSiUQikUgkkl6L/GyVSCQSiUQikfRapDErkUgkEolEIum1SGNWIpH0WuI+fNkk7gebDvFz0j0v0/wY5SORSCQ/NdKYlUgkPZq2kyZ0XUfX9cT+Z599hsvlSj4lYwgh+P7772loaEg+tFsCgQDvvvvuHi1Xu6cGsRCCr7/+mmg02u00JBKJpDcgjVmJRNJj0XWdG2+8kRNPPJFjjjmG/fffnyOPPJITTzyR8847j2effZaKiork0zJGJBLh3nvvxWq1Jh/qECEETU1NPPzww91e3EMIwXfffcfSpUu7HZheCMGWLVu4//77u52GRCKR9AZkNAOJRNJjEa1Ll4bDYerr6znjjDN44IEHGDt2LKqqEggEKCwsJCcnB03TUBQFXdfbhb2JxWIoreudx8Pd6LqOpmnouo7ZbMZsNu8SxknXdd544w1WrVrFTTfdhNlsTgzbx/NQVRWTyUQ0Gk3kGd+vq6ujtLQ0sdy1qqqJsDsWiwVVVdE0DSFEIkxXW6Nz5cqVLF68mKeeegqbzZZYMSz+v1VVTaRjGAaxWCwhj19rQ0MDJ5xwAk8//TSjRo1qd30SiUSytyCNWYlE0uMRQlBTU8Nxxx3HsmXLmDhxIkII5s2bxznnnMPkyZO58MILmTRpEps3b6auro5TTz0Vh8PBG2+8gdvt5vzzz2fGjBlomsY777zDSy+9RDgcJj8/nz/84Q+MHj26nUEbDodZsGABp512GieddBKGYfC73/2OMWPG0NDQQG1tLUcffTQlJSW89dZb1NbWctZZZ3HSSSexfft2FixYwPLly3E6nZx22mkcc8wxrFmzBo/Hw0UXXcThhx/O6tWrufPOO3n22Wex2+2sXbuW++67j/vvv5/zzz+fb775hpEjRzJw4EDuuecePvnkE5599lk8Hg95eXmcc845TJw4kW+//ZbFixcTCASw2WzMmjWL2bNnA3Duuecyffp05syZ06ZEJRKJZO9BuhlIJJJeSzQaRdd1hBDEYjFqamq47rrruOKKK1i8eDGVlZXceuutzJs3j2uuuYZYLIbb7ea5557jqquu4p577uG0005LOZzvdruprKxk5MiRKIqSyCMSiXDjjTdy0003sXjxYurr67nlllu48soreeKJJ3C73e16UA3DYPv27YwbN47bb7+dq6++mieeeCKhE4vFEj6tmqYl/sfZZ5/N0KFDWbp0Kbfeeitbt27lT3/6E/Pnz+fee+/lrLPO4oYbbqC+vp4XX3yRE088kfvvv5/bb7+dww47LHEdhxxyCNu2bZN+sxKJZK9FGrMSiWSvQFEUjjvuOIqLixkyZAg2m43DDz+cvn37Mnz4cMLhMB6Ph/fff5/GxkaefvppHnjgAd544w3Wrl27izEbX3Y2Ly8vsUqPqqr84he/oKioiBEjRlBWVsbEiRPp27cvEyZMwDAMgsFgu3QURWHQoEEcdNBB9OvXj5EjRxIKhTo1Lu12O2azmby8PJxOJ1999RVCCJYvX84DDzzAW2+9hcfjobGxkVGjRvHqq6+yYsUKduzYkVjqFaC4uBi/34/RZtUsiUQi2ZuQxqxEItlrcDgcCV9WRVGw2WyJfVpDVQWDQQ444AAWLFjAueeey8UXX8zzzz+PzWZrl5bVasVkMrUzPOP+rnHj1mKxJNamj+eTykiNnxPfOiLey5yKWCxGWVkZ8+fP59xzz+Xcc8/lxRdfZNSoUZx++ulcd911GIbBokWLuPfeexPrvzc3N2O323ebr0QikfRmpDErkUj2WlIZcIcddhhVVVUAlJSU0K9fP4QQu+gWFhZSXFzM1q1b2xmYyXrJ++lQUlJCKBSitrYWv9/Pu+++m5gkZrVaCQQCCVeKcePGUVVVhc/no7i4mH79+iV6W10uFwMGDOA3v/kN5513HuXl5YmwYF999RWDBw/eo/8pkUgkPRlpzEokkl6B0hotoO0krXjEgvixuMGWvB+POqAoCkOGDGHatGmccsop/P73v2fWrFnccccduwzDW61WZs+ezZo1axIGZrzHN55HfD++td1v+9/i0Qri58X3hw4dysEHH8z8+fP5/e9/T3NzcyKNfffdl+bmZs4++2yuv/56xo4dyzXXXMMFF1zAWWedxezZs7n00kvx+XzcddddnHTSScyfP59bbrmFo446CqvVit/v58MPP2TSpEmJ/CUSiWRvQ0YzkEgkvYJIJMK6desYM2YMubm5AGzcuJGBAweSn59PeXk5gwcPJj8/n2g0ysaNG9lvv/1wOp2EQiHWr1/PxIkTsVqtCCGorq6murqa3Nxchg0bhsPhSM4Sv9/PpZdeyt13301ubm4iv759+yKEYMOGDQwdOpS8vDwMw2DDhg2MGjUKIQTffPMNBxxwAGazmQ0bNiTCiWmaRnl5OWPHjkVRFCKRCOXl5djtdkpKSqipqWG//fbDZDLR2NhIRUUFqqoyefJkhBDU1tZSWVmJw+FgxIgROBwOQqEQFRUV+P1+Bg0axKBBgxBC8NZbb7FixQruuOOOXdwoJBKJZG9BGrMSiaTX0NZ3NXk/2VWg7X7yeXFZXKejXkvDMPjiiy8YMGAAZWVlCXmqdJNdEZKPJeedvN+Wtukn/8dUslRyIQQffPABU6dOTfgSSyQSyd6INGYlEolkN8RdDHqbMZhs3EokEsneijRmJRKJRCKRSCS9lv8PRlhFjsBCbEwAAAAASUVORK5CYII=;" parent="WIyWlLk6GJQsqaUBKTNV-1" vertex="1">
          <mxGeometry x="74.5" y="510" width="691" height="323" as="geometry" />
        </mxCell>
        <mxCell id="oPZypz6bq9TwNKat6TRu-16" value="&lt;p style=&quot;text-align: left; text-wrap-mode: nowrap;&quot; data-end=&quot;165&quot; data-start=&quot;0&quot;&gt;Sample visualization:&lt;/p&gt;&lt;p style=&quot;text-align: left; text-wrap-mode: nowrap;&quot; data-end=&quot;165&quot; data-start=&quot;0&quot;&gt;&lt;span data-end=&quot;39&quot; data-start=&quot;27&quot;&gt;-&amp;nbsp;&lt;/span&gt;&lt;strong data-end=&quot;39&quot; data-start=&quot;27&quot;&gt;red line&lt;/strong&gt;&amp;nbsp;shows the detected&amp;nbsp;&lt;em data-end=&quot;71&quot; data-start=&quot;59&quot;&gt;fear score&lt;/em&gt;&amp;nbsp;from the TV/news transcript,&amp;nbsp;&lt;span style=&quot;background-color: transparent; color: light-dark(rgb(0, 0, 0), rgb(255, 255, 255));&quot;&gt;and the&amp;nbsp;&lt;/span&gt;&lt;strong style=&quot;background-color: transparent; color: light-dark(rgb(0, 0, 0), rgb(255, 255, 255));&quot; data-end=&quot;129&quot; data-start=&quot;109&quot;&gt;blue dashed line&lt;/strong&gt;&lt;span style=&quot;background-color: transparent; color: light-dark(rgb(0, 0, 0), rgb(255, 255, 255));&quot;&gt;&amp;nbsp;shows the patient’s&amp;nbsp;&lt;/span&gt;&lt;em style=&quot;background-color: transparent; color: light-dark(rgb(0, 0, 0), rgb(255, 255, 255));&quot; data-end=&quot;162&quot; data-start=&quot;150&quot;&gt;heart rate&lt;/em&gt;&lt;span style=&quot;background-color: transparent; color: light-dark(rgb(0, 0, 0), rgb(255, 255, 255));&quot;&gt;.&lt;/span&gt;&lt;/p&gt;&lt;p style=&quot;text-align: left; text-wrap-mode: nowrap;&quot; data-end=&quot;165&quot; data-start=&quot;0&quot;&gt;Shows how spikes in fear score roughly correlate with increases in heart rate —&amp;nbsp;&lt;/p&gt;" style="text;html=1;align=center;verticalAlign=middle;whiteSpace=wrap;rounded=0;" parent="WIyWlLk6GJQsqaUBKTNV-1" vertex="1">
          <mxGeometry x="74.5" y="840" width="690" height="110" as="geometry" />
        </mxCell>
        <mxCell id="oPZypz6bq9TwNKat6TRu-18" value="Transcript Feed&lt;div&gt;(TV/News/Social)&lt;/div&gt;" style="rounded=1;whiteSpace=wrap;html=1;fontSize=12;glass=0;strokeWidth=1;shadow=0;fillColor=#dae8fc;strokeColor=#6c8ebf;" parent="WIyWlLk6GJQsqaUBKTNV-1" vertex="1">
          <mxGeometry x="870" y="110" width="120" height="40" as="geometry" />
        </mxCell>
        <mxCell id="oPZypz6bq9TwNKat6TRu-23" value="" style="edgeStyle=orthogonalEdgeStyle;rounded=0;orthogonalLoop=1;jettySize=auto;html=1;entryX=0.5;entryY=0;entryDx=0;entryDy=0;exitX=1;exitY=0.5;exitDx=0;exitDy=0;" parent="WIyWlLk6GJQsqaUBKTNV-1" source="oPZypz6bq9TwNKat6TRu-24" target="oPZypz6bq9TwNKat6TRu-26" edge="1">
          <mxGeometry relative="1" as="geometry">
            <mxPoint x="1590" y="160" as="targetPoint" />
          </mxGeometry>
        </mxCell>
        <mxCell id="oPZypz6bq9TwNKat6TRu-25" value="" style="edgeStyle=orthogonalEdgeStyle;rounded=0;orthogonalLoop=1;jettySize=auto;html=1;" parent="WIyWlLk6GJQsqaUBKTNV-1" source="oPZypz6bq9TwNKat6TRu-26" target="oPZypz6bq9TwNKat6TRu-29" edge="1">
          <mxGeometry relative="1" as="geometry" />
        </mxCell>
        <mxCell id="oPZypz6bq9TwNKat6TRu-26" value="&lt;div&gt;Correlation Engine&lt;/div&gt;&lt;div&gt;(fear score &amp;lt;-&amp;gt; Heart Rate)&lt;/div&gt;" style="rounded=1;whiteSpace=wrap;html=1;fontSize=12;glass=0;strokeWidth=1;shadow=0;fillColor=#f8cecc;strokeColor=#b85450;" parent="WIyWlLk6GJQsqaUBKTNV-1" vertex="1">
          <mxGeometry x="1261" y="200" width="180" height="40" as="geometry" />
        </mxCell>
        <mxCell id="oPZypz6bq9TwNKat6TRu-27" value="Heart Rate&amp;nbsp;&lt;div&gt;Sensor&lt;/div&gt;" style="rounded=1;whiteSpace=wrap;html=1;fontSize=12;glass=0;strokeWidth=1;shadow=0;fillColor=#ffe6cc;strokeColor=#d79b00;" parent="WIyWlLk6GJQsqaUBKTNV-1" vertex="1">
          <mxGeometry x="1180" y="290" width="120" height="40" as="geometry" />
        </mxCell>
        <mxCell id="oPZypz6bq9TwNKat6TRu-28" value="" style="edgeStyle=orthogonalEdgeStyle;rounded=0;orthogonalLoop=1;jettySize=auto;html=1;exitX=1;exitY=0.5;exitDx=0;exitDy=0;entryX=0.5;entryY=1;entryDx=0;entryDy=0;" parent="WIyWlLk6GJQsqaUBKTNV-1" source="oPZypz6bq9TwNKat6TRu-27" target="oPZypz6bq9TwNKat6TRu-26" edge="1">
          <mxGeometry relative="1" as="geometry">
            <mxPoint x="1440" y="120" as="sourcePoint" />
            <mxPoint x="1470" y="120" as="targetPoint" />
          </mxGeometry>
        </mxCell>
        <mxCell id="oPZypz6bq9TwNKat6TRu-29" value="&lt;div&gt;Visualization&amp;nbsp;&lt;span style=&quot;background-color: transparent; color: light-dark(rgb(0, 0, 0), rgb(255, 255, 255));&quot;&gt;Dashboard&lt;/span&gt;&lt;/div&gt;&lt;div&gt;&lt;span style=&quot;background-color: transparent;&quot;&gt;(Scatter, Trends, Alerts)&lt;/span&gt;&lt;/div&gt;" style="rounded=1;whiteSpace=wrap;html=1;fontSize=12;glass=0;strokeWidth=1;shadow=0;fillColor=#f8cecc;strokeColor=#b85450;" parent="WIyWlLk6GJQsqaUBKTNV-1" vertex="1">
          <mxGeometry x="1480" y="200" width="170" height="40" as="geometry" />
        </mxCell>
        <mxCell id="oPZypz6bq9TwNKat6TRu-31" value="" style="edgeStyle=orthogonalEdgeStyle;rounded=0;orthogonalLoop=1;jettySize=auto;html=1;" parent="WIyWlLk6GJQsqaUBKTNV-1" source="oPZypz6bq9TwNKat6TRu-18" target="oPZypz6bq9TwNKat6TRu-30" edge="1">
          <mxGeometry relative="1" as="geometry">
            <mxPoint x="990" y="130" as="sourcePoint" />
            <mxPoint x="1160" y="130" as="targetPoint" />
          </mxGeometry>
        </mxCell>
        <mxCell id="oPZypz6bq9TwNKat6TRu-30" value="Preprocessing&lt;div&gt;(Clean text,&lt;/div&gt;&lt;div&gt;align timestamps)&lt;/div&gt;" style="rounded=1;whiteSpace=wrap;html=1;fontSize=12;glass=0;strokeWidth=1;shadow=0;fillColor=#dae8fc;strokeColor=#6c8ebf;" parent="WIyWlLk6GJQsqaUBKTNV-1" vertex="1">
          <mxGeometry x="1020" y="100" width="120" height="60" as="geometry" />
        </mxCell>
        <mxCell id="oPZypz6bq9TwNKat6TRu-32" value="" style="edgeStyle=orthogonalEdgeStyle;rounded=0;orthogonalLoop=1;jettySize=auto;html=1;" parent="WIyWlLk6GJQsqaUBKTNV-1" source="oPZypz6bq9TwNKat6TRu-30" target="oPZypz6bq9TwNKat6TRu-24" edge="1">
          <mxGeometry relative="1" as="geometry">
            <mxPoint x="1130" y="130" as="sourcePoint" />
            <mxPoint x="1300" y="130" as="targetPoint" />
          </mxGeometry>
        </mxCell>
        <mxCell id="oPZypz6bq9TwNKat6TRu-24" value="Fear Detection&amp;nbsp;&lt;span style=&quot;background-color: transparent; color: light-dark(rgb(0, 0, 0), rgb(255, 255, 255));&quot;&gt;Model&lt;/span&gt;&lt;div&gt;&lt;span style=&quot;background-color: transparent; color: light-dark(rgb(0, 0, 0), rgb(255, 255, 255));&quot;&gt;(text -&amp;gt; fear score)&lt;/span&gt;&lt;/div&gt;" style="rounded=1;whiteSpace=wrap;html=1;fontSize=12;glass=0;strokeWidth=1;shadow=0;fillColor=#dae8fc;strokeColor=#6c8ebf;" parent="WIyWlLk6GJQsqaUBKTNV-1" vertex="1">
          <mxGeometry x="1170" y="110" width="160" height="40" as="geometry" />
        </mxCell>
        <mxCell id="oPZypz6bq9TwNKat6TRu-39" value="" style="edgeStyle=orthogonalEdgeStyle;rounded=0;orthogonalLoop=1;jettySize=auto;html=1;" parent="WIyWlLk6GJQsqaUBKTNV-1" source="oPZypz6bq9TwNKat6TRu-33" target="oPZypz6bq9TwNKat6TRu-35" edge="1">
          <mxGeometry relative="1" as="geometry" />
        </mxCell>
        <mxCell id="oPZypz6bq9TwNKat6TRu-33" value="Wearable Device&lt;div&gt;(Fitbit, Apple,&lt;/div&gt;&lt;div&gt;Watch, Simulator)&lt;/div&gt;" style="rounded=1;whiteSpace=wrap;html=1;fontSize=12;glass=0;strokeWidth=1;shadow=0;fillColor=#dae8fc;strokeColor=#6c8ebf;" parent="WIyWlLk6GJQsqaUBKTNV-1" vertex="1">
          <mxGeometry x="880" y="670" width="120" height="90" as="geometry" />
        </mxCell>
        <mxCell id="oPZypz6bq9TwNKat6TRu-38" value="" style="edgeStyle=orthogonalEdgeStyle;rounded=0;orthogonalLoop=1;jettySize=auto;html=1;" parent="WIyWlLk6GJQsqaUBKTNV-1" source="oPZypz6bq9TwNKat6TRu-34" target="oPZypz6bq9TwNKat6TRu-36" edge="1">
          <mxGeometry relative="1" as="geometry" />
        </mxCell>
        <mxCell id="oPZypz6bq9TwNKat6TRu-34" value="Transcript Source&lt;div&gt;&lt;span style=&quot;background-color: transparent; color: light-dark(rgb(0, 0, 0), rgb(255, 255, 255));&quot;&gt;(TV/News/Social)&lt;/span&gt;&lt;/div&gt;" style="rounded=1;whiteSpace=wrap;html=1;fontSize=12;glass=0;strokeWidth=1;shadow=0;fillColor=#dae8fc;strokeColor=#6c8ebf;" parent="WIyWlLk6GJQsqaUBKTNV-1" vertex="1">
          <mxGeometry x="880" y="410" width="120" height="90" as="geometry" />
        </mxCell>
        <mxCell id="oPZypz6bq9TwNKat6TRu-35" value="Wearable API /&lt;div&gt;&lt;span style=&quot;background-color: transparent; color: light-dark(rgb(0, 0, 0), rgb(255, 255, 255));&quot;&gt;Data Collector&lt;/span&gt;&lt;/div&gt;" style="rounded=1;whiteSpace=wrap;html=1;fontSize=12;glass=0;strokeWidth=1;shadow=0;fillColor=#dae8fc;strokeColor=#6c8ebf;" parent="WIyWlLk6GJQsqaUBKTNV-1" vertex="1">
          <mxGeometry x="1060" y="670" width="120" height="90" as="geometry" />
        </mxCell>
        <mxCell id="oPZypz6bq9TwNKat6TRu-41" style="edgeStyle=orthogonalEdgeStyle;rounded=0;orthogonalLoop=1;jettySize=auto;html=1;entryX=0.5;entryY=0;entryDx=0;entryDy=0;" parent="WIyWlLk6GJQsqaUBKTNV-1" source="69ZriI8vQTjnaDF4MFiF-8" target="oPZypz6bq9TwNKat6TRu-37" edge="1">
          <mxGeometry relative="1" as="geometry" />
        </mxCell>
        <mxCell id="oPZypz6bq9TwNKat6TRu-36" value="Ingestion Service&lt;div&gt;(text fetch)&lt;/div&gt;" style="rounded=1;whiteSpace=wrap;html=1;fontSize=12;glass=0;strokeWidth=1;shadow=0;fillColor=#dae8fc;strokeColor=#6c8ebf;" parent="WIyWlLk6GJQsqaUBKTNV-1" vertex="1">
          <mxGeometry x="1040" y="410" width="120" height="90" as="geometry" />
        </mxCell>
        <mxCell id="69ZriI8vQTjnaDF4MFiF-6" value="" style="edgeStyle=orthogonalEdgeStyle;rounded=0;orthogonalLoop=1;jettySize=auto;html=1;" parent="WIyWlLk6GJQsqaUBKTNV-1" source="oPZypz6bq9TwNKat6TRu-37" target="69ZriI8vQTjnaDF4MFiF-4" edge="1">
          <mxGeometry relative="1" as="geometry" />
        </mxCell>
        <mxCell id="oPZypz6bq9TwNKat6TRu-37" value="Backend Processing&lt;div&gt;- Preprocessing&lt;/div&gt;&lt;div&gt;- Fear Detection Model&lt;/div&gt;&lt;div&gt;-Correlation Engine&lt;/div&gt;" style="rounded=1;whiteSpace=wrap;html=1;fontSize=12;glass=0;strokeWidth=1;shadow=0;fillColor=#dae8fc;strokeColor=#6c8ebf;align=left;" parent="WIyWlLk6GJQsqaUBKTNV-1" vertex="1">
          <mxGeometry x="1210" y="540" width="140" height="115" as="geometry" />
        </mxCell>
        <mxCell id="oPZypz6bq9TwNKat6TRu-40" style="edgeStyle=orthogonalEdgeStyle;rounded=0;orthogonalLoop=1;jettySize=auto;html=1;entryX=0.544;entryY=1.006;entryDx=0;entryDy=0;entryPerimeter=0;" parent="WIyWlLk6GJQsqaUBKTNV-1" source="oPZypz6bq9TwNKat6TRu-35" target="oPZypz6bq9TwNKat6TRu-37" edge="1">
          <mxGeometry relative="1" as="geometry" />
        </mxCell>
        <mxCell id="69ZriI8vQTjnaDF4MFiF-3" value="&lt;p style=&quot;text-align: left; text-wrap-mode: nowrap;&quot; data-end=&quot;165&quot; data-start=&quot;0&quot;&gt;Transcript is generated from TV/News -&amp;gt; passed to the Fear Deterction Model -&amp;gt; Outputs a Fear Score&lt;/p&gt;&lt;p style=&quot;text-align: left; text-wrap-mode: nowrap;&quot; data-end=&quot;165&quot; data-start=&quot;0&quot;&gt;In parallel, a patient Heart Rate is collected from a sensor OR Simulated&lt;/p&gt;&lt;p style=&quot;text-align: left; text-wrap-mode: nowrap;&quot; data-end=&quot;165&quot; data-start=&quot;0&quot;&gt;Both feed into a correlation and visualization module to show how fear intensity aligns with psychological stress&lt;/p&gt;" style="text;html=1;align=center;verticalAlign=middle;whiteSpace=wrap;rounded=0;" parent="WIyWlLk6GJQsqaUBKTNV-1" vertex="1">
          <mxGeometry x="90" y="354" width="600" height="110" as="geometry" />
        </mxCell>
        <mxCell id="69ZriI8vQTjnaDF4MFiF-7" value="" style="edgeStyle=orthogonalEdgeStyle;rounded=0;orthogonalLoop=1;jettySize=auto;html=1;" parent="WIyWlLk6GJQsqaUBKTNV-1" source="69ZriI8vQTjnaDF4MFiF-4" target="69ZriI8vQTjnaDF4MFiF-5" edge="1">
          <mxGeometry relative="1" as="geometry" />
        </mxCell>
        <mxCell id="69ZriI8vQTjnaDF4MFiF-4" value="Visualization /&lt;div&gt;Time-Series plots&lt;/div&gt;" style="rounded=1;whiteSpace=wrap;html=1;fontSize=12;glass=0;strokeWidth=1;shadow=0;fillColor=#dae8fc;strokeColor=#6c8ebf;" parent="WIyWlLk6GJQsqaUBKTNV-1" vertex="1">
          <mxGeometry x="1380" y="552.5" width="120" height="90" as="geometry" />
        </mxCell>
        <mxCell id="69ZriI8vQTjnaDF4MFiF-5" value="Doctor Dashboard&lt;div&gt;- Alerts if threshold is reached&lt;/div&gt;&lt;div&gt;- Reports and Trends&lt;/div&gt;" style="rounded=1;whiteSpace=wrap;html=1;fontSize=12;glass=0;strokeWidth=1;shadow=0;fillColor=#dae8fc;strokeColor=#6c8ebf;" parent="WIyWlLk6GJQsqaUBKTNV-1" vertex="1">
          <mxGeometry x="1540" y="552.5" width="120" height="90" as="geometry" />
        </mxCell>
        <mxCell id="69ZriI8vQTjnaDF4MFiF-9" value="" style="edgeStyle=orthogonalEdgeStyle;rounded=0;orthogonalLoop=1;jettySize=auto;html=1;entryX=0;entryY=0.5;entryDx=0;entryDy=0;" parent="WIyWlLk6GJQsqaUBKTNV-1" source="oPZypz6bq9TwNKat6TRu-36" target="69ZriI8vQTjnaDF4MFiF-8" edge="1">
          <mxGeometry relative="1" as="geometry">
            <mxPoint x="1180" y="455" as="sourcePoint" />
            <mxPoint x="1280" y="570" as="targetPoint" />
          </mxGeometry>
        </mxCell>
        <mxCell id="69ZriI8vQTjnaDF4MFiF-8" value="Falconsai Detection&amp;nbsp;&lt;span style=&quot;background-color: transparent; color: light-dark(rgb(0, 0, 0), rgb(255, 255, 255));&quot;&gt;Model&lt;/span&gt;&lt;div&gt;&lt;span style=&quot;background-color: transparent; color: light-dark(rgb(0, 0, 0), rgb(255, 255, 255));&quot;&gt;(text -&amp;gt; fear score)&lt;/span&gt;&lt;/div&gt;" style="rounded=1;whiteSpace=wrap;html=1;fontSize=12;glass=0;strokeWidth=1;shadow=0;fillColor=#dae8fc;strokeColor=#6c8ebf;" parent="WIyWlLk6GJQsqaUBKTNV-1" vertex="1">
          <mxGeometry x="1200" y="435" width="160" height="40" as="geometry" />
        </mxCell>
        <mxCell id="69ZriI8vQTjnaDF4MFiF-10" value="&lt;p data-end=&quot;1202&quot; data-start=&quot;1160&quot;&gt;So the doctor sees a &lt;strong data-end=&quot;1194&quot; data-start=&quot;1181&quot;&gt;dashboard&lt;/strong&gt; that:&lt;/p&gt;&lt;p data-end=&quot;1202&quot; data-start=&quot;1160&quot;&gt;&lt;span style=&quot;background-color: transparent; color: light-dark(rgb(0, 0, 0), rgb(255, 255, 255));&quot;&gt;- Plots &lt;/span&gt;&lt;strong style=&quot;background-color: transparent; color: light-dark(rgb(0, 0, 0), rgb(255, 255, 255));&quot; data-end=&quot;1240&quot; data-start=&quot;1211&quot;&gt;fear score vs. heart rate&lt;/strong&gt;&lt;span style=&quot;background-color: transparent; color: light-dark(rgb(0, 0, 0), rgb(255, 255, 255));&quot;&gt; over time&lt;/span&gt;&lt;/p&gt;&lt;p data-end=&quot;1202&quot; data-start=&quot;1160&quot;&gt;&lt;span style=&quot;background-color: transparent; color: light-dark(rgb(0, 0, 0), rgb(255, 255, 255));&quot;&gt;- Issues &lt;/span&gt;&lt;strong style=&quot;background-color: transparent; color: light-dark(rgb(0, 0, 0), rgb(255, 255, 255));&quot; data-end=&quot;1272&quot; data-start=&quot;1262&quot;&gt;alerts&lt;/strong&gt;&lt;span style=&quot;background-color: transparent; color: light-dark(rgb(0, 0, 0), rgb(255, 255, 255));&quot;&gt; if correlation exceeds a set threshold&lt;/span&gt;&lt;/p&gt;&lt;p data-end=&quot;1202&quot; data-start=&quot;1160&quot;&gt;&lt;span style=&quot;background-color: transparent; color: light-dark(rgb(0, 0, 0), rgb(255, 255, 255));&quot;&gt;- Allows &lt;/span&gt;&lt;strong style=&quot;background-color: transparent; color: light-dark(rgb(0, 0, 0), rgb(255, 255, 255));&quot; data-end=&quot;1345&quot; data-start=&quot;1323&quot;&gt;historical reports&lt;/strong&gt;&lt;span style=&quot;background-color: transparent; color: light-dark(rgb(0, 0, 0), rgb(255, 255, 255));&quot;&gt; for research or POC demo&lt;/span&gt;&lt;/p&gt;" style="text;html=1;align=left;verticalAlign=middle;whiteSpace=wrap;rounded=0;" parent="WIyWlLk6GJQsqaUBKTNV-1" vertex="1">
          <mxGeometry x="1330" y="713" width="300" height="110" as="geometry" />
        </mxCell>
        <mxCell id="XL1AVDFbVfTAMq6u_eOz-0" value="" style="edgeStyle=orthogonalEdgeStyle;rounded=0;orthogonalLoop=1;jettySize=auto;html=1;entryX=0;entryY=0.5;entryDx=0;entryDy=0;" parent="WIyWlLk6GJQsqaUBKTNV-1" source="DBazjf379_bZvMSUQni4-8" target="DBazjf379_bZvMSUQni4-15" edge="1">
          <mxGeometry relative="1" as="geometry">
            <mxPoint x="2120" y="429" as="sourcePoint" />
          </mxGeometry>
        </mxCell>
        <mxCell id="XL1AVDFbVfTAMq6u_eOz-2" value="" style="edgeStyle=orthogonalEdgeStyle;rounded=0;orthogonalLoop=1;jettySize=auto;html=1;entryX=0;entryY=0.5;entryDx=0;entryDy=0;exitX=1;exitY=0.5;exitDx=0;exitDy=0;" parent="WIyWlLk6GJQsqaUBKTNV-1" source="DBazjf379_bZvMSUQni4-0" target="DBazjf379_bZvMSUQni4-9" edge="1">
          <mxGeometry relative="1" as="geometry">
            <mxPoint x="2150" y="199.9999999999999" as="targetPoint" />
            <mxPoint x="2060" y="147.5" as="sourcePoint" />
          </mxGeometry>
        </mxCell>
        <mxCell id="XL1AVDFbVfTAMq6u_eOz-5" style="edgeStyle=orthogonalEdgeStyle;rounded=0;orthogonalLoop=1;jettySize=auto;html=1;entryX=0;entryY=0.5;entryDx=0;entryDy=0;exitX=1;exitY=0.5;exitDx=0;exitDy=0;" parent="WIyWlLk6GJQsqaUBKTNV-1" source="DBazjf379_bZvMSUQni4-15" target="DBazjf379_bZvMSUQni4-16" edge="1">
          <mxGeometry relative="1" as="geometry">
            <mxPoint x="2660" y="310.0526315789473" as="sourcePoint" />
            <mxPoint x="3160" y="250" as="targetPoint" />
          </mxGeometry>
        </mxCell>
        <mxCell id="XL1AVDFbVfTAMq6u_eOz-9" style="edgeStyle=orthogonalEdgeStyle;rounded=0;orthogonalLoop=1;jettySize=auto;html=1;entryX=0;entryY=0.5;entryDx=0;entryDy=0;exitX=1;exitY=0.5;exitDx=0;exitDy=0;" parent="WIyWlLk6GJQsqaUBKTNV-1" source="DBazjf379_bZvMSUQni4-16" target="DBazjf379_bZvMSUQni4-18" edge="1">
          <mxGeometry relative="1" as="geometry">
            <mxPoint x="2520" y="788.0526315789475" as="sourcePoint" />
            <mxPoint x="3180" y="655" as="targetPoint" />
          </mxGeometry>
        </mxCell>
        <mxCell id="XL1AVDFbVfTAMq6u_eOz-12" value="&lt;div&gt;&lt;font style=&quot;font-size: 16px;&quot;&gt;Alerts&lt;/font&gt;&lt;/div&gt;&lt;font style=&quot;font-size: 16px;&quot;&gt;Doctor Dashboard&lt;/font&gt;&lt;div&gt;&lt;font style=&quot;font-size: 16px;&quot;&gt;- Alerts if threshold is reached&lt;/font&gt;&lt;/div&gt;&lt;div&gt;&lt;font style=&quot;font-size: 16px;&quot;&gt;- Reports and Trends&lt;/font&gt;&lt;/div&gt;" style="rounded=1;whiteSpace=wrap;html=1;fontSize=12;glass=0;strokeWidth=1;shadow=0;fillColor=#dae8fc;strokeColor=#6c8ebf;" parent="WIyWlLk6GJQsqaUBKTNV-1" vertex="1">
          <mxGeometry x="2990" y="590" width="280" height="90" as="geometry" />
        </mxCell>
        <mxCell id="XL1AVDFbVfTAMq6u_eOz-15" value="&lt;p data-end=&quot;1202&quot; data-start=&quot;1160&quot;&gt;So the doctor sees a &lt;strong data-end=&quot;1194&quot; data-start=&quot;1181&quot;&gt;dashboard&lt;/strong&gt; that:&lt;/p&gt;&lt;p data-end=&quot;1202&quot; data-start=&quot;1160&quot;&gt;&lt;span style=&quot;background-color: transparent; color: light-dark(rgb(0, 0, 0), rgb(255, 255, 255));&quot;&gt;- Plots &lt;/span&gt;&lt;strong style=&quot;background-color: transparent; color: light-dark(rgb(0, 0, 0), rgb(255, 255, 255));&quot; data-end=&quot;1240&quot; data-start=&quot;1211&quot;&gt;fear score vs. heart rate&lt;/strong&gt;&lt;span style=&quot;background-color: transparent; color: light-dark(rgb(0, 0, 0), rgb(255, 255, 255));&quot;&gt; over time&lt;/span&gt;&lt;/p&gt;&lt;p data-end=&quot;1202&quot; data-start=&quot;1160&quot;&gt;&lt;span style=&quot;background-color: transparent; color: light-dark(rgb(0, 0, 0), rgb(255, 255, 255));&quot;&gt;- Issues &lt;/span&gt;&lt;strong style=&quot;background-color: transparent; color: light-dark(rgb(0, 0, 0), rgb(255, 255, 255));&quot; data-end=&quot;1272&quot; data-start=&quot;1262&quot;&gt;alerts&lt;/strong&gt;&lt;span style=&quot;background-color: transparent; color: light-dark(rgb(0, 0, 0), rgb(255, 255, 255));&quot;&gt; if correlation exceeds a set threshold&lt;/span&gt;&lt;/p&gt;&lt;p data-end=&quot;1202&quot; data-start=&quot;1160&quot;&gt;&lt;span style=&quot;background-color: transparent; color: light-dark(rgb(0, 0, 0), rgb(255, 255, 255));&quot;&gt;- Allows &lt;/span&gt;&lt;strong style=&quot;background-color: transparent; color: light-dark(rgb(0, 0, 0), rgb(255, 255, 255));&quot; data-end=&quot;1345&quot; data-start=&quot;1323&quot;&gt;historical reports&lt;/strong&gt;&lt;span style=&quot;background-color: transparent; color: light-dark(rgb(0, 0, 0), rgb(255, 255, 255));&quot;&gt; for research or POC demo&lt;/span&gt;&lt;/p&gt;" style="text;html=1;align=left;verticalAlign=middle;whiteSpace=wrap;rounded=0;" parent="WIyWlLk6GJQsqaUBKTNV-1" vertex="1">
          <mxGeometry x="3020" y="735" width="300" height="110" as="geometry" />
        </mxCell>
        <mxCell id="XL1AVDFbVfTAMq6u_eOz-17" value="" style="edgeStyle=orthogonalEdgeStyle;rounded=0;orthogonalLoop=1;jettySize=auto;html=1;exitX=0.5;exitY=1;exitDx=0;exitDy=0;entryX=0.5;entryY=0;entryDx=0;entryDy=0;" parent="WIyWlLk6GJQsqaUBKTNV-1" source="DBazjf379_bZvMSUQni4-10" target="DBazjf379_bZvMSUQni4-16" edge="1">
          <mxGeometry relative="1" as="geometry">
            <mxPoint x="3240" y="282.5000000000002" as="sourcePoint" />
          </mxGeometry>
        </mxCell>
        <mxCell id="Kwc-Y_RFrV1gVgmuOGEf-2" value="&lt;h2 data-end=&quot;257&quot; data-start=&quot;235&quot;&gt;&lt;strong data-end=&quot;257&quot; data-start=&quot;238&quot;&gt;High-Level Plan&lt;/strong&gt;&lt;/h2&gt;&lt;ol data-end=&quot;542&quot; data-start=&quot;273&quot;&gt;&lt;li data-end=&quot;335&quot; data-start=&quot;273&quot;&gt;&lt;p data-end=&quot;335&quot; data-start=&quot;276&quot;&gt;&lt;strong data-end=&quot;317&quot; data-start=&quot;276&quot;&gt;Fetch heart rate data from Fitbit API&lt;/strong&gt; (live or batch)&lt;/p&gt;&lt;/li&gt;&lt;li data-end=&quot;388&quot; data-start=&quot;336&quot;&gt;&lt;p data-end=&quot;388&quot; data-start=&quot;339&quot;&gt;&lt;strong data-end=&quot;362&quot; data-start=&quot;339&quot;&gt;Run your fear model&lt;/strong&gt; on transcripts or video&lt;/p&gt;&lt;/li&gt;&lt;li data-end=&quot;425&quot; data-start=&quot;389&quot;&gt;&lt;p data-end=&quot;425&quot; data-start=&quot;392&quot;&gt;&lt;strong data-end=&quot;423&quot; data-start=&quot;392&quot;&gt;Align both datasets in time&lt;/strong&gt;&lt;/p&gt;&lt;/li&gt;&lt;li data-end=&quot;472&quot; data-start=&quot;426&quot;&gt;&lt;p data-end=&quot;472&quot; data-start=&quot;429&quot;&gt;&lt;strong data-end=&quot;447&quot; data-start=&quot;429&quot;&gt;Visualize them&lt;/strong&gt; in a synchronized plot&lt;/p&gt;&lt;/li&gt;&lt;li data-end=&quot;542&quot; data-start=&quot;473&quot;&gt;&lt;p data-end=&quot;542&quot; data-start=&quot;476&quot;&gt;Make it &lt;strong data-end=&quot;499&quot; data-start=&quot;484&quot;&gt;interactive&lt;/strong&gt; so you can explore the data in Streamlit&lt;/p&gt;&lt;/li&gt;&lt;/ol&gt;&lt;div&gt;&lt;strong style=&quot;background-color: transparent; color: light-dark(rgb(0, 0, 0), rgb(255, 255, 255));&quot; data-end=&quot;578&quot; data-start=&quot;553&quot;&gt;&lt;br&gt;&lt;/strong&gt;&lt;/div&gt;&lt;div&gt;&lt;strong style=&quot;background-color: transparent; color: light-dark(rgb(0, 0, 0), rgb(255, 255, 255));&quot; data-end=&quot;578&quot; data-start=&quot;553&quot;&gt;Step 1 — Data Sources&lt;/strong&gt;&lt;/div&gt;&lt;div&gt;&lt;ul data-end=&quot;710&quot; data-start=&quot;589&quot;&gt;&lt;li data-end=&quot;652&quot; data-start=&quot;589&quot;&gt;&lt;p data-end=&quot;652&quot; data-start=&quot;591&quot;&gt;Fitbit API → gives you heart rate time series with timestamps&lt;/p&gt;&lt;/li&gt;&lt;li data-end=&quot;710&quot; data-start=&quot;653&quot;&gt;&lt;p data-end=&quot;710&quot; data-start=&quot;655&quot;&gt;Fear model CSV → already has timestamps and fear scores&lt;/p&gt;&lt;/li&gt;&lt;/ul&gt;&lt;div&gt;&lt;br&gt;&lt;/div&gt;&lt;/div&gt;&lt;div&gt;&lt;h3 data-end=&quot;781&quot; data-start=&quot;741&quot;&gt;&lt;strong data-end=&quot;781&quot; data-start=&quot;745&quot;&gt;Step 2 — Time Alignment Strategy&lt;/strong&gt;&lt;/h3&gt;&lt;p data-end=&quot;839&quot; data-start=&quot;783&quot;&gt;These datasets may not have exactly matching timestamps:&lt;/p&gt;&lt;ul data-end=&quot;976&quot; data-start=&quot;840&quot;&gt;&lt;li data-end=&quot;897&quot; data-start=&quot;840&quot;&gt;&lt;p data-end=&quot;897&quot; data-start=&quot;842&quot;&gt;Fitbit: timestamps in ISO format, possibly with seconds&lt;/p&gt;&lt;/li&gt;&lt;li data-end=&quot;976&quot; data-start=&quot;898&quot;&gt;&lt;p data-end=&quot;976&quot; data-start=&quot;900&quot;&gt;Fear model: timestamps may be relative to the start of a transcript or video&lt;/p&gt;&lt;/li&gt;&lt;/ul&gt;&lt;p data-end=&quot;989&quot; data-start=&quot;978&quot;&gt;We need to:&lt;/p&gt;&lt;ol data-end=&quot;1176&quot; data-start=&quot;990&quot;&gt;&lt;li data-end=&quot;1030&quot; data-start=&quot;990&quot;&gt;&lt;p data-end=&quot;1030&quot; data-start=&quot;993&quot;&gt;Make both datasets &lt;strong data-end=&quot;1030&quot; data-start=&quot;1012&quot;&gt;timezone-aware&lt;/strong&gt;&lt;/p&gt;&lt;/li&gt;&lt;li data-end=&quot;1076&quot; data-start=&quot;1031&quot;&gt;&lt;p data-end=&quot;1076&quot; data-start=&quot;1034&quot;&gt;Anchor them to a &lt;strong data-end=&quot;1076&quot; data-start=&quot;1051&quot;&gt;common starting point&lt;/strong&gt;&lt;/p&gt;&lt;/li&gt;&lt;li data-end=&quot;1136&quot; data-start=&quot;1077&quot;&gt;&lt;p data-end=&quot;1136&quot; data-start=&quot;1080&quot;&gt;Resample them to a &lt;strong data-end=&quot;1119&quot; data-start=&quot;1099&quot;&gt;common frequency&lt;/strong&gt; (e.g., 1 minute)&lt;/p&gt;&lt;/li&gt;&lt;li data-end=&quot;1176&quot; data-start=&quot;1137&quot;&gt;&lt;p data-end=&quot;1176&quot; data-start=&quot;1140&quot;&gt;Trim to their overlapping time range&lt;/p&gt;&lt;/li&gt;&lt;/ol&gt;&lt;div&gt;&lt;br&gt;&lt;/div&gt;&lt;/div&gt;&lt;div&gt;&lt;h3 data-end=&quot;1760&quot; data-start=&quot;1723&quot;&gt;&lt;strong data-end=&quot;1760&quot; data-start=&quot;1727&quot;&gt;Step 3 — Architecture Options&lt;/strong&gt;&lt;/h3&gt;&lt;h4 data-end=&quot;1798&quot; data-start=&quot;1762&quot;&gt;&lt;strong data-end=&quot;1798&quot; data-start=&quot;1767&quot;&gt;Option A — Batch Processing&lt;/strong&gt;&lt;/h4&gt;&lt;ul data-end=&quot;1896&quot; data-start=&quot;1799&quot;&gt;&lt;li data-end=&quot;1838&quot; data-start=&quot;1799&quot;&gt;&lt;p data-end=&quot;1838&quot; data-start=&quot;1801&quot;&gt;Run Fitbit API fetch once per session&lt;/p&gt;&lt;/li&gt;&lt;li data-end=&quot;1858&quot; data-start=&quot;1839&quot;&gt;&lt;p data-end=&quot;1858&quot; data-start=&quot;1841&quot;&gt;Store data in CSV&lt;/p&gt;&lt;/li&gt;&lt;li data-end=&quot;1896&quot; data-start=&quot;1859&quot;&gt;&lt;p data-end=&quot;1896&quot; data-start=&quot;1861&quot;&gt;Merge with fear model results later&lt;/p&gt;&lt;/li&gt;&lt;/ul&gt;&lt;p data-end=&quot;1942&quot; data-start=&quot;1898&quot;&gt;&lt;strong data-end=&quot;1907&quot; data-start=&quot;1898&quot;&gt;Pros:&lt;/strong&gt; Simple&lt;br data-end=&quot;1917&quot; data-start=&quot;1914&quot;&gt;&lt;br&gt;&lt;strong data-end=&quot;1926&quot; data-start=&quot;1917&quot;&gt;Cons:&lt;/strong&gt; No live updates&lt;/p&gt;&lt;h4 data-end=&quot;1986&quot; data-start=&quot;1944&quot;&gt;&lt;strong data-end=&quot;1986&quot; data-start=&quot;1949&quot;&gt;Option B — Live Stream Processing&lt;/strong&gt;&lt;/h4&gt;&lt;ul data-end=&quot;2119&quot; data-start=&quot;1987&quot;&gt;&lt;li data-end=&quot;2036&quot; data-start=&quot;1987&quot;&gt;&lt;p data-end=&quot;2036&quot; data-start=&quot;1989&quot;&gt;Fitbit API → fetch real-time data in background&lt;/p&gt;&lt;/li&gt;&lt;li data-end=&quot;2086&quot; data-start=&quot;2037&quot;&gt;&lt;p data-end=&quot;2086&quot; data-start=&quot;2039&quot;&gt;Fear model → run in real time or near real time&lt;/p&gt;&lt;/li&gt;&lt;li data-end=&quot;2119&quot; data-start=&quot;2087&quot;&gt;&lt;p data-end=&quot;2119&quot; data-start=&quot;2089&quot;&gt;Streamlit updates continuously&lt;/p&gt;&lt;/li&gt;&lt;/ul&gt;&lt;p data-end=&quot;2201&quot; data-start=&quot;2121&quot;&gt;&lt;strong data-end=&quot;2130&quot; data-start=&quot;2121&quot;&gt;Pros:&lt;/strong&gt; Interactive&lt;br data-end=&quot;2145&quot; data-start=&quot;2142&quot;&gt;&lt;br&gt;&lt;strong data-end=&quot;2154&quot; data-start=&quot;2145&quot;&gt;Cons:&lt;/strong&gt; More complex (requires scheduling + API calls)&lt;/p&gt;&lt;p data-end=&quot;2201&quot; data-start=&quot;2121&quot;&gt;&lt;br&gt;&lt;/p&gt;&lt;h3 data-end=&quot;2249&quot; data-start=&quot;2208&quot;&gt;&lt;strong data-end=&quot;2249&quot; data-start=&quot;2212&quot;&gt;Step 4 — Streamlit Implementation&lt;/strong&gt;&lt;/h3&gt;&lt;ol data-end=&quot;2387&quot; data-start=&quot;2281&quot;&gt;&lt;li data-end=&quot;2312&quot; data-start=&quot;2281&quot;&gt;&lt;p data-end=&quot;2312&quot; data-start=&quot;2284&quot;&gt;&lt;strong data-end=&quot;2303&quot; data-start=&quot;2284&quot;&gt;Upload or fetch&lt;/strong&gt; datasets&lt;/p&gt;&lt;/li&gt;&lt;li data-end=&quot;2346&quot; data-start=&quot;2313&quot;&gt;&lt;p data-end=&quot;2346&quot; data-start=&quot;2316&quot;&gt;&lt;strong data-end=&quot;2335&quot; data-start=&quot;2316&quot;&gt;Process &amp;amp; align&lt;/strong&gt; timestamps&lt;/p&gt;&lt;/li&gt;&lt;li data-end=&quot;2362&quot; data-start=&quot;2347&quot;&gt;&lt;p data-end=&quot;2362&quot; data-start=&quot;2350&quot;&gt;&lt;strong data-end=&quot;2362&quot; data-start=&quot;2350&quot;&gt;Resample&lt;/strong&gt;&lt;/p&gt;&lt;/li&gt;&lt;li data-end=&quot;2375&quot; data-start=&quot;2363&quot;&gt;&lt;p data-end=&quot;2375&quot; data-start=&quot;2366&quot;&gt;&lt;strong data-end=&quot;2375&quot; data-start=&quot;2366&quot;&gt;Merge&lt;/strong&gt;&lt;/p&gt;&lt;/li&gt;&lt;li data-end=&quot;2387&quot; data-start=&quot;2376&quot;&gt;&lt;p data-end=&quot;2387&quot; data-start=&quot;2379&quot;&gt;&lt;strong data-end=&quot;2387&quot; data-start=&quot;2379&quot;&gt;Plot&lt;/strong&gt;&lt;/p&gt;&lt;/li&gt;&lt;/ol&gt;&lt;/div&gt;" style="text;html=1;align=left;verticalAlign=middle;whiteSpace=wrap;rounded=0;" parent="WIyWlLk6GJQsqaUBKTNV-1" vertex="1">
          <mxGeometry x="26.5" y="1100" width="453.5" height="1130" as="geometry" />
        </mxCell>
        <mxCell id="Kwc-Y_RFrV1gVgmuOGEf-3" value="&lt;h3 data-end=&quot;1108&quot; data-start=&quot;1092&quot;&gt;&lt;strong data-end=&quot;1108&quot; data-start=&quot;1096&quot;&gt;Workflow&lt;/strong&gt;&lt;/h3&gt;&lt;h4 data-end=&quot;1163&quot; data-start=&quot;1109&quot;&gt;&lt;strong data-end=&quot;1163&quot; data-start=&quot;1114&quot;&gt;Step 1 — Choose fear transcript(s) to analyze&lt;/strong&gt;&lt;/h4&gt;&lt;p data-end=&quot;1176&quot; data-start=&quot;1164&quot;&gt;For example:&lt;/p&gt;&lt;ul data-end=&quot;1298&quot; data-start=&quot;1177&quot;&gt;&lt;li data-end=&quot;1230&quot; data-start=&quot;1177&quot;&gt;&lt;p data-end=&quot;1230&quot; data-start=&quot;1179&quot;&gt;User selects a transcript (or multiple transcripts)&lt;/p&gt;&lt;/li&gt;&lt;li data-end=&quot;1298&quot; data-start=&quot;1231&quot;&gt;&lt;p data-end=&quot;1298&quot; data-start=&quot;1233&quot;&gt;You get fear scores for those transcripts from the stored dataset&lt;/p&gt;&lt;/li&gt;&lt;/ul&gt;&lt;h4 data-end=&quot;1349&quot; data-start=&quot;1300&quot;&gt;&lt;strong data-end=&quot;1349&quot; data-start=&quot;1305&quot;&gt;Step 2 — Fetch corresponding Fitbit data&lt;/strong&gt;&lt;/h4&gt;&lt;ul data-end=&quot;1476&quot; data-start=&quot;1350&quot;&gt;&lt;li data-end=&quot;1381&quot; data-start=&quot;1350&quot;&gt;&lt;p data-end=&quot;1381&quot; data-start=&quot;1352&quot;&gt;Either from Fitbit API live&lt;/p&gt;&lt;/li&gt;&lt;li data-end=&quot;1424&quot; data-start=&quot;1382&quot;&gt;&lt;p data-end=&quot;1424&quot; data-start=&quot;1384&quot;&gt;Or from already downloaded Fitbit CSVs&lt;/p&gt;&lt;/li&gt;&lt;li data-end=&quot;1476&quot; data-start=&quot;1425&quot;&gt;&lt;p data-end=&quot;1476&quot; data-start=&quot;1427&quot;&gt;Time range is based on the transcript(s) selected&lt;/p&gt;&lt;/li&gt;&lt;/ul&gt;&lt;h4 data-end=&quot;1510&quot; data-start=&quot;1478&quot;&gt;&lt;strong data-end=&quot;1510&quot; data-start=&quot;1483&quot;&gt;Step 3 — Time alignment&lt;/strong&gt;&lt;/h4&gt;&lt;ul data-end=&quot;1667&quot; data-start=&quot;1511&quot;&gt;&lt;li data-end=&quot;1560&quot; data-start=&quot;1511&quot;&gt;&lt;p data-end=&quot;1560&quot; data-start=&quot;1513&quot;&gt;Anchor both datasets to the same starting point&lt;/p&gt;&lt;/li&gt;&lt;li data-end=&quot;1612&quot; data-start=&quot;1561&quot;&gt;&lt;p data-end=&quot;1612&quot; data-start=&quot;1563&quot;&gt;Resample both to a common frequency (e.g., 1 min)&lt;/p&gt;&lt;/li&gt;&lt;li data-end=&quot;1667&quot; data-start=&quot;1613&quot;&gt;&lt;p data-end=&quot;1667&quot; data-start=&quot;1615&quot;&gt;Trim Fitbit data to transcript fear score time range&lt;/p&gt;&lt;/li&gt;&lt;/ul&gt;" style="text;html=1;align=left;verticalAlign=middle;whiteSpace=wrap;rounded=0;" parent="WIyWlLk6GJQsqaUBKTNV-1" vertex="1">
          <mxGeometry x="500" y="1130" width="320" height="380" as="geometry" />
        </mxCell>
        <mxCell id="DBazjf379_bZvMSUQni4-7" style="edgeStyle=orthogonalEdgeStyle;rounded=0;orthogonalLoop=1;jettySize=auto;html=1;entryX=0.5;entryY=0;entryDx=0;entryDy=0;" edge="1" parent="WIyWlLk6GJQsqaUBKTNV-1" source="DBazjf379_bZvMSUQni4-0" target="DBazjf379_bZvMSUQni4-8">
          <mxGeometry relative="1" as="geometry" />
        </mxCell>
        <mxCell id="DBazjf379_bZvMSUQni4-0" value="&lt;font style=&quot;font-size: 16px;&quot;&gt;Data Sources&lt;/font&gt;&lt;div&gt;&lt;font style=&quot;font-size: 16px;&quot;&gt;(Videos,&amp;nbsp;&lt;span style=&quot;background-color: transparent; color: light-dark(rgb(0, 0, 0), rgb(255, 255, 255));&quot;&gt;Transcripts,&amp;nbsp;&lt;/span&gt;&lt;span style=&quot;background-color: transparent; color: light-dark(rgb(0, 0, 0), rgb(255, 255, 255));&quot;&gt;APIs,&amp;nbsp;&lt;/span&gt;&lt;span style=&quot;background-color: transparent; color: light-dark(rgb(0, 0, 0), rgb(255, 255, 255));&quot;&gt;CSV files)&lt;/span&gt;&lt;/font&gt;&lt;/div&gt;" style="rounded=0;whiteSpace=wrap;html=1;" vertex="1" parent="WIyWlLk6GJQsqaUBKTNV-1">
          <mxGeometry x="1810" y="160" width="260" height="80" as="geometry" />
        </mxCell>
        <mxCell id="DBazjf379_bZvMSUQni4-2" value="" style="image;html=1;image=img/lib/clip_art/people/Doctor_Woman_128x128.png" vertex="1" parent="WIyWlLk6GJQsqaUBKTNV-1">
          <mxGeometry x="2920" y="710" width="80" height="80" as="geometry" />
        </mxCell>
        <mxCell id="DBazjf379_bZvMSUQni4-3" value="" style="image;html=1;image=img/lib/clip_art/people/Doctor_Man_Black_128x128.png" vertex="1" parent="WIyWlLk6GJQsqaUBKTNV-1">
          <mxGeometry x="2840" y="765" width="80" height="80" as="geometry" />
        </mxCell>
        <mxCell id="DBazjf379_bZvMSUQni4-4" value="" style="image;html=1;image=img/lib/clip_art/people/Doctor_Man_128x128.png" vertex="1" parent="WIyWlLk6GJQsqaUBKTNV-1">
          <mxGeometry x="2930" y="790" width="80" height="80" as="geometry" />
        </mxCell>
        <mxCell id="DBazjf379_bZvMSUQni4-6" value="" style="image;html=1;image=img/lib/clip_art/people/Nurse_Woman_Black_128x128.png" vertex="1" parent="WIyWlLk6GJQsqaUBKTNV-1">
          <mxGeometry x="2780" y="765" width="80" height="80" as="geometry" />
        </mxCell>
        <mxCell id="DBazjf379_bZvMSUQni4-8" value="&lt;font style=&quot;font-size: 16px;&quot;&gt;Users with wearable Device&lt;/font&gt;&lt;div&gt;&lt;font style=&quot;font-size: 16px;&quot;&gt;(Fitbit, Apple,&lt;/font&gt;&lt;/div&gt;&lt;div&gt;&lt;font style=&quot;font-size: 16px;&quot;&gt;Watch, Simulator)&lt;/font&gt;&lt;/div&gt;" style="rounded=0;whiteSpace=wrap;html=1;" vertex="1" parent="WIyWlLk6GJQsqaUBKTNV-1">
          <mxGeometry x="1910" y="400" width="200" height="91" as="geometry" />
        </mxCell>
        <mxCell id="DBazjf379_bZvMSUQni4-11" value="" style="edgeStyle=orthogonalEdgeStyle;rounded=0;orthogonalLoop=1;jettySize=auto;html=1;" edge="1" parent="WIyWlLk6GJQsqaUBKTNV-1" source="DBazjf379_bZvMSUQni4-9" target="DBazjf379_bZvMSUQni4-10">
          <mxGeometry relative="1" as="geometry" />
        </mxCell>
        <mxCell id="DBazjf379_bZvMSUQni4-9" value="&lt;div&gt;&lt;font style=&quot;font-size: 16px;&quot;&gt;Fetch data via API calls&lt;/font&gt;&lt;/div&gt;&lt;div&gt;&lt;font style=&quot;font-size: 16px;&quot;&gt;Extract Transcript&amp;nbsp;&lt;/font&gt;&lt;/div&gt;&lt;div&gt;&lt;font style=&quot;font-size: 16px;&quot;&gt;Segment text&lt;/font&gt;&lt;/div&gt;&lt;div&gt;&lt;font style=&quot;font-size: 16px;&quot;&gt;Assign timestamps&lt;/font&gt;&lt;/div&gt;" style="rounded=0;whiteSpace=wrap;html=1;" vertex="1" parent="WIyWlLk6GJQsqaUBKTNV-1">
          <mxGeometry x="2180" y="150" width="230" height="100" as="geometry" />
        </mxCell>
        <mxCell id="DBazjf379_bZvMSUQni4-10" value="&lt;div&gt;&lt;span style=&quot;background-color: transparent; color: light-dark(rgb(0, 0, 0), rgb(255, 255, 255));&quot;&gt;&lt;font style=&quot;font-size: 16px;&quot;&gt;Run inteference with Falconsas/Fear_mongering_detection&lt;/font&gt;&lt;/span&gt;&lt;/div&gt;&lt;div&gt;&lt;font style=&quot;font-size: 16px;&quot;&gt;Extract fear score&lt;/font&gt;&lt;/div&gt;&lt;div&gt;&lt;font style=&quot;font-size: 16px;&quot;&gt;&lt;br&gt;&lt;/font&gt;&lt;/div&gt;&lt;div&gt;&lt;font style=&quot;font-size: 16px;&quot;&gt;Create a time series of Fear Score vs timestamps&lt;/font&gt;&lt;/div&gt;" style="rounded=0;whiteSpace=wrap;html=1;" vertex="1" parent="WIyWlLk6GJQsqaUBKTNV-1">
          <mxGeometry x="2557.5" y="140" width="340" height="120" as="geometry" />
        </mxCell>
        <mxCell id="DBazjf379_bZvMSUQni4-15" value="&lt;div&gt;&lt;font style=&quot;font-size: 16px;&quot;&gt;Authorize/authenticate to connect to data provider&lt;/font&gt;&lt;/div&gt;&lt;div&gt;&lt;font style=&quot;font-size: 16px;&quot;&gt;Fetch user data via API calls&lt;/font&gt;&lt;/div&gt;&lt;div&gt;&lt;font style=&quot;font-size: 16px;&quot;&gt;Extract Heartrate and&lt;/font&gt;&lt;span style=&quot;font-size: 16px; background-color: transparent; color: light-dark(rgb(0, 0, 0), rgb(255, 255, 255));&quot;&gt;&amp;nbsp;timestamps&lt;/span&gt;&lt;/div&gt;&lt;div&gt;&lt;span style=&quot;font-size: 16px; background-color: transparent; color: light-dark(rgb(0, 0, 0), rgb(255, 255, 255));&quot;&gt;&lt;br&gt;&lt;/span&gt;&lt;/div&gt;&lt;div&gt;&lt;span style=&quot;font-size: 16px; background-color: transparent; color: light-dark(rgb(0, 0, 0), rgb(255, 255, 255));&quot;&gt;Create a a time series of HR / time&lt;/span&gt;&lt;/div&gt;" style="rounded=0;whiteSpace=wrap;html=1;" vertex="1" parent="WIyWlLk6GJQsqaUBKTNV-1">
          <mxGeometry x="2160" y="383.25" width="270" height="124.5" as="geometry" />
        </mxCell>
        <mxCell id="DBazjf379_bZvMSUQni4-16" value="&lt;div&gt;&lt;span style=&quot;font-size: 16px;&quot;&gt;Correlation Engine&lt;/span&gt;&lt;/div&gt;&lt;div&gt;&lt;span style=&quot;font-size: 16px;&quot;&gt;&lt;br&gt;&lt;/span&gt;&lt;/div&gt;&lt;div&gt;&lt;span style=&quot;font-size: 16px;&quot;&gt;Align timestamps for both data sources&lt;/span&gt;&lt;/div&gt;&lt;div&gt;&lt;span style=&quot;font-size: 16px;&quot;&gt;Create time series from correlated results&lt;/span&gt;&lt;/div&gt;&lt;div&gt;&lt;span style=&quot;font-size: 16px;&quot;&gt;&lt;br&gt;&lt;/span&gt;&lt;/div&gt;&lt;div&gt;&lt;span style=&quot;font-size: 16px;&quot;&gt;Fear score&amp;nbsp; / Heartrate&lt;/span&gt;&lt;/div&gt;&lt;div&gt;&lt;span style=&quot;font-size: 16px;&quot;&gt;vs&lt;/span&gt;&lt;/div&gt;&lt;div&gt;&lt;span style=&quot;font-size: 16px;&quot;&gt;Time duration&lt;/span&gt;&lt;/div&gt;" style="rounded=0;whiteSpace=wrap;html=1;" vertex="1" parent="WIyWlLk6GJQsqaUBKTNV-1">
          <mxGeometry x="2560" y="363.25" width="335" height="164.5" as="geometry" />
        </mxCell>
        <mxCell id="DBazjf379_bZvMSUQni4-18" value="&lt;div&gt;&lt;span style=&quot;font-size: 16px;&quot;&gt;UI display&lt;/span&gt;&lt;/div&gt;&lt;div&gt;&lt;span style=&quot;font-size: 16px;&quot;&gt;Visualization (Time series plots)&lt;/span&gt;&lt;/div&gt;&lt;div&gt;&lt;span style=&quot;font-size: 16px;&quot;&gt;Testing:&amp;nbsp;&lt;/span&gt;&lt;/div&gt;" style="rounded=0;whiteSpace=wrap;html=1;" vertex="1" parent="WIyWlLk6GJQsqaUBKTNV-1">
          <mxGeometry x="2990" y="383.25" width="270" height="124.5" as="geometry" />
        </mxCell>
        <mxCell id="DBazjf379_bZvMSUQni4-19" style="edgeStyle=orthogonalEdgeStyle;rounded=0;orthogonalLoop=1;jettySize=auto;html=1;entryX=0;entryY=0.5;entryDx=0;entryDy=0;exitX=1;exitY=0.5;exitDx=0;exitDy=0;" edge="1" parent="WIyWlLk6GJQsqaUBKTNV-1" source="DBazjf379_bZvMSUQni4-16" target="XL1AVDFbVfTAMq6u_eOz-12">
          <mxGeometry relative="1" as="geometry">
            <mxPoint x="2940" y="440" as="sourcePoint" />
            <mxPoint x="3035" y="440" as="targetPoint" />
          </mxGeometry>
        </mxCell>
      </root>
    </mxGraphModel>
  </diagram>
</mxfile>
